{
classes = (
{
automatic = 1;
code = "A Aacute Abreve Acircumflex Adieresis Agrave Amacron Aogonek Aring Aringacute Atilde AE AEacute B C Cacute Ccaron Ccedilla Ccircumflex Cdotaccent D Eth Dcaron Dcroat E Eacute Ebreve Ecaron Ecircumflex Edieresis Edotaccent Egrave Emacron Eogonek F G Gbreve Gcircumflex Gcommaaccent Gdotaccent H Hbar Hcircumflex I IJ Iacute Ibreve Icircumflex Idieresis Idotaccent Igrave Imacron Iogonek Itilde J Jcircumflex K Kcommaaccent L Lacute Lcaron Lcommaaccent Ldot Lslash M N Nacute Ncaron Ncommaaccent Eng Ntilde O Oacute Obreve Ocircumflex Odieresis Ograve Ohungarumlaut Omacron Oslash Oslashacute Otilde OE P Thorn Q R Racute Rcaron Rcommaaccent S Sacute Scaron Scedilla Scircumflex Scommaaccent T Tbar Tcaron Tcedilla Tcommaaccent U Uacute Ubreve Ucircumflex Udieresis Ugrave Uhungarumlaut Umacron Uogonek Uring Utilde V W Wacute Wcircumflex Wdieresis Wgrave X Y Yacute Ycircumflex Ydieresis Ygrave Z Zacute Zcaron Zdotaccent A-cy Be-cy Ve-cy Ge-cy Gje-cy Gheupturn-cy De-cy Ie-cy Iegrave-cy Io-cy Zhe-cy Ze-cy Ii-cy Iishort-cy Iigrave-cy Ka-cy Kje-cy El-cy Em-cy En-cy O-cy Pe-cy Er-cy Es-cy Te-cy U-cy Ushort-cy Ef-cy Ha-cy Che-cy Tse-cy Sha-cy Shcha-cy Dzhe-cy Ia-cy Softsign-cy Hardsign-cy Yeru-cy Lje-cy Nje-cy Dze-cy E-cy Ereversed-cy I-cy Yi-cy Je-cy Tshe-cy Iu-cy Dje-cy Ustraitstroke-cy Gamma Delta Pi Omega";
name = Uppercase;
}
);
copyright = "Copyright (c) 2011-2013, Sol Matas (www.huertatipografica.com.ar), with Reserved Font Name \"Bitter\".";
customParameters = (
{
name = openTypeNameLicenseURL;
value = "http://scripts.sil.org/OFL";
},
{
name = trademark;
value = "Bitter is a trademark of Sol Matas (www.huertatipografica.com.ar).";
},
{
name = openTypeNameLicense;
value = "This Font Software is licensed under the SIL Open Font License, Version 1.1. This license is available with a FAQ at: http://scripts.sil.org/OFL";
}
);
date = "2013-05-19 21:02:16 +0000";
designer = "Sol Matas";
designerURL = www.huertatipografica.com.ar;

glyphs = (
{
glyphname = A;
lastChange = "2014-11-10 22:19:09 +0100";
layers = (
{
layerId = "6959900B-8A08-4E04-B0F8-C63132552E7A";
name = "Bold Extended Italic";
paths = (
{
closed = 1;
nodes = (
"504 705 LINE",
"350 698 LINE",
"43 111 LINE",
"-24 88 LINE",
"-38 0 LINE",
"245 0 LINE",
"259 87 LINE",
"190 109 LINE",
"226 185 LINE",
"447 185 LINE",
"459 112 LINE",
"380 87 LINE",
"366 0 LINE",
"662 0 LINE",
"677 88 LINE",
"619 108 LINE"
);
},
{
closed = 1;
nodes = (
"430 292 LINE",
"276 292 LINE",
"393 533 LINE"
);
}
);
width = 711;
}
);
leftKerningGroup = A;
rightKerningGroup = A;
unicode = 0041;
},
{
glyphname = Amacron;
lastChange = "2014-11-10 22:19:09 +0100";
layers = (
{
layerId = "6959900B-8A08-4E04-B0F8-C63132552E7A";
name = "Bold Extended Italic";
paths = (
{
closed = 1;
nodes = (
"504 705 LINE",
"350 698 LINE",
"43 111 LINE",
"-24 88 LINE",
"-38 0 LINE",
"245 0 LINE",
"259 87 LINE",
"190 109 LINE",
"226 185 LINE",
"447 185 LINE",
"459 112 LINE",
"380 87 LINE",
"366 0 LINE",
"662 0 LINE",
"677 88 LINE",
"619 108 LINE"
);
},
{
closed = 1;
nodes = (
"430 292 LINE",
"276 292 LINE",
"393 533 LINE"
);
},
{
closed = 1;
nodes = (
"300 796 LINE",
"591 796 LINE",
"609 901 LINE",
"318 901 LINE"
);
}
);
width = 711;
}
);
leftKerningGroup = A;
rightKerningGroup = A;
unicode = 0100;
},
{
glyphname = Aogonek;
lastChange = "2014-11-10 22:19:09 +0100";
layers = (
{
layerId = "6959900B-8A08-4E04-B0F8-C63132552E7A";
name = "Bold Extended Italic";
paths = (
{
closed = 1;
nodes = (
"504 705 LINE",
"350 698 LINE",
"43 111 LINE",
"-24 88 LINE",
"-38 0 LINE",
"245 0 LINE",
"259 87 LINE",
"190 109 LINE",
"226 185 LINE",
"447 185 LINE",
"459 112 LINE",
"380 87 LINE",
"366 0 LINE",
"515 0 LINE",
"483 -17 OFFCURVE",
"381 -66 OFFCURVE",
"381 -152 CURVE SMOOTH",
"381 -206 OFFCURVE",
"422 -235 OFFCURVE",
"474 -235 CURVE SMOOTH",
"523 -235 OFFCURVE",
"576 -211 OFFCURVE",
"576 -211 CURVE",
"571 -140 LINE",
"571 -140 OFFCURVE",
"548 -147 OFFCURVE",
"531 -147 CURVE SMOOTH",
"510 -147 OFFCURVE",
"497 -135 OFFCURVE",
"497 -117 CURVE SMOOTH",
"497 -62 OFFCURVE",
"653 -3 OFFCURVE",
"662 0 CURVE",
"677 88 LINE",
"619 108 LINE"
);
},
{
closed = 1;
nodes = (
"430 292 LINE",
"276 292 LINE",
"393 533 LINE"
);
}
);
width = 711;
}
);
leftKerningGroup = A;
rightKerningGroup = A;
unicode = 0104;
},
{
glyphname = Aring;
lastChange = "2014-11-10 22:19:09 +0100";
layers = (
{
layerId = "6959900B-8A08-4E04-B0F8-C63132552E7A";
name = "Bold Extended Italic";
paths = (
{
closed = 1;
nodes = (
"309 745 OFFCURVE",
"324 716 OFFCURVE",
"350 698 CURVE",
"43 111 LINE",
"-24 88 LINE",
"-38 0 LINE",
"245 0 LINE",
"259 87 LINE",
"190 109 LINE",
"226 185 LINE",
"447 185 LINE",
"459 112 LINE",
"380 87 LINE",
"366 0 LINE",
"662 0 LINE",
"677 88 LINE",
"619 108 LINE",
"504 703 LINE",
"545 732 OFFCURVE",
"571 782 OFFCURVE",
"571 834 CURVE SMOOTH",
"571 900 OFFCURVE",
"520 937 OFFCURVE",
"458 937 CURVE SMOOTH",
"370 937 OFFCURVE",
"309 864 OFFCURVE",
"309 781 CURVE SMOOTH"
);
},
{
closed = 1;
nodes = (
"430 292 LINE",
"276 292 LINE",
"393 533 LINE"
);
},
{
closed = 1;
nodes = (
"476 865 OFFCURVE",
"488 850 OFFCURVE",
"488 822 CURVE SMOOTH",
"488 787 OFFCURVE",
"467 750 OFFCURVE",
"432 750 CURVE SMOOTH",
"405 750 OFFCURVE",
"392 765 OFFCURVE",
"392 793 CURVE SMOOTH",
"392 828 OFFCURVE",
"413 865 OFFCURVE",
"448 865 CURVE SMOOTH"
);
}
);
width = 711;
}
);
leftKerningGroup = A;
rightKerningGroup = A;
unicode = 00C5;
},
{
glyphname = AE;
lastChange = "2014-11-10 22:19:09 +0100";
layers = (
{
layerId = "6959900B-8A08-4E04-B0F8-C63132552E7A";
name = "Bold Extended Italic";
paths = (
{
closed = 1;
nodes = (
"647 587 LINE",
"815 587 LINE",
"828 512 LINE",
"908 512 LINE",
"939 705 LINE",
"530 705 LINE",
"283 700 LINE",
"270 617 LINE",
"347 589 LINE",
"47 112 LINE",
"-24 87 LINE",
"-38 0 LINE",
"238 0 LINE",
"253 87 LINE",
"194 108 LINE",
"247 192 LINE",
"437 192 LINE",
"424 112 LINE",
"349 87 LINE",
"334 0 LINE",
"840 0 LINE",
"873 201 LINE",
"783 201 LINE",
"747 117 LINE",
"572 117 LINE",
"602 310 LINE",
"800 310 LINE",
"817 420 LINE",
"620 420 LINE"
);
},
{
closed = 1;
nodes = (
"452 300 LINE",
"309 300 LINE",
"483 587 LINE",
"499 587 LINE"
);
}
);
width = 934;
}
);
leftKerningGroup = A;
rightKerningGroup = E;
unicode = 00C6;
},
{
glyphname = B;
lastChange = "2014-11-10 22:19:09 +0100";
layers = (
{
layerId = "6959900B-8A08-4E04-B0F8-C63132552E7A";
name = "Bold Extended Italic";
paths = (
{
closed = 1;
nodes = (
"333 705 LINE",
"108 700 LINE",
"95 617 LINE",
"164 588 LINE",
"89 111 LINE",
"11 87 LINE",
"-3 0 LINE",
"313 0 LINE SMOOTH",
"472 0 OFFCURVE",
"599 78 OFFCURVE",
"599 235 CURVE SMOOTH",
"599 306 OFFCURVE",
"550 347 OFFCURVE",
"477 368 CURVE",
"555 391 OFFCURVE",
"625 451 OFFCURVE",
"625 553 CURVE SMOOTH",
"625 655 OFFCURVE",
"533 705 OFFCURVE",
"429 705 CURVE SMOOTH"
);
},
{
closed = 1;
nodes = (
"328 312 LINE SMOOTH",
"405 312 OFFCURVE",
"442 288 OFFCURVE",
"442 227 CURVE SMOOTH",
"442 166 OFFCURVE",
"397 117 OFFCURVE",
"310 117 CURVE SMOOTH",
"239 117 LINE",
"270 312 LINE"
);
},
{
closed = 1;
nodes = (
"314 587 LINE",
"392 587 LINE SMOOTH",
"436 587 OFFCURVE",
"469 567 OFFCURVE",
"469 523 CURVE SMOOTH",
"469 458 OFFCURVE",
"417 417 OFFCURVE",
"342 417 CURVE SMOOTH",
"287 417 LINE"
);
}
);
width = 653;
}
);
rightKerningGroup = B;
unicode = 0042;
},
{
glyphname = C;
lastChange = "2014-11-10 22:19:09 +0100";
layers = (
{
layerId = "6959900B-8A08-4E04-B0F8-C63132552E7A";
name = "Bold Extended Italic";
paths = (
{
closed = 1;
nodes = (
"665 670 LINE",
"665 670 OFFCURVE",
"566 717 OFFCURVE",
"448 717 CURVE SMOOTH",
"218 717 OFFCURVE",
"55 524 OFFCURVE",
"55 249 CURVE SMOOTH",
"55 89 OFFCURVE",
"158 -13 OFFCURVE",
"316 -13 CURVE SMOOTH",
"451 -13 OFFCURVE",
"558 68 OFFCURVE",
"598 102 CURVE",
"545 186 LINE",
"508 160 OFFCURVE",
"438 116 OFFCURVE",
"349 116 CURVE SMOOTH",
"272 116 OFFCURVE",
"217 177 OFFCURVE",
"217 277 CURVE SMOOTH",
"217 431 OFFCURVE",
"290 592 OFFCURVE",
"431 592 CURVE SMOOTH",
"482 592 OFFCURVE",
"521 580 OFFCURVE",
"539 574 CURVE",
"552 480 LINE",
"635 480 LINE"
);
}
);
width = 645;
}
);
leftKerningGroup = O;
rightKerningGroup = C;
unicode = 0043;
},
{
glyphname = Ccedilla;
lastChange = "2014-11-10 22:19:09 +0100";
layers = (
{
layerId = "6959900B-8A08-4E04-B0F8-C63132552E7A";
name = "Bold Extended Italic";
paths = (
{
closed = 1;
nodes = (
"273 -168 OFFCURVE",
"241 -149 OFFCURVE",
"241 -149 CURVE",
"203 -204 LINE",
"203 -204 OFFCURVE",
"250 -234 OFFCURVE",
"318 -234 CURVE SMOOTH",
"387 -234 OFFCURVE",
"451 -190 OFFCURVE",
"451 -120 CURVE SMOOTH",
"451 -79 OFFCURVE",
"422 -53 OFFCURVE",
"380 -44 CURVE",
"386 -6 LINE",
"487 14 OFFCURVE",
"565 74 OFFCURVE",
"598 102 CURVE",
"545 186 LINE",
"508 160 OFFCURVE",
"438 116 OFFCURVE",
"349 116 CURVE SMOOTH",
"272 116 OFFCURVE",
"217 177 OFFCURVE",
"217 277 CURVE SMOOTH",
"217 431 OFFCURVE",
"290 592 OFFCURVE",
"431 592 CURVE SMOOTH",
"482 592 OFFCURVE",
"521 580 OFFCURVE",
"539 574 CURVE",
"552 480 LINE",
"635 480 LINE",
"665 670 LINE",
"665 670 OFFCURVE",
"566 717 OFFCURVE",
"448 717 CURVE SMOOTH",
"218 717 OFFCURVE",
"55 524 OFFCURVE",
"55 249 CURVE SMOOTH",
"55 94 OFFCURVE",
"152 -7 OFFCURVE",
"302 -13 CURVE",
"290 -87 LINE",
"335 -87 OFFCURVE",
"365 -100 OFFCURVE",
"365 -126 CURVE SMOOTH",
"365 -154 OFFCURVE",
"340 -168 OFFCURVE",
"310 -168 CURVE SMOOTH"
);
}
);
width = 645;
}
);
leftKerningGroup = O;
rightKerningGroup = C;
unicode = 00C7;
},
{
glyphname = Ccircumflex;
lastChange = "2014-11-10 22:19:09 +0100";
layers = (
{
layerId = "6959900B-8A08-4E04-B0F8-C63132552E7A";
name = "Bold Extended Italic";
paths = (
{
closed = 1;
nodes = (
"665 670 LINE",
"665 670 OFFCURVE",
"566 717 OFFCURVE",
"448 717 CURVE SMOOTH",
"218 717 OFFCURVE",
"55 524 OFFCURVE",
"55 249 CURVE SMOOTH",
"55 89 OFFCURVE",
"158 -13 OFFCURVE",
"316 -13 CURVE SMOOTH",
"451 -13 OFFCURVE",
"558 68 OFFCURVE",
"598 102 CURVE",
"545 186 LINE",
"508 160 OFFCURVE",
"438 116 OFFCURVE",
"349 116 CURVE SMOOTH",
"272 116 OFFCURVE",
"217 177 OFFCURVE",
"217 277 CURVE SMOOTH",
"217 431 OFFCURVE",
"290 592 OFFCURVE",
"431 592 CURVE SMOOTH",
"482 592 OFFCURVE",
"521 580 OFFCURVE",
"539 574 CURVE",
"552 480 LINE",
"635 480 LINE"
);
},
{
closed = 1;
nodes = (
"464 842 LINE",
"591 742 LINE",
"647 807 LINE",
"517 951 LINE",
"430 944 LINE",
"258 807 LINE",
"300 742 LINE"
);
}
);
width = 645;
}
);
leftKerningGroup = O;
rightKerningGroup = C;
unicode = 0108;
},
{
glyphname = D;
lastChange = "2014-11-10 22:19:09 +0100";
layers = (
{
layerId = "6959900B-8A08-4E04-B0F8-C63132552E7A";
name = "Bold Extended Italic";
paths = (
{
closed = 1;
nodes = (
"113 700 LINE",
"100 617 LINE",
"169 588 LINE",
"94 111 LINE",
"16 87 LINE",
"2 0 LINE",
"284 0 LINE SMOOTH",
"524 0 OFFCURVE",
"686 162 OFFCURVE",
"686 455 CURVE SMOOTH",
"686 619 OFFCURVE",
"585 705 OFFCURVE",
"429 705 CURVE SMOOTH",
"336 705 LINE"
);
},
{
closed = 1;
nodes = (
"317 587 LINE",
"409 587 LINE SMOOTH",
"491 587 OFFCURVE",
"529 525 OFFCURVE",
"529 449 CURVE SMOOTH",
"529 277 OFFCURVE",
"457 117 OFFCURVE",
"307 117 CURVE SMOOTH",
"242 117 LINE"
);
}
);
width = 711;
}
);
leftKerningGroup = H;
rightKerningGroup = O;
unicode = 0044;
},
{
glyphname = Eth;
lastChange = "2014-11-10 22:19:09 +0100";
layers = (
{
layerId = "6959900B-8A08-4E04-B0F8-C63132552E7A";
name = "Bold Extended Italic";
paths = (
{
closed = 1;
nodes = (
"113 700 LINE",
"100 617 LINE",
"168 588 LINE",
"141 420 LINE",
"69 420 LINE",
"51 310 LINE",
"124 310 LINE",
"92 112 LINE",
"16 87 LINE",
"2 0 LINE",
"287 0 LINE SMOOTH",
"526 0 OFFCURVE",
"690 162 OFFCURVE",
"690 455 CURVE SMOOTH",
"690 619 OFFCURVE",
"587 705 OFFCURVE",
"431 705 CURVE SMOOTH",
"335 705 LINE"
);
},
{
closed = 1;
nodes = (
"392 310 LINE",
"407 420 LINE",
"289 420 LINE",
"316 587 LINE",
"412 587 LINE SMOOTH",
"497 587 OFFCURVE",
"533 537 OFFCURVE",
"533 449 CURVE SMOOTH",
"533 277 OFFCURVE",
"459 117 OFFCURVE",
"309 117 CURVE SMOOTH",
"241 117 LINE",
"272 310 LINE"
);
}
);
width = 720;
}
);
leftKerningGroup = H;
rightKerningGroup = O;
unicode = 00D0;
},
{
glyphname = Dcroat;
lastChange = "2014-11-10 22:19:09 +0100";
layers = (
{
layerId = "6959900B-8A08-4E04-B0F8-C63132552E7A";
name = "Bold Extended Italic";
paths = (
{
closed = 1;
nodes = (
"113 700 LINE",
"100 617 LINE",
"168 588 LINE",
"141 420 LINE",
"69 420 LINE",
"51 310 LINE",
"124 310 LINE",
"92 112 LINE",
"16 87 LINE",
"2 0 LINE",
"287 0 LINE SMOOTH",
"526 0 OFFCURVE",
"690 162 OFFCURVE",
"690 455 CURVE SMOOTH",
"690 619 OFFCURVE",
"587 705 OFFCURVE",
"431 705 CURVE SMOOTH",
"335 705 LINE"
);
},
{
closed = 1;
nodes = (
"392 310 LINE",
"407 420 LINE",
"289 420 LINE",
"316 587 LINE",
"412 587 LINE SMOOTH",
"497 587 OFFCURVE",
"533 537 OFFCURVE",
"533 449 CURVE SMOOTH",
"533 277 OFFCURVE",
"459 117 OFFCURVE",
"309 117 CURVE SMOOTH",
"241 117 LINE",
"272 310 LINE"
);
}
);
width = 720;
}
);
leftKerningGroup = H;
rightKerningGroup = O;
unicode = 0110;
},
{
glyphname = E;
lastChange = "2014-11-10 22:19:09 +0100";
layers = (
{
layerId = "6959900B-8A08-4E04-B0F8-C63132552E7A";
name = "Bold Extended Italic";
paths = (
{
closed = 1;
nodes = (
"492 585 LINE",
"505 512 LINE",
"585 512 LINE",
"616 705 LINE",
"343 705 LINE",
"118 700 LINE",
"105 617 LINE",
"174 588 LINE",
"99 111 LINE",
"21 87 LINE",
"7 0 LINE",
"517 0 LINE",
"550 201 LINE",
"460 201 LINE",
"424 120 LINE",
"249 120 LINE",
"279 310 LINE",
"477 310 LINE",
"494 420 LINE",
"297 420 LINE",
"324 585 LINE"
);
}
);
width = 611;
}
);
leftKerningGroup = E;
rightKerningGroup = E;
unicode = 0045;
},
{
glyphname = Ecircumflex;
lastChange = "2014-11-10 22:19:09 +0100";
layers = (
{
layerId = "6959900B-8A08-4E04-B0F8-C63132552E7A";
name = "Bold Extended Italic";
paths = (
{
closed = 1;
nodes = (
"490 587 LINE",
"503 512 LINE",
"583 512 LINE",
"614 705 LINE",
"341 705 LINE",
"118 700 LINE",
"105 617 LINE",
"174 588 LINE",
"99 111 LINE",
"21 87 LINE",
"7 0 LINE",
"515 0 LINE",
"548 201 LINE",
"458 201 LINE",
"422 117 LINE",
"247 117 LINE",
"277 310 LINE",
"475 310 LINE",
"492 420 LINE",
"295 420 LINE",
"322 587 LINE"
);
},
{
closed = 1;
nodes = (
"417 845 LINE",
"544 745 LINE",
"600 810 LINE",
"470 954 LINE",
"383 947 LINE",
"211 810 LINE",
"253 745 LINE"
);
}
);
width = 609;
}
);
leftKerningGroup = E;
rightKerningGroup = E;
unicode = 00CA;
},
{
glyphname = Emacron;
lastChange = "2014-11-10 22:19:09 +0100";
layers = (
{
layerId = "6959900B-8A08-4E04-B0F8-C63132552E7A";
name = "Bold Extended Italic";
paths = (
{
closed = 1;
nodes = (
"490 587 LINE",
"503 512 LINE",
"583 512 LINE",
"614 705 LINE",
"341 705 LINE",
"118 700 LINE",
"105 617 LINE",
"174 588 LINE",
"99 111 LINE",
"21 87 LINE",
"7 0 LINE",
"515 0 LINE",
"548 201 LINE",
"458 201 LINE",
"422 117 LINE",
"247 117 LINE",
"277 310 LINE",
"475 310 LINE",
"492 420 LINE",
"295 420 LINE",
"322 587 LINE"
);
},
{
closed = 1;
nodes = (
"252 796 LINE",
"543 796 LINE",
"561 901 LINE",
"270 901 LINE"
);
}
);
width = 609;
}
);
leftKerningGroup = E;
rightKerningGroup = E;
unicode = 0112;
},
{
glyphname = Eogonek;
lastChange = "2014-11-10 22:19:09 +0100";
layers = (
{
layerId = "6959900B-8A08-4E04-B0F8-C63132552E7A";
name = "Bold Extended Italic";
paths = (
{
closed = 1;
nodes = (
"490 587 LINE",
"503 512 LINE",
"583 512 LINE",
"614 705 LINE",
"341 705 LINE",
"118 700 LINE",
"105 617 LINE",
"174 588 LINE",
"99 111 LINE",
"21 87 LINE",
"7 0 LINE",
"403 0 LINE",
"372 -16 OFFCURVE",
"278 -70 OFFCURVE",
"278 -152 CURVE SMOOTH",
"278 -206 OFFCURVE",
"319 -235 OFFCURVE",
"371 -235 CURVE SMOOTH",
"420 -235 OFFCURVE",
"473 -211 OFFCURVE",
"473 -211 CURVE",
"468 -140 LINE",
"468 -140 OFFCURVE",
"445 -147 OFFCURVE",
"428 -147 CURVE SMOOTH",
"407 -147 OFFCURVE",
"394 -135 OFFCURVE",
"394 -117 CURVE SMOOTH",
"394 -67 OFFCURVE",
"514 0 OFFCURVE",
"515 0 CURVE",
"548 201 LINE",
"458 201 LINE",
"422 117 LINE",
"247 117 LINE",
"277 310 LINE",
"475 310 LINE",
"492 420 LINE",
"295 420 LINE",
"322 587 LINE"
);
}
);
width = 609;
}
);
leftKerningGroup = E;
rightKerningGroup = E;
unicode = 0118;
},
{
glyphname = F;
lastChange = "2014-11-10 22:19:09 +0100";
layers = (
{
layerId = "6959900B-8A08-4E04-B0F8-C63132552E7A";
name = "Bold Extended Italic";
paths = (
{
closed = 1;
nodes = (
"489 587 LINE",
"502 512 LINE",
"582 512 LINE",
"613 705 LINE",
"340 705 LINE",
"118 700 LINE",
"105 617 LINE",
"174 588 LINE",
"99 111 LINE",
"21 87 LINE",
"7 0 LINE",
"309 0 LINE",
"323 87 LINE",
"246 111 LINE",
"276 300 LINE",
"477 300 LINE",
"495 410 LINE",
"293 410 LINE",
"322 587 LINE"
);
}
);
width = 554;
}
);
leftKerningGroup = H;
rightKerningGroup = F;
unicode = 0046;
},
{
glyphname = G;
lastChange = "2014-11-10 22:19:09 +0100";
layers = (
{
layerId = "6959900B-8A08-4E04-B0F8-C63132552E7A";
name = "Bold Extended Italic";
paths = (
{
closed = 1;
nodes = (
"627 262 LINE",
"698 285 LINE",
"711 370 LINE",
"430 365 LINE",
"417 285 LINE",
"492 262 LINE",
"470 131 LINE",
"440 120 OFFCURVE",
"404 112 OFFCURVE",
"359 112 CURVE SMOOTH",
"272 112 OFFCURVE",
"215 170 OFFCURVE",
"215 277 CURVE SMOOTH",
"215 436 OFFCURVE",
"295 592 OFFCURVE",
"432 592 CURVE SMOOTH",
"489 592 OFFCURVE",
"544 575 OFFCURVE",
"544 575 CURVE",
"557 492 LINE",
"640 492 LINE",
"671 670 LINE",
"671 670 OFFCURVE",
"569 717 OFFCURVE",
"451 717 CURVE SMOOTH",
"221 717 OFFCURVE",
"55 525 OFFCURVE",
"55 249 CURVE SMOOTH",
"55 85 OFFCURVE",
"159 -12 OFFCURVE",
"319 -12 CURVE SMOOTH",
"440 -12 OFFCURVE",
"535 25 OFFCURVE",
"596 59 CURVE"
);
}
);
width = 716;
}
);
leftKerningGroup = O;
rightKerningGroup = G;
unicode = 0047;
},
{
glyphname = Gcircumflex;
lastChange = "2014-11-10 22:19:09 +0100";
layers = (
{
layerId = "6959900B-8A08-4E04-B0F8-C63132552E7A";
name = "Bold Extended Italic";
paths = (
{
closed = 1;
nodes = (
"627 262 LINE",
"698 285 LINE",
"711 370 LINE",
"430 365 LINE",
"417 285 LINE",
"492 262 LINE",
"470 131 LINE",
"440 120 OFFCURVE",
"404 112 OFFCURVE",
"359 112 CURVE SMOOTH",
"272 112 OFFCURVE",
"215 170 OFFCURVE",
"215 277 CURVE SMOOTH",
"215 436 OFFCURVE",
"295 592 OFFCURVE",
"432 592 CURVE SMOOTH",
"489 592 OFFCURVE",
"544 575 OFFCURVE",
"544 575 CURVE",
"557 492 LINE",
"640 492 LINE",
"671 670 LINE",
"671 670 OFFCURVE",
"569 717 OFFCURVE",
"451 717 CURVE SMOOTH",
"221 717 OFFCURVE",
"55 525 OFFCURVE",
"55 249 CURVE SMOOTH",
"55 85 OFFCURVE",
"159 -12 OFFCURVE",
"319 -12 CURVE SMOOTH",
"440 -12 OFFCURVE",
"535 25 OFFCURVE",
"596 59 CURVE"
);
},
{
closed = 1;
nodes = (
"464 842 LINE",
"591 742 LINE",
"647 807 LINE",
"517 951 LINE",
"430 944 LINE",
"258 807 LINE",
"300 742 LINE"
);
}
);
width = 716;
}
);
leftKerningGroup = O;
rightKerningGroup = G;
unicode = 011C;
},
{
glyphname = Gcommaaccent;
lastChange = "2014-11-10 22:19:09 +0100";
layers = (
{
components = (
{
name = G;
transform = "{1, 0, 0, 1, -0, 0}";
}
);
layerId = "6959900B-8A08-4E04-B0F8-C63132552E7A";
name = "Bold Extended Italic";
paths = (
{
closed = 1;
nodes = (
"262 -329 LINE",
"310 -286 OFFCURVE",
"400 -201 OFFCURVE",
"400 -115 CURVE SMOOTH",
"400 -75 OFFCURVE",
"380 -50 OFFCURVE",
"340 -50 CURVE SMOOTH",
"300 -50 OFFCURVE",
"261 -80 OFFCURVE",
"261 -130 CURVE SMOOTH",
"261 -158 OFFCURVE",
"273 -170 OFFCURVE",
"273 -189 CURVE SMOOTH",
"273 -223 OFFCURVE",
"242 -248 OFFCURVE",
"212 -276 CURVE"
);
}
);
width = 716;
}
);
leftKerningGroup = O;
rightKerningGroup = G;
unicode = 0122;
},
{
glyphname = H;
lastChange = "2014-11-10 22:19:09 +0100";
layers = (
{
layerId = "6959900B-8A08-4E04-B0F8-C63132552E7A";
name = "Bold Extended Italic";
paths = (
{
closed = 1;
nodes = (
"643 111 LINE",
"719 587 LINE",
"797 617 LINE",
"811 705 LINE",
"511 700 LINE",
"498 617 LINE",
"569 588 LINE",
"542 422 LINE",
"287 422 LINE",
"314 587 LINE",
"392 617 LINE",
"406 705 LINE",
"108 700 LINE",
"95 617 LINE",
"164 588 LINE",
"88 111 LINE",
"11 87 LINE",
"-3 0 LINE",
"294 0 LINE",
"308 87 LINE",
"238 111 LINE",
"269 305 LINE",
"524 305 LINE",
"493 111 LINE",
"415 87 LINE",
"401 0 LINE",
"700 0 LINE",
"714 87 LINE"
);
}
);
width = 783;
}
);
unicode = 0048;
},
{
glyphname = Hbar;
lastChange = "2014-11-10 22:19:09 +0100";
layers = (
{
layerId = "6959900B-8A08-4E04-B0F8-C63132552E7A";
name = "Bold Extended Italic";
paths = (
{
closed = 1;
nodes = (
"77 474 LINE",
"151 474 LINE",
"93 111 LINE",
"16 87 LINE",
"2 0 LINE",
"296 0 LINE",
"310 87 LINE",
"240 111 LINE",
"271 305 LINE",
"526 305 LINE",
"495 111 LINE",
"417 87 LINE",
"403 0 LINE",
"699 0 LINE",
"713 87 LINE",
"642 111 LINE",
"700 474 LINE",
"775 474 LINE",
"789 564 LINE",
"714 564 LINE",
"718 587 LINE",
"796 617 LINE",
"810 705 LINE",
"513 700 LINE",
"500 617 LINE",
"571 588 LINE",
"567 564 LINE",
"312 564 LINE",
"316 587 LINE",
"394 617 LINE",
"408 705 LINE",
"113 700 LINE",
"100 617 LINE",
"169 588 LINE",
"165 564 LINE",
"91 564 LINE"
);
},
{
closed = 1;
nodes = (
"289 422 LINE",
"297 474 LINE",
"552 474 LINE",
"544 422 LINE"
);
}
);
width = 788;
}
);
leftKerningGroup = H;
rightKerningGroup = H;
unicode = 0126;
},
{
glyphname = Hcircumflex;
lastChange = "2014-11-10 22:19:09 +0100";
layers = (
{
layerId = "6959900B-8A08-4E04-B0F8-C63132552E7A";
name = "Bold Extended Italic";
paths = (
{
closed = 1;
nodes = (
"637 111 LINE",
"713 587 LINE",
"791 617 LINE",
"805 705 LINE",
"508 700 LINE",
"495 617 LINE",
"566 588 LINE",
"539 422 LINE",
"284 422 LINE",
"311 587 LINE",
"389 617 LINE",
"403 705 LINE",
"108 700 LINE",
"95 617 LINE",
"164 588 LINE",
"88 111 LINE",
"11 87 LINE",
"-3 0 LINE",
"291 0 LINE",
"305 87 LINE",
"235 111 LINE",
"266 305 LINE",
"521 305 LINE",
"490 111 LINE",
"412 87 LINE",
"398 0 LINE",
"694 0 LINE",
"708 87 LINE"
);
},
{
closed = 1;
nodes = (
"476 842 LINE",
"603 742 LINE",
"659 807 LINE",
"529 951 LINE",
"442 944 LINE",
"270 807 LINE",
"312 742 LINE"
);
}
);
width = 777;
}
);
leftKerningGroup = H;
rightKerningGroup = H;
unicode = 0124;
},
{
glyphname = I;
lastChange = "2014-11-10 22:19:09 +0100";
layers = (
{
layerId = "6959900B-8A08-4E04-B0F8-C63132552E7A";
name = "Bold Extended Italic";
paths = (
{
closed = 1;
nodes = (
"239 111 LINE",
"315 587 LINE",
"393 617 LINE",
"407 705 LINE",
"109 700 LINE",
"96 617 LINE",
"165 588 LINE",
"89 111 LINE",
"11 87 LINE",
"-3 0 LINE",
"295 0 LINE",
"309 87 LINE"
);
}
);
width = 378;
}
);
leftKerningGroup = I;
rightKerningGroup = I;
unicode = 0049;
},
{
glyphname = IJ;
lastChange = "2014-11-10 22:19:09 +0100";
layers = (
{
layerId = "6959900B-8A08-4E04-B0F8-C63132552E7A";
name = "Bold Extended Italic";
paths = (
{
closed = 1;
nodes = (
"417 705 LINE",
"109 700 LINE",
"96 617 LINE",
"165 588 LINE",
"89 111 LINE",
"11 87 LINE",
"-3 0 LINE",
"290 0 LINE",
"304 87 LINE",
"239 111 LINE",
"315 587 LINE",
"413 617 LINE",
"518 588 LINE",
"432 46 LINE SMOOTH",
"422 -16 OFFCURVE",
"386 -50 OFFCURVE",
"332 -50 CURVE SMOOTH",
"285 -50 LINE",
"256 -150 LINE",
"256 -150 OFFCURVE",
"298 -157 OFFCURVE",
"329 -157 CURVE SMOOTH",
"497 -157 OFFCURVE",
"560 -70 OFFCURVE",
"588 102 CURVE SMOOTH",
"666 587 LINE",
"744 617 LINE",
"758 705 LINE"
);
}
);
width = 709;
}
);
rightKerningGroup = J;
unicode = 0132;
},
{
glyphname = Icircumflex;
lastChange = "2014-11-10 22:19:09 +0100";
layers = (
{
components = (
{
name = I;
transform = "{1, 0, 0, 1, -0, 0}";
}
);
layerId = "6959900B-8A08-4E04-B0F8-C63132552E7A";
name = "Bold Extended Italic";
paths = (
{
closed = 1;
nodes = (
"284 842 LINE",
"399 742 LINE",
"455 807 LINE",
"337 951 LINE",
"250 944 LINE",
"90 807 LINE",
"132 742 LINE"
);
}
);
width = 380;
}
);
leftKerningGroup = I;
rightKerningGroup = I;
unicode = 00CE;
},
{
glyphname = Idieresis;
lastChange = "2014-11-10 22:19:09 +0100";
layers = (
{
components = (
{
name = I;
transform = "{1, 0, 0, 1, 1, 0}";
}
);
layerId = "6959900B-8A08-4E04-B0F8-C63132552E7A";
name = "Bold Extended Italic";
paths = (
{
closed = 1;
nodes = (
"323 793 OFFCURVE",
"346 770 OFFCURVE",
"383 770 CURVE SMOOTH",
"436 770 OFFCURVE",
"467 814 OFFCURVE",
"467 865 CURVE SMOOTH",
"467 903 OFFCURVE",
"443 926 OFFCURVE",
"405 926 CURVE SMOOTH",
"352 926 OFFCURVE",
"323 881 OFFCURVE",
"323 830 CURVE SMOOTH"
);
},
{
closed = 1;
nodes = (
"110 793 OFFCURVE",
"133 770 OFFCURVE",
"170 770 CURVE SMOOTH",
"223 770 OFFCURVE",
"255 814 OFFCURVE",
"255 865 CURVE SMOOTH",
"255 903 OFFCURVE",
"231 926 OFFCURVE",
"193 926 CURVE SMOOTH",
"139 926 OFFCURVE",
"110 881 OFFCURVE",
"110 830 CURVE SMOOTH"
);
}
);
width = 379;
}
);
leftKerningGroup = I;
rightKerningGroup = I;
unicode = 00CF;
},
{
glyphname = Imacron;
lastChange = "2014-11-10 22:19:09 +0100";
layers = (
{
components = (
{
name = I;
transform = "{1, 0, 0, 1, 0, 0}";
}
);
layerId = "6959900B-8A08-4E04-B0F8-C63132552E7A";
name = "Bold Extended Italic";
paths = (
{
closed = 1;
nodes = (
"129 796 LINE",
"420 796 LINE",
"438 901 LINE",
"147 901 LINE"
);
}
);
width = 378;
}
);
leftKerningGroup = I;
rightKerningGroup = I;
unicode = 012A;
},
{
glyphname = Iogonek;
lastChange = "2014-11-10 22:19:09 +0100";
layers = (
{
guideLines = (
{
position = "{94, 87}";
}
);
layerId = "6959900B-8A08-4E04-B0F8-C63132552E7A";
name = "Bold Extended Italic";
paths = (
{
closed = 1;
nodes = (
"239 111 LINE",
"315 587 LINE",
"393 617 LINE",
"407 705 LINE",
"109 700 LINE",
"96 617 LINE",
"165 588 LINE",
"89 111 LINE",
"11 87 LINE",
"-3 0 LINE",
"159 0 LINE",
"125 -17 OFFCURVE",
"25 -68 OFFCURVE",
"25 -152 CURVE SMOOTH",
"25 -206 OFFCURVE",
"66 -235 OFFCURVE",
"118 -235 CURVE SMOOTH",
"167 -235 OFFCURVE",
"220 -211 OFFCURVE",
"220 -211 CURVE",
"215 -140 LINE",
"215 -140 OFFCURVE",
"192 -147 OFFCURVE",
"175 -147 CURVE SMOOTH",
"154 -147 OFFCURVE",
"141 -135 OFFCURVE",
"141 -117 CURVE SMOOTH",
"141 -68 OFFCURVE",
"287 -3 OFFCURVE",
"295 0 CURVE",
"309 87 LINE"
);
}
);
width = 378;
}
);
leftKerningGroup = I;
rightKerningGroup = I;
unicode = 012E;
},
{
glyphname = Itilde;
lastChange = "2014-11-10 22:19:09 +0100";
layers = (
{
components = (
{
name = I;
transform = "{1, 0, 0, 1, 0, 0}";
}
);
layerId = "6959900B-8A08-4E04-B0F8-C63132552E7A";
name = "Bold Extended Italic";
paths = (
{
closed = 1;
nodes = (
"105 780 LINE",
"105 780 OFFCURVE",
"142 821 OFFCURVE",
"183 821 CURVE SMOOTH",
"241 821 OFFCURVE",
"280 777 OFFCURVE",
"348 777 CURVE SMOOTH",
"427 777 OFFCURVE",
"486 886 OFFCURVE",
"486 886 CURVE",
"441 925 LINE",
"441 925 OFFCURVE",
"406 883 OFFCURVE",
"368 883 CURVE SMOOTH",
"310 883 OFFCURVE",
"276 928 OFFCURVE",
"208 928 CURVE SMOOTH",
"128 928 OFFCURVE",
"67 821 OFFCURVE",
"67 821 CURVE"
);
}
);
width = 379;
}
);
leftKerningGroup = I;
rightKerningGroup = I;
unicode = 0128;
},
{
glyphname = J;
lastChange = "2014-11-10 22:19:09 +0100";
layers = (
{
layerId = "6959900B-8A08-4E04-B0F8-C63132552E7A";
name = "Bold Extended Italic";
paths = (
{
closed = 1;
nodes = (
"325 587 LINE",
"403 617 LINE",
"417 705 LINE",
"119 700 LINE",
"106 617 LINE",
"175 588 LINE",
"89 46 LINE SMOOTH",
"79 -16 OFFCURVE",
"43 -50 OFFCURVE",
"-11 -50 CURVE SMOOTH",
"-58 -50 LINE",
"-87 -150 LINE",
"-87 -150 OFFCURVE",
"-45 -157 OFFCURVE",
"-14 -157 CURVE SMOOTH",
"154 -157 OFFCURVE",
"219 -70 OFFCURVE",
"247 102 CURVE SMOOTH"
);
}
);
width = 368;
}
);
leftKerningGroup = J;
rightKerningGroup = J;
unicode = 004A;
},
{
glyphname = Jcircumflex;
lastChange = "2014-11-10 22:19:09 +0100";
layers = (
{
components = (
{
name = J;
transform = "{1, 0, 0, 1, 0, 0}";
}
);
layerId = "6959900B-8A08-4E04-B0F8-C63132552E7A";
name = "Bold Extended Italic";
paths = (
{
closed = 1;
nodes = (
"293 842 LINE",
"408 742 LINE",
"464 807 LINE",
"346 951 LINE",
"259 944 LINE",
"99 807 LINE",
"141 742 LINE"
);
}
);
width = 369;
}
);
leftKerningGroup = J;
rightKerningGroup = J;
unicode = 0134;
},
{
glyphname = K;
lastChange = "2014-11-10 22:19:09 +0100";
layers = (
{
layerId = "6959900B-8A08-4E04-B0F8-C63132552E7A";
name = "Bold Extended Italic";
paths = (
{
closed = 1;
nodes = (
"610 110 LINE",
"468 367 LINE",
"637 587 LINE",
"713 617 LINE",
"727 705 LINE",
"562 700 LINE",
"354 415 LINE",
"289 415 LINE",
"316 588 LINE",
"393 617 LINE",
"407 705 LINE",
"113 700 LINE",
"100 617 LINE",
"169 588 LINE",
"94 111 LINE",
"16 87 LINE",
"2 0 LINE",
"295 0 LINE",
"309 87 LINE",
"241 111 LINE",
"272 305 LINE",
"344 305 LINE",
"447 108 LINE",
"390 87 LINE",
"376 0 LINE",
"662 0 LINE",
"676 87 LINE"
);
}
);
width = 670;
}
);
rightKerningGroup = K;
unicode = 004B;
},
{
glyphname = Kcommaaccent;
lastChange = "2014-11-10 22:19:09 +0100";
layers = (
{
layerId = "6959900B-8A08-4E04-B0F8-C63132552E7A";
name = "Bold Extended Italic";
paths = (
{
closed = 1;
nodes = (
"605 110 LINE",
"463 367 LINE",
"632 587 LINE",
"708 617 LINE",
"722 705 LINE",
"557 700 LINE",
"349 415 LINE",
"284 415 LINE",
"311 588 LINE",
"388 617 LINE",
"402 705 LINE",
"108 700 LINE",
"95 617 LINE",
"164 588 LINE",
"89 111 LINE",
"11 87 LINE",
"-3 0 LINE",
"290 0 LINE",
"304 87 LINE",
"236 111 LINE",
"267 305 LINE",
"339 305 LINE",
"442 108 LINE",
"385 87 LINE",
"371 0 LINE",
"657 0 LINE",
"671 87 LINE"
);
},
{
closed = 1;
nodes = (
"230 -329 LINE",
"278 -286 OFFCURVE",
"368 -201 OFFCURVE",
"368 -115 CURVE SMOOTH",
"368 -75 OFFCURVE",
"348 -50 OFFCURVE",
"308 -50 CURVE SMOOTH",
"268 -50 OFFCURVE",
"229 -80 OFFCURVE",
"229 -130 CURVE SMOOTH",
"229 -158 OFFCURVE",
"241 -170 OFFCURVE",
"241 -189 CURVE SMOOTH",
"241 -223 OFFCURVE",
"210 -248 OFFCURVE",
"180 -276 CURVE"
);
}
);
width = 670;
}
);
leftKerningGroup = K;
rightKerningGroup = K;
unicode = 0136;
},
{
glyphname = L;
lastChange = "2014-11-10 22:19:09 +0100";
layers = (
{
layerId = "6959900B-8A08-4E04-B0F8-C63132552E7A";
name = "Bold Extended Italic";
paths = (
{
closed = 1;
nodes = (
"309 588 LINE",
"390 617 LINE",
"404 705 LINE",
"103 700 LINE",
"90 617 LINE",
"159 588 LINE",
"84 111 LINE",
"6 87 LINE",
"-8 0 LINE",
"480 0 LINE",
"518 230 LINE",
"426 230 LINE",
"386 120 LINE",
"234 120 LINE"
);
}
);
width = 529;
}
);
leftKerningGroup = H;
rightKerningGroup = L;
unicode = 004C;
},
{
glyphname = Lcaron;
lastChange = "2014-11-10 22:19:09 +0100";
layers = (
{
components = (
{
name = L;
transform = "{1, 0, 0, 1, 0, 0}";
},
{
name = caron.x;
transform = "{1, 0, 0, 1, 372, -75}";
}
);
layerId = "6959900B-8A08-4E04-B0F8-C63132552E7A";
name = "Bold Extended Italic";
paths = (
{
closed = 0;
nodes = (
"231 589 LINE"
);
}
);
width = 554;
}
);
leftKerningGroup = H;
unicode = 013D;
},
{
glyphname = Lcommaaccent;
lastChange = "2014-11-10 22:19:09 +0100";
layers = (
{
layerId = "6959900B-8A08-4E04-B0F8-C63132552E7A";
name = "Bold Extended Italic";
paths = (
{
closed = 1;
nodes = (
"307 588 LINE",
"388 617 LINE",
"402 705 LINE",
"103 700 LINE",
"90 617 LINE",
"159 588 LINE",
"84 111 LINE",
"6 87 LINE",
"-8 0 LINE",
"478 0 LINE",
"516 230 LINE",
"424 230 LINE",
"384 117 LINE",
"232 117 LINE"
);
},
{
closed = 1;
nodes = (
"156 -329 LINE",
"204 -286 OFFCURVE",
"294 -201 OFFCURVE",
"294 -115 CURVE SMOOTH",
"294 -75 OFFCURVE",
"274 -50 OFFCURVE",
"234 -50 CURVE SMOOTH",
"194 -50 OFFCURVE",
"155 -80 OFFCURVE",
"155 -130 CURVE SMOOTH",
"155 -158 OFFCURVE",
"167 -170 OFFCURVE",
"167 -189 CURVE SMOOTH",
"167 -223 OFFCURVE",
"136 -248 OFFCURVE",
"106 -276 CURVE"
);
}
);
width = 527;
}
);
leftKerningGroup = H;
rightKerningGroup = L;
unicode = 013B;
},
{
glyphname = Ldot;
lastChange = "2014-11-10 22:19:09 +0100";
layers = (
{
components = (
{
name = periodcentered;
transform = "{1, 0, 0, 1, 275, 70}";
}
);
layerId = "6959900B-8A08-4E04-B0F8-C63132552E7A";
name = "Bold Extended Italic";
paths = (
{
closed = 1;
nodes = (
"307 588 LINE",
"388 617 LINE",
"402 705 LINE",
"103 700 LINE",
"90 617 LINE",
"159 588 LINE",
"84 111 LINE",
"6 87 LINE",
"-8 0 LINE",
"478 0 LINE",
"516 230 LINE",
"424 230 LINE",
"384 117 LINE",
"232 117 LINE"
);
}
);
width = 527;
}
);
leftKerningGroup = H;
rightKerningGroup = L;
unicode = 013F;
},
{
glyphname = Lslash;
lastChange = "2014-11-10 22:19:09 +0100";
layers = (
{
layerId = "6959900B-8A08-4E04-B0F8-C63132552E7A";
name = "Bold Extended Italic";
paths = (
{
closed = 1;
nodes = (
"331 588 LINE",
"412 617 LINE",
"426 705 LINE",
"127 700 LINE",
"114 617 LINE",
"183 588 LINE",
"147 360 LINE",
"26 312 LINE",
"37 217 LINE",
"130 254 LINE",
"108 111 LINE",
"30 87 LINE",
"16 0 LINE",
"502 0 LINE",
"540 230 LINE",
"448 230 LINE",
"408 117 LINE",
"256 117 LINE",
"288 316 LINE",
"464 387 LINE",
"453 482 LINE",
"305 423 LINE"
);
}
);
width = 556;
}
);
leftKerningGroup = H;
rightKerningGroup = L;
unicode = 0141;
},
{
glyphname = M;
lastChange = "2014-11-10 22:19:09 +0100";
layers = (
{
layerId = "6959900B-8A08-4E04-B0F8-C63132552E7A";
name = "Bold Extended Italic";
paths = (
{
closed = 1;
nodes = (
"214 111 LINE",
"270 464 LINE",
"353 176 LINE",
"461 183 LINE",
"636 468 LINE",
"580 112 LINE",
"506 87 LINE",
"492 0 LINE",
"775 0 LINE",
"789 87 LINE",
"720 112 LINE",
"795 587 LINE",
"872 617 LINE",
"887 705 LINE",
"650 700 LINE",
"447 367 LINE",
"351 705 LINE",
"103 700 LINE",
"90 617 LINE",
"159 588 LINE",
"83 111 LINE",
"6 87 LINE",
"-8 0 LINE",
"270 0 LINE",
"284 87 LINE"
);
}
);
width = 853;
}
);
leftKerningGroup = H;
rightKerningGroup = H;
unicode = 004D;
},
{
glyphname = N;
lastChange = "2014-11-10 22:19:09 +0100";
layers = (
{
layerId = "6959900B-8A08-4E04-B0F8-C63132552E7A";
name = "Bold Extended Italic";
paths = (
{
closed = 1;
nodes = (
"284 87 LINE",
"217 111 LINE",
"274 464 LINE",
"467 0 LINE",
"622 0 LINE",
"715 588 LINE",
"792 617 LINE",
"806 705 LINE",
"529 700 LINE",
"516 617 LINE",
"581 588 LINE",
"526 239 LINE",
"335 705 LINE",
"103 700 LINE",
"90 617 LINE",
"159 588 LINE",
"84 111 LINE",
"6 87 LINE",
"-8 0 LINE",
"270 0 LINE"
);
}
);
width = 767;
}
);
leftKerningGroup = H;
rightKerningGroup = H;
unicode = 004E;
},
{
glyphname = Ncommaaccent;
lastChange = "2014-11-10 22:19:09 +0100";
layers = (
{
layerId = "6959900B-8A08-4E04-B0F8-C63132552E7A";
name = "Bold Extended Italic";
paths = (
{
closed = 1;
nodes = (
"284 87 LINE",
"217 111 LINE",
"274 464 LINE",
"467 0 LINE",
"622 0 LINE",
"715 588 LINE",
"792 617 LINE",
"806 705 LINE",
"529 700 LINE",
"516 617 LINE",
"581 588 LINE",
"526 239 LINE",
"335 705 LINE",
"103 700 LINE",
"90 617 LINE",
"159 588 LINE",
"84 111 LINE",
"6 87 LINE",
"-8 0 LINE",
"270 0 LINE"
);
},
{
closed = 1;
nodes = (
"258 -329 LINE",
"306 -286 OFFCURVE",
"396 -201 OFFCURVE",
"396 -115 CURVE SMOOTH",
"396 -75 OFFCURVE",
"376 -50 OFFCURVE",
"336 -50 CURVE SMOOTH",
"296 -50 OFFCURVE",
"257 -80 OFFCURVE",
"257 -130 CURVE SMOOTH",
"257 -158 OFFCURVE",
"269 -170 OFFCURVE",
"269 -189 CURVE SMOOTH",
"269 -223 OFFCURVE",
"238 -248 OFFCURVE",
"208 -276 CURVE"
);
}
);
width = 767;
}
);
leftKerningGroup = H;
rightKerningGroup = H;
unicode = 0145;
},
{
glyphname = Eng;
lastChange = "2014-11-10 22:19:09 +0100";
layers = (
{
layerId = "6959900B-8A08-4E04-B0F8-C63132552E7A";
name = "Bold Extended Italic";
paths = (
{
closed = 1;
nodes = (
"284 87 LINE",
"217 111 LINE",
"274 464 LINE",
"478 0 LINE",
"461 -32 OFFCURVE",
"431 -50 OFFCURVE",
"390 -50 CURVE SMOOTH",
"339 -50 LINE",
"310 -150 LINE",
"310 -150 OFFCURVE",
"348 -157 OFFCURVE",
"379 -157 CURVE SMOOTH",
"547 -157 OFFCURVE",
"609 -70 OFFCURVE",
"637 102 CURVE SMOOTH",
"715 588 LINE",
"792 617 LINE",
"806 705 LINE",
"529 700 LINE",
"516 617 LINE",
"581 588 LINE",
"526 239 LINE",
"335 705 LINE",
"103 700 LINE",
"90 617 LINE",
"159 588 LINE",
"84 111 LINE",
"6 87 LINE",
"-8 0 LINE",
"270 0 LINE"
);
}
);
width = 767;
}
);
leftKerningGroup = H;
rightKerningGroup = J;
unicode = 014A;
},
{
glyphname = Ntilde;
lastChange = "2014-11-10 22:19:09 +0100";
layers = (
{
layerId = "6959900B-8A08-4E04-B0F8-C63132552E7A";
name = "Bold Extended Italic";
paths = (
{
closed = 1;
nodes = (
"284 87 LINE",
"217 111 LINE",
"274 464 LINE",
"467 0 LINE",
"622 0 LINE",
"715 588 LINE",
"792 617 LINE",
"806 705 LINE",
"529 700 LINE",
"516 617 LINE",
"581 588 LINE",
"526 239 LINE",
"335 705 LINE",
"103 700 LINE",
"90 617 LINE",
"159 588 LINE",
"84 111 LINE",
"6 87 LINE",
"-8 0 LINE",
"270 0 LINE"
);
},
{
closed = 1;
nodes = (
"301 780 LINE",
"301 780 OFFCURVE",
"338 821 OFFCURVE",
"379 821 CURVE SMOOTH",
"437 821 OFFCURVE",
"476 777 OFFCURVE",
"544 777 CURVE SMOOTH",
"623 777 OFFCURVE",
"682 886 OFFCURVE",
"682 886 CURVE",
"637 925 LINE",
"637 925 OFFCURVE",
"602 883 OFFCURVE",
"564 883 CURVE SMOOTH",
"506 883 OFFCURVE",
"472 928 OFFCURVE",
"404 928 CURVE SMOOTH",
"324 928 OFFCURVE",
"263 821 OFFCURVE",
"263 821 CURVE"
);
}
);
width = 767;
}
);
leftKerningGroup = N;
rightKerningGroup = N;
unicode = 00D1;
},
{
glyphname = O;
lastChange = "2014-11-10 22:19:09 +0100";
layers = (
{
layerId = "6959900B-8A08-4E04-B0F8-C63132552E7A";
name = "Bold Extended Italic";
paths = (
{
closed = 1;
nodes = (
"546 -13 OFFCURVE",
"704 198 OFFCURVE",
"704 455 CURVE SMOOTH",
"704 618 OFFCURVE",
"608 717 OFFCURVE",
"444 717 CURVE SMOOTH",
"202 717 OFFCURVE",
"54 501 OFFCURVE",
"54 246 CURVE SMOOTH",
"54 79 OFFCURVE",
"146 -13 OFFCURVE",
"306 -13 CURVE SMOOTH"
);
},
{
closed = 1;
nodes = (
"544 305 OFFCURVE",
"471 112 OFFCURVE",
"331 112 CURVE SMOOTH",
"253 112 OFFCURVE",
"214 165 OFFCURVE",
"214 258 CURVE SMOOTH",
"214 395 OFFCURVE",
"281 592 OFFCURVE",
"424 592 CURVE SMOOTH",
"503 592 OFFCURVE",
"544 544 OFFCURVE",
"544 449 CURVE SMOOTH"
);
}
);
width = 732;
}
);
leftKerningGroup = O;
rightKerningGroup = O;
unicode = 004F;
},
{
glyphname = Ocircumflex;
lastChange = "2014-11-10 22:19:09 +0100";
layers = (
{
layerId = "6959900B-8A08-4E04-B0F8-C63132552E7A";
name = "Bold Extended Italic";
paths = (
{
closed = 1;
nodes = (
"546 -13 OFFCURVE",
"704 198 OFFCURVE",
"704 455 CURVE SMOOTH",
"704 618 OFFCURVE",
"608 717 OFFCURVE",
"444 717 CURVE SMOOTH",
"202 717 OFFCURVE",
"54 501 OFFCURVE",
"54 246 CURVE SMOOTH",
"54 79 OFFCURVE",
"146 -13 OFFCURVE",
"306 -13 CURVE SMOOTH"
);
},
{
closed = 1;
nodes = (
"544 305 OFFCURVE",
"471 112 OFFCURVE",
"331 112 CURVE SMOOTH",
"253 112 OFFCURVE",
"214 165 OFFCURVE",
"214 258 CURVE SMOOTH",
"214 395 OFFCURVE",
"281 592 OFFCURVE",
"424 592 CURVE SMOOTH",
"503 592 OFFCURVE",
"544 544 OFFCURVE",
"544 449 CURVE SMOOTH"
);
},
{
closed = 1;
nodes = (
"473 842 LINE",
"600 742 LINE",
"656 807 LINE",
"526 951 LINE",
"439 944 LINE",
"267 807 LINE",
"309 742 LINE"
);
}
);
width = 732;
}
);
leftKerningGroup = O;
rightKerningGroup = O;
unicode = 00D4;
},
{
glyphname = Odieresis;
lastChange = "2014-11-10 22:19:09 +0100";
layers = (
{
layerId = "6959900B-8A08-4E04-B0F8-C63132552E7A";
name = "Bold Extended Italic";
paths = (
{
closed = 1;
nodes = (
"546 -13 OFFCURVE",
"704 198 OFFCURVE",
"704 455 CURVE SMOOTH",
"704 618 OFFCURVE",
"608 717 OFFCURVE",
"444 717 CURVE SMOOTH",
"202 717 OFFCURVE",
"54 501 OFFCURVE",
"54 246 CURVE SMOOTH",
"54 79 OFFCURVE",
"146 -13 OFFCURVE",
"306 -13 CURVE SMOOTH"
);
},
{
closed = 1;
nodes = (
"544 305 OFFCURVE",
"471 112 OFFCURVE",
"331 112 CURVE SMOOTH",
"253 112 OFFCURVE",
"214 165 OFFCURVE",
"214 258 CURVE SMOOTH",
"214 395 OFFCURVE",
"281 592 OFFCURVE",
"424 592 CURVE SMOOTH",
"503 592 OFFCURVE",
"544 544 OFFCURVE",
"544 449 CURVE SMOOTH"
);
},
{
closed = 1;
nodes = (
"519 793 OFFCURVE",
"542 770 OFFCURVE",
"579 770 CURVE SMOOTH",
"632 770 OFFCURVE",
"663 814 OFFCURVE",
"663 865 CURVE SMOOTH",
"663 903 OFFCURVE",
"639 926 OFFCURVE",
"601 926 CURVE SMOOTH",
"548 926 OFFCURVE",
"519 881 OFFCURVE",
"519 830 CURVE SMOOTH"
);
},
{
closed = 1;
nodes = (
"306 793 OFFCURVE",
"329 770 OFFCURVE",
"366 770 CURVE SMOOTH",
"419 770 OFFCURVE",
"451 814 OFFCURVE",
"451 865 CURVE SMOOTH",
"451 903 OFFCURVE",
"427 926 OFFCURVE",
"389 926 CURVE SMOOTH",
"335 926 OFFCURVE",
"306 881 OFFCURVE",
"306 830 CURVE SMOOTH"
);
}
);
width = 732;
}
);
leftKerningGroup = O;
rightKerningGroup = O;
unicode = 00D6;
},
{
glyphname = Omacron;
lastChange = "2014-11-10 22:19:09 +0100";
layers = (
{
layerId = "6959900B-8A08-4E04-B0F8-C63132552E7A";
name = "Bold Extended Italic";
paths = (
{
closed = 1;
nodes = (
"546 -13 OFFCURVE",
"704 198 OFFCURVE",
"704 455 CURVE SMOOTH",
"704 618 OFFCURVE",
"608 717 OFFCURVE",
"444 717 CURVE SMOOTH",
"202 717 OFFCURVE",
"54 501 OFFCURVE",
"54 246 CURVE SMOOTH",
"54 79 OFFCURVE",
"146 -13 OFFCURVE",
"306 -13 CURVE SMOOTH"
);
},
{
closed = 1;
nodes = (
"544 305 OFFCURVE",
"471 112 OFFCURVE",
"331 112 CURVE SMOOTH",
"253 112 OFFCURVE",
"214 165 OFFCURVE",
"214 258 CURVE SMOOTH",
"214 395 OFFCURVE",
"281 592 OFFCURVE",
"424 592 CURVE SMOOTH",
"503 592 OFFCURVE",
"544 544 OFFCURVE",
"544 449 CURVE SMOOTH"
);
},
{
closed = 1;
nodes = (
"316 796 LINE",
"607 796 LINE",
"625 901 LINE",
"334 901 LINE"
);
}
);
width = 732;
}
);
leftKerningGroup = O;
rightKerningGroup = O;
unicode = 014C;
},
{
glyphname = Oslash;
lastChange = "2014-11-10 22:19:09 +0100";
layers = (
{
layerId = "6959900B-8A08-4E04-B0F8-C63132552E7A";
name = "Bold Extended Italic";
paths = (
{
closed = 1;
nodes = (
"205 717 OFFCURVE",
"59 501 OFFCURVE",
"59 246 CURVE SMOOTH",
"59 172 OFFCURVE",
"78 112 OFFCURVE",
"112 69 CURVE",
"15 -59 LINE",
"93 -110 LINE",
"185 12 LINE",
"220 -4 OFFCURVE",
"261 -12 OFFCURVE",
"309 -12 CURVE SMOOTH",
"549 -12 OFFCURVE",
"705 198 OFFCURVE",
"705 460 CURVE SMOOTH",
"705 530 OFFCURVE",
"685 589 OFFCURVE",
"649 632 CURVE",
"732 742 LINE",
"654 793 LINE",
"577 690 LINE",
"540 708 OFFCURVE",
"497 717 OFFCURVE",
"447 717 CURVE SMOOTH"
);
},
{
closed = 1;
nodes = (
"452 592 OFFCURVE",
"475 588 OFFCURVE",
"493 578 CURVE",
"227 222 LINE",
"222 238 OFFCURVE",
"219 256 OFFCURVE",
"219 277 CURVE SMOOTH",
"219 430 OFFCURVE",
"296 592 OFFCURVE",
"427 592 CURVE SMOOTH"
);
},
{
closed = 1;
nodes = (
"309 112 OFFCURVE",
"288 117 OFFCURVE",
"271 127 CURVE",
"537 482 LINE",
"541 465 OFFCURVE",
"543 446 OFFCURVE",
"543 424 CURVE SMOOTH",
"543 260 OFFCURVE",
"458 112 OFFCURVE",
"334 112 CURVE SMOOTH"
);
}
);
width = 738;
}
);
leftKerningGroup = O;
rightKerningGroup = O;
unicode = 00D8;
},
{
glyphname = Otilde;
lastChange = "2014-11-10 22:19:09 +0100";
layers = (
{
layerId = "6959900B-8A08-4E04-B0F8-C63132552E7A";
name = "Bold Extended Italic";
paths = (
{
closed = 1;
nodes = (
"546 -13 OFFCURVE",
"704 198 OFFCURVE",
"704 455 CURVE SMOOTH",
"704 618 OFFCURVE",
"608 717 OFFCURVE",
"444 717 CURVE SMOOTH",
"202 717 OFFCURVE",
"54 501 OFFCURVE",
"54 246 CURVE SMOOTH",
"54 79 OFFCURVE",
"146 -13 OFFCURVE",
"306 -13 CURVE SMOOTH"
);
},
{
closed = 1;
nodes = (
"544 305 OFFCURVE",
"471 112 OFFCURVE",
"331 112 CURVE SMOOTH",
"253 112 OFFCURVE",
"214 165 OFFCURVE",
"214 258 CURVE SMOOTH",
"214 395 OFFCURVE",
"281 592 OFFCURVE",
"424 592 CURVE SMOOTH",
"503 592 OFFCURVE",
"544 544 OFFCURVE",
"544 449 CURVE SMOOTH"
);
},
{
closed = 1;
nodes = (
"299 780 LINE",
"299 780 OFFCURVE",
"336 821 OFFCURVE",
"377 821 CURVE SMOOTH",
"435 821 OFFCURVE",
"474 777 OFFCURVE",
"542 777 CURVE SMOOTH",
"621 777 OFFCURVE",
"680 886 OFFCURVE",
"680 886 CURVE",
"635 925 LINE",
"635 925 OFFCURVE",
"600 883 OFFCURVE",
"562 883 CURVE SMOOTH",
"504 883 OFFCURVE",
"470 928 OFFCURVE",
"402 928 CURVE SMOOTH",
"322 928 OFFCURVE",
"261 821 OFFCURVE",
"261 821 CURVE"
);
}
);
width = 732;
}
);
leftKerningGroup = O;
rightKerningGroup = O;
unicode = 00D5;
},
{
glyphname = OE;
lastChange = "2014-11-10 22:19:09 +0100";
layers = (
{
layerId = "6959900B-8A08-4E04-B0F8-C63132552E7A";
name = "Bold Extended Italic";
paths = (
{
closed = 1;
nodes = (
"643 587 LINE",
"811 587 LINE",
"824 512 LINE",
"904 512 LINE",
"935 705 LINE",
"605 705 LINE SMOOTH",
"557 705 OFFCURVE",
"498 716 OFFCURVE",
"437 716 CURVE SMOOTH",
"221 716 OFFCURVE",
"55 532 OFFCURVE",
"55 249 CURVE SMOOTH",
"55 85 OFFCURVE",
"155 -12 OFFCURVE",
"310 -12 CURVE SMOOTH",
"389 -12 OFFCURVE",
"466 0 OFFCURVE",
"525 0 CURVE SMOOTH",
"836 0 LINE",
"869 201 LINE",
"779 201 LINE",
"743 117 LINE",
"568 117 LINE",
"598 310 LINE",
"796 310 LINE",
"813 420 LINE",
"616 420 LINE"
);
},
{
closed = 1;
nodes = (
"420 117 LINE",
"420 117 OFFCURVE",
"377 112 OFFCURVE",
"342 112 CURVE SMOOTH",
"263 112 OFFCURVE",
"213 156 OFFCURVE",
"213 252 CURVE SMOOTH",
"213 477 OFFCURVE",
"313 592 OFFCURVE",
"430 592 CURVE SMOOTH",
"465 592 OFFCURVE",
"494 587 OFFCURVE",
"494 587 CURVE"
);
}
);
width = 930;
}
);
leftKerningGroup = O;
rightKerningGroup = E;
unicode = 0152;
},
{
glyphname = P;
lastChange = "2014-11-10 22:19:09 +0100";
layers = (
{
layerId = "6959900B-8A08-4E04-B0F8-C63132552E7A";
name = "Bold Extended Italic";
paths = (
{
closed = 1;
nodes = (
"311 87 LINE",
"239 111 LINE",
"260 245 LINE",
"313 245 LINE SMOOTH",
"484 245 OFFCURVE",
"632 330 OFFCURVE",
"632 534 CURVE SMOOTH",
"632 655 OFFCURVE",
"537 705 OFFCURVE",
"427 705 CURVE SMOOTH",
"333 705 LINE",
"108 700 LINE",
"95 617 LINE",
"164 588 LINE",
"89 111 LINE",
"11 87 LINE",
"-3 0 LINE",
"297 0 LINE"
);
},
{
closed = 1;
nodes = (
"314 587 LINE",
"391 587 LINE SMOOTH",
"436 587 OFFCURVE",
"478 565 OFFCURVE",
"478 503 CURVE SMOOTH",
"478 425 OFFCURVE",
"436 362 OFFCURVE",
"331 362 CURVE SMOOTH",
"278 362 LINE"
);
}
);
width = 605;
}
);
leftKerningGroup = H;
rightKerningGroup = P;
unicode = 0050;
},
{
glyphname = Thorn;
lastChange = "2014-11-10 22:19:09 +0100";
layers = (
{
layerId = "6959900B-8A08-4E04-B0F8-C63132552E7A";
name = "Bold Extended Italic";
paths = (
{
closed = 1;
nodes = (
"237 112 LINE",
"244 160 LINE",
"313 160 LINE SMOOTH",
"480 160 OFFCURVE",
"604 244 OFFCURVE",
"604 402 CURVE SMOOTH",
"604 505 OFFCURVE",
"528 555 OFFCURVE",
"405 555 CURVE SMOOTH",
"307 555 LINE",
"313 587 LINE",
"391 617 LINE",
"405 705 LINE",
"109 700 LINE",
"96 617 LINE",
"164 588 LINE",
"89 112 LINE",
"11 87 LINE",
"-2 0 LINE",
"292 0 LINE",
"306 87 LINE"
);
},
{
closed = 1;
nodes = (
"365 445 LINE SMOOTH",
"427 445 OFFCURVE",
"455 423 OFFCURVE",
"455 378 CURVE SMOOTH",
"455 308 OFFCURVE",
"405 267 OFFCURVE",
"324 267 CURVE SMOOTH",
"262 267 LINE",
"290 445 LINE"
);
}
);
width = 612;
}
);
leftKerningGroup = P;
unicode = 00DE;
},
{
glyphname = Q;
lastChange = "2014-11-10 22:19:09 +0100";
layers = (
{
layerId = "6959900B-8A08-4E04-B0F8-C63132552E7A";
name = "Bold Extended Italic";
paths = (
{
closed = 1;
nodes = (
"202 717 OFFCURVE",
"54 501 OFFCURVE",
"54 246 CURVE SMOOTH",
"54 93 OFFCURVE",
"137 -1 OFFCURVE",
"274 -10 CURVE",
"457 -149 LINE SMOOTH",
"492 -175 OFFCURVE",
"537 -198 OFFCURVE",
"575 -198 CURVE SMOOTH",
"637 -198 OFFCURVE",
"743 -130 OFFCURVE",
"743 -130 CURVE",
"705 -50 LINE",
"705 -50 OFFCURVE",
"636 -85 OFFCURVE",
"601 -85 CURVE SMOOTH",
"573 -85 OFFCURVE",
"543 -67 OFFCURVE",
"515 -48 CURVE SMOOTH",
"432 8 LINE",
"596 67 OFFCURVE",
"705 249 OFFCURVE",
"705 460 CURVE SMOOTH",
"705 619 OFFCURVE",
"608 717 OFFCURVE",
"445 717 CURVE SMOOTH"
);
},
{
closed = 1;
nodes = (
"503 592 OFFCURVE",
"545 548 OFFCURVE",
"545 454 CURVE SMOOTH",
"545 305 OFFCURVE",
"472 112 OFFCURVE",
"332 112 CURVE SMOOTH",
"253 112 OFFCURVE",
"214 165 OFFCURVE",
"214 258 CURVE SMOOTH",
"214 395 OFFCURVE",
"281 592 OFFCURVE",
"424 592 CURVE SMOOTH"
);
}
);
width = 747;
}
);
leftKerningGroup = O;
rightKerningGroup = O;
unicode = 0051;
},
{
glyphname = R;
lastChange = "2014-11-10 22:19:09 +0100";
layers = (
{
layerId = "6959900B-8A08-4E04-B0F8-C63132552E7A";
name = "Bold Extended Italic";
paths = (
{
closed = 1;
nodes = (
"243 112 LINE",
"269 277 LINE",
"334 277 OFFCURVE",
"363 263 OFFCURVE",
"383 190 CURVE SMOOTH",
"437 0 LINE",
"612 0 LINE",
"626 87 LINE",
"558 112 LINE",
"519 230 LINE SMOOTH",
"507 265 OFFCURVE",
"492 297 OFFCURVE",
"478 311 CURVE",
"576 345 OFFCURVE",
"637 424 OFFCURVE",
"637 539 CURVE SMOOTH",
"637 651 OFFCURVE",
"544 705 OFFCURVE",
"432 705 CURVE SMOOTH",
"336 705 LINE",
"114 700 LINE",
"101 617 LINE",
"169 587 LINE",
"94 112 LINE",
"16 87 LINE",
"2 0 LINE",
"298 0 LINE",
"312 87 LINE"
);
},
{
closed = 1;
nodes = (
"318 587 LINE",
"398 587 LINE SMOOTH",
"450 587 OFFCURVE",
"483 561 OFFCURVE",
"483 510 CURVE SMOOTH",
"483 426 OFFCURVE",
"427 382 OFFCURVE",
"342 382 CURVE SMOOTH",
"285 382 LINE"
);
}
);
width = 655;
}
);
leftKerningGroup = R;
rightKerningGroup = R;
unicode = 0052;
},
{
glyphname = Rcommaaccent;
lastChange = "2014-11-10 22:19:09 +0100";
layers = (
{
layerId = "6959900B-8A08-4E04-B0F8-C63132552E7A";
name = "Bold Extended Italic";
paths = (
{
closed = 1;
nodes = (
"243 112 LINE",
"269 277 LINE",
"334 277 OFFCURVE",
"363 263 OFFCURVE",
"383 190 CURVE SMOOTH",
"437 0 LINE",
"612 0 LINE",
"626 87 LINE",
"558 112 LINE",
"519 230 LINE SMOOTH",
"507 265 OFFCURVE",
"492 297 OFFCURVE",
"478 311 CURVE",
"576 345 OFFCURVE",
"637 424 OFFCURVE",
"637 539 CURVE SMOOTH",
"637 651 OFFCURVE",
"544 705 OFFCURVE",
"432 705 CURVE SMOOTH",
"336 705 LINE",
"114 700 LINE",
"101 617 LINE",
"169 587 LINE",
"94 112 LINE",
"16 87 LINE",
"2 0 LINE",
"298 0 LINE",
"312 87 LINE"
);
},
{
closed = 1;
nodes = (
"318 587 LINE",
"398 587 LINE SMOOTH",
"450 587 OFFCURVE",
"483 561 OFFCURVE",
"483 510 CURVE SMOOTH",
"483 426 OFFCURVE",
"427 382 OFFCURVE",
"342 382 CURVE SMOOTH",
"285 382 LINE"
);
},
{
closed = 1;
nodes = (
"232 -329 LINE",
"280 -286 OFFCURVE",
"370 -201 OFFCURVE",
"370 -115 CURVE SMOOTH",
"370 -75 OFFCURVE",
"350 -50 OFFCURVE",
"310 -50 CURVE SMOOTH",
"270 -50 OFFCURVE",
"231 -80 OFFCURVE",
"231 -130 CURVE SMOOTH",
"231 -158 OFFCURVE",
"243 -170 OFFCURVE",
"243 -189 CURVE SMOOTH",
"243 -223 OFFCURVE",
"212 -248 OFFCURVE",
"182 -276 CURVE"
);
}
);
width = 655;
}
);
leftKerningGroup = R;
rightKerningGroup = R;
unicode = 0156;
},
{
glyphname = S;
lastChange = "2014-11-10 22:19:09 +0100";
layers = (
{
layerId = "6959900B-8A08-4E04-B0F8-C63132552E7A";
name = "Bold Extended Italic";
paths = (
{
closed = 1;
nodes = (
"147 217 LINE",
"55 217 LINE",
"24 25 LINE",
"24 25 OFFCURVE",
"128 -13 OFFCURVE",
"235 -13 CURVE SMOOTH",
"389 -13 OFFCURVE",
"525 79 OFFCURVE",
"525 247 CURVE SMOOTH",
"525 431 OFFCURVE",
"255 414 OFFCURVE",
"255 517 CURVE SMOOTH",
"255 566 OFFCURVE",
"298 595 OFFCURVE",
"360 595 CURVE SMOOTH",
"404 595 OFFCURVE",
"447 580 OFFCURVE",
"447 580 CURVE",
"459 495 LINE",
"541 495 LINE",
"575 677 LINE",
"575 677 OFFCURVE",
"479 717 OFFCURVE",
"371 717 CURVE SMOOTH",
"222 717 OFFCURVE",
"96 637 OFFCURVE",
"96 478 CURVE SMOOTH",
"96 285 OFFCURVE",
"367 305 OFFCURVE",
"367 201 CURVE SMOOTH",
"367 142 OFFCURVE",
"303 112 OFFCURVE",
"246 112 CURVE SMOOTH",
"187 112 OFFCURVE",
"149 131 OFFCURVE",
"149 131 CURVE"
);
}
);
width = 592;
}
);
leftKerningGroup = S;
rightKerningGroup = S;
unicode = 0053;
},
{
glyphname = Scircumflex;
lastChange = "2014-11-10 22:19:09 +0100";
layers = (
{
layerId = "6959900B-8A08-4E04-B0F8-C63132552E7A";
name = "Bold Extended Italic";
paths = (
{
closed = 1;
nodes = (
"147 217 LINE",
"55 217 LINE",
"24 25 LINE",
"24 25 OFFCURVE",
"128 -13 OFFCURVE",
"235 -13 CURVE SMOOTH",
"389 -13 OFFCURVE",
"525 79 OFFCURVE",
"525 247 CURVE SMOOTH",
"525 431 OFFCURVE",
"255 414 OFFCURVE",
"255 517 CURVE SMOOTH",
"255 566 OFFCURVE",
"298 595 OFFCURVE",
"360 595 CURVE SMOOTH",
"404 595 OFFCURVE",
"447 580 OFFCURVE",
"447 580 CURVE",
"459 495 LINE",
"541 495 LINE",
"575 677 LINE",
"575 677 OFFCURVE",
"479 717 OFFCURVE",
"371 717 CURVE SMOOTH",
"222 717 OFFCURVE",
"96 637 OFFCURVE",
"96 478 CURVE SMOOTH",
"96 285 OFFCURVE",
"367 305 OFFCURVE",
"367 201 CURVE SMOOTH",
"367 142 OFFCURVE",
"303 112 OFFCURVE",
"246 112 CURVE SMOOTH",
"187 112 OFFCURVE",
"149 131 OFFCURVE",
"149 131 CURVE"
);
},
{
closed = 1;
nodes = (
"416 842 LINE",
"543 742 LINE",
"599 807 LINE",
"469 951 LINE",
"382 944 LINE",
"210 807 LINE",
"252 742 LINE"
);
}
);
width = 592;
}
);
leftKerningGroup = S;
rightKerningGroup = S;
unicode = 015C;
},
{
glyphname = T;
lastChange = "2014-11-10 22:19:09 +0100";
layers = (
{
layerId = "6959900B-8A08-4E04-B0F8-C63132552E7A";
name = "Bold Extended Italic";
paths = (
{
closed = 1;
nodes = (
"90 0 LINE",
"401 0 LINE",
"415 87 LINE",
"338 111 LINE",
"413 587 LINE",
"507 587 LINE",
"517 490 LINE",
"607 490 LINE",
"641 705 LINE",
"76 705 LINE",
"40 490 LINE",
"130 490 LINE",
"170 587 LINE",
"263 587 LINE",
"188 111 LINE",
"104 87 LINE"
);
}
);
width = 577;
}
);
leftKerningGroup = T;
rightKerningGroup = T;
unicode = 0054;
},
{
glyphname = Tbar;
lastChange = "2014-11-10 22:19:09 +0100";
layers = (
{
layerId = "6959900B-8A08-4E04-B0F8-C63132552E7A";
name = "Bold Extended Italic";
paths = (
{
closed = 1;
nodes = (
"107 298 LINE",
"217 298 LINE",
"188 111 LINE",
"104 87 LINE",
"90 0 LINE",
"399 0 LINE",
"413 87 LINE",
"336 111 LINE",
"365 298 LINE",
"479 298 LINE",
"497 408 LINE",
"383 408 LINE",
"411 587 LINE",
"505 587 LINE",
"515 492 LINE",
"605 492 LINE",
"639 705 LINE",
"76 705 LINE",
"40 492 LINE",
"130 492 LINE",
"170 587 LINE",
"263 587 LINE",
"235 408 LINE",
"125 408 LINE"
);
}
);
width = 564;
}
);
leftKerningGroup = T;
rightKerningGroup = T;
unicode = 0166;
},
{
glyphname = U;
lastChange = "2014-11-10 22:19:09 +0100";
layers = (
{
layerId = "6959900B-8A08-4E04-B0F8-C63132552E7A";
name = "Bold Extended Italic";
paths = (
{
closed = 1;
nodes = (
"305 587 LINE",
"380 617 LINE",
"394 705 LINE",
"98 700 LINE",
"85 617 LINE",
"156 587 LINE",
"105 270 LINE SMOOTH",
"100 241 OFFCURVE",
"98 213 OFFCURVE",
"98 188 CURVE SMOOTH",
"98 59 OFFCURVE",
"163 -12 OFFCURVE",
"336 -12 CURVE SMOOTH",
"541 -12 OFFCURVE",
"628 102 OFFCURVE",
"658 292 CURVE SMOOTH",
"704 587 LINE",
"781 617 LINE",
"795 705 LINE",
"498 700 LINE",
"485 617 LINE",
"555 587 LINE",
"507 283 LINE SMOOTH",
"488 161 OFFCURVE",
"449 110 OFFCURVE",
"357 110 CURVE SMOOTH",
"273 110 OFFCURVE",
"249 151 OFFCURVE",
"249 214 CURVE SMOOTH",
"249 231 OFFCURVE",
"251 250 OFFCURVE",
"254 270 CURVE SMOOTH"
);
}
);
width = 756;
}
);
leftKerningGroup = U;
rightKerningGroup = U;
unicode = 0055;
},
{
glyphname = Ucircumflex;
lastChange = "2014-11-10 22:19:09 +0100";
layers = (
{
layerId = "6959900B-8A08-4E04-B0F8-C63132552E7A";
name = "Bold Extended Italic";
paths = (
{
closed = 1;
nodes = (
"295 587 LINE",
"370 617 LINE",
"384 705 LINE",
"88 700 LINE",
"75 617 LINE",
"146 587 LINE",
"95 270 LINE SMOOTH",
"90 241 OFFCURVE",
"88 213 OFFCURVE",
"88 188 CURVE SMOOTH",
"88 59 OFFCURVE",
"153 -12 OFFCURVE",
"326 -12 CURVE SMOOTH",
"531 -12 OFFCURVE",
"618 102 OFFCURVE",
"648 292 CURVE SMOOTH",
"694 587 LINE",
"771 617 LINE",
"785 705 LINE",
"488 700 LINE",
"475 617 LINE",
"545 587 LINE",
"497 283 LINE SMOOTH",
"478 161 OFFCURVE",
"439 110 OFFCURVE",
"347 110 CURVE SMOOTH",
"263 110 OFFCURVE",
"239 151 OFFCURVE",
"239 214 CURVE SMOOTH",
"239 231 OFFCURVE",
"241 250 OFFCURVE",
"244 270 CURVE SMOOTH"
);
},
{
closed = 1;
nodes = (
"458 842 LINE",
"585 742 LINE",
"641 807 LINE",
"511 951 LINE",
"424 944 LINE",
"252 807 LINE",
"294 742 LINE"
);
}
);
width = 735;
}
);
leftKerningGroup = U;
rightKerningGroup = U;
unicode = 00DB;
},
{
glyphname = Udieresis;
lastChange = "2014-11-10 22:19:09 +0100";
layers = (
{
components = (
{
name = U;
transform = "{1, 0, 0, 1, -10, 0}";
},
{
name = dieresis;
transform = "{1, 0, 0, 1, 184, 136}";
}
);
layerId = "6959900B-8A08-4E04-B0F8-C63132552E7A";
name = "Bold Extended Italic";
paths = (
{
closed = 0;
nodes = (
"551 669 LINE"
);
}
);
width = 736;
}
);
leftKerningGroup = U;
rightKerningGroup = U;
unicode = 00DC;
},
{
glyphname = Umacron;
lastChange = "2014-11-10 22:19:09 +0100";
layers = (
{
layerId = "6959900B-8A08-4E04-B0F8-C63132552E7A";
name = "Bold Extended Italic";
paths = (
{
closed = 1;
nodes = (
"295 587 LINE",
"370 617 LINE",
"384 705 LINE",
"88 700 LINE",
"75 617 LINE",
"146 587 LINE",
"95 270 LINE SMOOTH",
"90 241 OFFCURVE",
"88 213 OFFCURVE",
"88 188 CURVE SMOOTH",
"88 59 OFFCURVE",
"153 -12 OFFCURVE",
"326 -12 CURVE SMOOTH",
"531 -12 OFFCURVE",
"618 102 OFFCURVE",
"648 292 CURVE SMOOTH",
"694 587 LINE",
"771 617 LINE",
"785 705 LINE",
"488 700 LINE",
"475 617 LINE",
"545 587 LINE",
"497 283 LINE SMOOTH",
"478 161 OFFCURVE",
"439 110 OFFCURVE",
"347 110 CURVE SMOOTH",
"263 110 OFFCURVE",
"239 151 OFFCURVE",
"239 214 CURVE SMOOTH",
"239 231 OFFCURVE",
"241 250 OFFCURVE",
"244 270 CURVE SMOOTH"
);
},
{
closed = 1;
nodes = (
"289 796 LINE",
"580 796 LINE",
"598 901 LINE",
"307 901 LINE"
);
}
);
width = 735;
}
);
leftKerningGroup = U;
rightKerningGroup = U;
unicode = 016A;
},
{
glyphname = Uogonek;
lastChange = "2014-11-10 22:19:09 +0100";
layers = (
{
layerId = "6959900B-8A08-4E04-B0F8-C63132552E7A";
name = "Bold Extended Italic";
paths = (
{
closed = 1;
nodes = (
"295 587 LINE",
"370 617 LINE",
"384 705 LINE",
"88 700 LINE",
"75 617 LINE",
"146 587 LINE",
"95 270 LINE SMOOTH",
"90 241 OFFCURVE",
"88 213 OFFCURVE",
"88 188 CURVE SMOOTH",
"88 65 OFFCURVE",
"147 -5 OFFCURVE",
"303 -11 CURVE",
"263 -36 OFFCURVE",
"202 -85 OFFCURVE",
"202 -152 CURVE SMOOTH",
"202 -206 OFFCURVE",
"243 -235 OFFCURVE",
"295 -235 CURVE SMOOTH",
"344 -235 OFFCURVE",
"397 -211 OFFCURVE",
"397 -211 CURVE",
"392 -140 LINE",
"392 -140 OFFCURVE",
"369 -147 OFFCURVE",
"352 -147 CURVE SMOOTH",
"331 -147 OFFCURVE",
"318 -135 OFFCURVE",
"318 -117 CURVE SMOOTH",
"318 -67 OFFCURVE",
"414 -13 OFFCURVE",
"456 8 CURVE SMOOTH",
"515 37 OFFCURVE",
"614 72 OFFCURVE",
"648 292 CURVE SMOOTH",
"694 587 LINE",
"771 617 LINE",
"785 705 LINE",
"488 700 LINE",
"475 617 LINE",
"545 587 LINE",
"497 283 LINE SMOOTH",
"478 161 OFFCURVE",
"439 110 OFFCURVE",
"347 110 CURVE SMOOTH",
"263 110 OFFCURVE",
"239 151 OFFCURVE",
"239 214 CURVE SMOOTH",
"239 231 OFFCURVE",
"241 250 OFFCURVE",
"244 270 CURVE SMOOTH"
);
}
);
width = 735;
}
);
leftKerningGroup = U;
rightKerningGroup = U;
unicode = 0172;
},
{
glyphname = Uring;
lastChange = "2014-11-10 22:19:09 +0100";
layers = (
{
components = (
{
name = U;
transform = "{1, 0, 0, 1, -10, 0}";
},
{
name = ring;
transform = "{1, 0, 0, 1, 269, 138}";
}
);
guideLines = (
{
position = "{542, 735}";
}
);
layerId = "6959900B-8A08-4E04-B0F8-C63132552E7A";
name = "Bold Extended Italic";
paths = (
{
closed = 0;
nodes = (
"265 619 LINE"
);
}
);
width = 736;
}
);
leftKerningGroup = U;
rightKerningGroup = U;
unicode = 016E;
},
{
glyphname = Utilde;
lastChange = "2014-11-10 22:19:09 +0100";
layers = (
{
layerId = "6959900B-8A08-4E04-B0F8-C63132552E7A";
name = "Bold Extended Italic";
paths = (
{
closed = 1;
nodes = (
"295 587 LINE",
"370 617 LINE",
"384 705 LINE",
"88 700 LINE",
"75 617 LINE",
"146 587 LINE",
"95 270 LINE SMOOTH",
"90 241 OFFCURVE",
"88 213 OFFCURVE",
"88 188 CURVE SMOOTH",
"88 59 OFFCURVE",
"153 -12 OFFCURVE",
"326 -12 CURVE SMOOTH",
"531 -12 OFFCURVE",
"618 102 OFFCURVE",
"648 292 CURVE SMOOTH",
"694 587 LINE",
"771 617 LINE",
"785 705 LINE",
"488 700 LINE",
"475 617 LINE",
"545 587 LINE",
"497 283 LINE SMOOTH",
"478 161 OFFCURVE",
"439 110 OFFCURVE",
"347 110 CURVE SMOOTH",
"263 110 OFFCURVE",
"239 151 OFFCURVE",
"239 214 CURVE SMOOTH",
"239 231 OFFCURVE",
"241 250 OFFCURVE",
"244 270 CURVE SMOOTH"
);
},
{
closed = 1;
nodes = (
"298 780 LINE",
"298 780 OFFCURVE",
"335 821 OFFCURVE",
"376 821 CURVE SMOOTH",
"434 821 OFFCURVE",
"473 777 OFFCURVE",
"541 777 CURVE SMOOTH",
"620 777 OFFCURVE",
"679 886 OFFCURVE",
"679 886 CURVE",
"634 925 LINE",
"634 925 OFFCURVE",
"599 883 OFFCURVE",
"561 883 CURVE SMOOTH",
"503 883 OFFCURVE",
"469 928 OFFCURVE",
"401 928 CURVE SMOOTH",
"321 928 OFFCURVE",
"260 821 OFFCURVE",
"260 821 CURVE"
);
}
);
width = 735;
}
);
leftKerningGroup = U;
rightKerningGroup = U;
unicode = 0168;
},
{
glyphname = V;
lastChange = "2014-11-10 22:19:09 +0100";
layers = (
{
layerId = "6959900B-8A08-4E04-B0F8-C63132552E7A";
name = "Bold Extended Italic";
paths = (
{
closed = 1;
nodes = (
"219 0 LINE",
"372 0 LINE",
"662 587 LINE",
"732 617 LINE",
"746 705 LINE",
"461 700 LINE",
"446 617 LINE",
"512 588 LINE",
"337 201 LINE",
"258 705 LINE",
"54 700 LINE",
"40 617 LINE",
"110 590 LINE"
);
}
);
width = 667;
}
);
leftKerningGroup = V;
rightKerningGroup = V;
unicode = 0056;
},
{
glyphname = W;
lastChange = "2014-11-10 22:19:09 +0100";
layers = (
{
layerId = "6959900B-8A08-4E04-B0F8-C63132552E7A";
name = "Bold Extended Italic";
paths = (
{
closed = 1;
nodes = (
"208 0 LINE",
"325 0 LINE",
"522 440 LINE",
"587 0 LINE",
"704 0 LINE",
"971 588 LINE",
"1043 617 LINE",
"1058 705 LINE",
"780 700 LINE",
"765 617 LINE",
"834 588 LINE",
"686 231 LINE",
"623 705 LINE",
"507 697 LINE",
"313 234 LINE",
"251 705 LINE",
"58 700 LINE",
"45 617 LINE",
"115 590 LINE"
);
}
);
width = 978;
}
);
leftKerningGroup = V;
rightKerningGroup = V;
unicode = 0057;
},
{
glyphname = Wcircumflex;
lastChange = "2014-11-10 22:19:09 +0100";
layers = (
{
layerId = "6959900B-8A08-4E04-B0F8-C63132552E7A";
name = "Bold Extended Italic";
paths = (
{
closed = 1;
nodes = (
"198 0 LINE",
"315 0 LINE",
"512 440 LINE",
"577 0 LINE",
"694 0 LINE",
"961 588 LINE",
"1033 617 LINE",
"1048 705 LINE",
"770 700 LINE",
"755 617 LINE",
"824 588 LINE",
"676 231 LINE",
"613 705 LINE",
"497 697 LINE",
"303 234 LINE",
"241 705 LINE",
"48 700 LINE",
"35 617 LINE",
"105 590 LINE"
);
},
{
closed = 1;
nodes = (
"571 842 LINE",
"698 742 LINE",
"754 807 LINE",
"624 951 LINE",
"537 944 LINE",
"365 807 LINE",
"407 742 LINE"
);
}
);
width = 973;
}
);
leftKerningGroup = V;
rightKerningGroup = V;
unicode = 0174;
},
{
glyphname = Wdieresis;
lastChange = "2014-11-10 22:19:09 +0100";
layers = (
{
layerId = "6959900B-8A08-4E04-B0F8-C63132552E7A";
name = "Bold Extended Italic";
paths = (
{
closed = 1;
nodes = (
"198 0 LINE",
"315 0 LINE",
"512 440 LINE",
"577 0 LINE",
"694 0 LINE",
"961 588 LINE",
"1033 617 LINE",
"1048 705 LINE",
"770 700 LINE",
"755 617 LINE",
"824 588 LINE",
"676 231 LINE",
"613 705 LINE",
"497 697 LINE",
"303 234 LINE",
"241 705 LINE",
"48 700 LINE",
"35 617 LINE",
"105 590 LINE"
);
},
{
closed = 1;
nodes = (
"394 793 OFFCURVE",
"417 770 OFFCURVE",
"454 770 CURVE SMOOTH",
"507 770 OFFCURVE",
"539 814 OFFCURVE",
"539 865 CURVE SMOOTH",
"539 903 OFFCURVE",
"515 926 OFFCURVE",
"477 926 CURVE SMOOTH",
"423 926 OFFCURVE",
"394 881 OFFCURVE",
"394 830 CURVE SMOOTH"
);
},
{
closed = 1;
nodes = (
"607 793 OFFCURVE",
"630 770 OFFCURVE",
"667 770 CURVE SMOOTH",
"720 770 OFFCURVE",
"751 814 OFFCURVE",
"751 865 CURVE SMOOTH",
"751 903 OFFCURVE",
"727 926 OFFCURVE",
"689 926 CURVE SMOOTH",
"636 926 OFFCURVE",
"607 881 OFFCURVE",
"607 830 CURVE SMOOTH"
);
}
);
width = 973;
}
);
leftKerningGroup = V;
rightKerningGroup = V;
unicode = 1E84;
},
{
glyphname = X;
lastChange = "2014-11-10 22:19:09 +0100";
layers = (
{
layerId = "6959900B-8A08-4E04-B0F8-C63132552E7A";
name = "Bold Extended Italic";
paths = (
{
closed = 1;
nodes = (
"210 104 LINE",
"325 244 LINE",
"395 99 LINE",
"347 87 LINE",
"333 0 LINE",
"632 0 LINE",
"646 87 LINE",
"578 107 LINE",
"439 363 LINE",
"646 596 LINE",
"722 617 LINE",
"736 705 LINE",
"454 700 LINE",
"441 617 LINE",
"483 599 LINE",
"370 463 LINE",
"300 602 LINE",
"349 617 LINE",
"363 705 LINE",
"68 700 LINE",
"55 617 LINE",
"117 598 LINE",
"253 350 LINE",
"47 110 LINE",
"-29 87 LINE",
"-43 0 LINE",
"244 0 LINE",
"258 87 LINE"
);
}
);
width = 665;
}
);
leftKerningGroup = X;
rightKerningGroup = X;
unicode = 0058;
},
{
glyphname = Y;
lastChange = "2014-11-10 22:19:09 +0100";
layers = (
{
layerId = "6959900B-8A08-4E04-B0F8-C63132552E7A";
name = "Bold Extended Italic";
paths = (
{
closed = 1;
nodes = (
"355 112 LINE",
"374 230 LINE",
"603 589 LINE",
"677 617 LINE",
"691 705 LINE",
"408 700 LINE",
"395 617 LINE",
"463 595 LINE",
"336 376 LINE",
"246 705 LINE",
"58 700 LINE",
"45 617 LINE",
"121 595 LINE",
"228 246 LINE",
"207 112 LINE",
"129 87 LINE",
"115 0 LINE",
"411 0 LINE",
"425 87 LINE"
);
}
);
width = 617;
}
);
leftKerningGroup = Y;
rightKerningGroup = Y;
unicode = 0059;
},
{
glyphname = Ycircumflex;
lastChange = "2014-11-10 22:19:09 +0100";
layers = (
{
layerId = "6959900B-8A08-4E04-B0F8-C63132552E7A";
name = "Bold Extended Italic";
paths = (
{
closed = 1;
nodes = (
"355 112 LINE",
"374 230 LINE",
"603 589 LINE",
"677 617 LINE",
"691 705 LINE",
"408 700 LINE",
"395 617 LINE",
"463 595 LINE",
"336 376 LINE",
"246 705 LINE",
"58 700 LINE",
"45 617 LINE",
"121 595 LINE",
"228 246 LINE",
"207 112 LINE",
"129 87 LINE",
"115 0 LINE",
"411 0 LINE",
"425 87 LINE"
);
},
{
closed = 1;
nodes = (
"378 842 LINE",
"505 742 LINE",
"561 807 LINE",
"431 951 LINE",
"344 944 LINE",
"172 807 LINE",
"214 742 LINE"
);
}
);
width = 617;
}
);
leftKerningGroup = Y;
rightKerningGroup = Y;
unicode = 0176;
},
{
glyphname = Z;
lastChange = "2014-11-10 22:19:09 +0100";
layers = (
{
layerId = "6959900B-8A08-4E04-B0F8-C63132552E7A";
name = "Bold Extended Italic";
paths = (
{
closed = 1;
nodes = (
"516 0 LINE",
"551 221 LINE",
"458 221 LINE",
"420 117 LINE",
"215 117 LINE",
"586 594 LINE",
"598 705 LINE",
"104 705 LINE",
"75 502 LINE",
"163 502 LINE",
"199 587 LINE",
"399 587 LINE",
"25 104 LINE",
"11 0 LINE"
);
}
);
width = 594;
}
);
leftKerningGroup = Z;
rightKerningGroup = Z;
unicode = 005A;
},
{
glyphname = a;
lastChange = "2014-11-10 22:19:09 +0100";
layers = (
{
layerId = "6959900B-8A08-4E04-B0F8-C63132552E7A";
name = "Bold Extended Italic";
paths = (
{
closed = 1;
nodes = (
"499 104 LINE",
"569 540 LINE",
"478 540 LINE",
"449 513 LINE",
"449 513 OFFCURVE",
"401 550 OFFCURVE",
"332 550 CURVE SMOOTH",
"177 550 OFFCURVE",
"26 421 OFFCURVE",
"26 171 CURVE SMOOTH",
"26 70 OFFCURVE",
"81 -10 OFFCURVE",
"169 -10 CURVE SMOOTH",
"295 -10 OFFCURVE",
"378 138 OFFCURVE",
"383 148 CURVE",
"348 0 LINE",
"563 10 LINE",
"576 89 LINE"
);
},
{
closed = 1;
nodes = (
"392 347 LINE",
"392 347 OFFCURVE",
"325 107 OFFCURVE",
"225 107 CURVE SMOOTH",
"195 107 OFFCURVE",
"176 137 OFFCURVE",
"176 190 CURVE SMOOTH",
"176 335 OFFCURVE",
"242 442 OFFCURVE",
"334 442 CURVE SMOOTH",
"378 442 OFFCURVE",
"407 430 OFFCURVE",
"407 430 CURVE"
);
}
);
width = 615;
}
);
leftKerningGroup = a;
rightKerningGroup = a;
unicode = 0061;
},
{
glyphname = abreve;
lastChange = "2014-11-10 22:19:09 +0100";
layers = (
{
components = (
{
name = a;
transform = "{1, 0, 0, 1, 0, 0}";
},
{
name = breve;
transform = "{1, 0, 0, 1, 137, 16}";
}
);
layerId = "6959900B-8A08-4E04-B0F8-C63132552E7A";
name = "Bold Extended Italic";
paths = (
{
closed = 0;
nodes = (
"297 508 LINE"
);
}
);
width = 615;
}
);
leftKerningGroup = a;
rightKerningGroup = a;
unicode = 0103;
},
{
glyphname = acircumflex;
lastChange = "2014-11-10 22:19:09 +0100";
layers = (
{
layerId = "6959900B-8A08-4E04-B0F8-C63132552E7A";
name = "Bold Extended Italic";
paths = (
{
closed = 1;
nodes = (
"489 104 LINE",
"559 540 LINE",
"471 540 LINE",
"442 513 LINE",
"442 513 OFFCURVE",
"394 550 OFFCURVE",
"325 550 CURVE SMOOTH",
"170 550 OFFCURVE",
"21 421 OFFCURVE",
"21 171 CURVE SMOOTH",
"21 70 OFFCURVE",
"74 -10 OFFCURVE",
"162 -10 CURVE SMOOTH",
"288 -10 OFFCURVE",
"371 138 OFFCURVE",
"376 148 CURVE",
"341 0 LINE",
"553 10 LINE",
"566 89 LINE"
);
},
{
closed = 1;
nodes = (
"385 347 LINE",
"385 347 OFFCURVE",
"318 107 OFFCURVE",
"218 107 CURVE SMOOTH",
"188 107 OFFCURVE",
"169 137 OFFCURVE",
"169 190 CURVE SMOOTH",
"169 335 OFFCURVE",
"235 442 OFFCURVE",
"327 442 CURVE SMOOTH",
"371 442 OFFCURVE",
"400 430 OFFCURVE",
"400 430 CURVE"
);
},
{
closed = 1;
nodes = (
"352 719 LINE",
"479 619 LINE",
"535 684 LINE",
"405 828 LINE",
"318 821 LINE",
"146 684 LINE",
"188 619 LINE"
);
}
);
width = 605;
}
);
leftKerningGroup = a;
rightKerningGroup = a;
unicode = 00E2;
},
{
glyphname = amacron;
lastChange = "2014-11-10 22:19:09 +0100";
layers = (
{
layerId = "6959900B-8A08-4E04-B0F8-C63132552E7A";
name = "Bold Extended Italic";
paths = (
{
closed = 1;
nodes = (
"489 104 LINE",
"559 540 LINE",
"471 540 LINE",
"442 513 LINE",
"442 513 OFFCURVE",
"394 550 OFFCURVE",
"325 550 CURVE SMOOTH",
"170 550 OFFCURVE",
"21 421 OFFCURVE",
"21 171 CURVE SMOOTH",
"21 70 OFFCURVE",
"74 -10 OFFCURVE",
"162 -10 CURVE SMOOTH",
"288 -10 OFFCURVE",
"371 138 OFFCURVE",
"376 148 CURVE",
"341 0 LINE",
"553 10 LINE",
"566 89 LINE"
);
},
{
closed = 1;
nodes = (
"385 347 LINE",
"385 347 OFFCURVE",
"318 107 OFFCURVE",
"218 107 CURVE SMOOTH",
"188 107 OFFCURVE",
"169 137 OFFCURVE",
"169 190 CURVE SMOOTH",
"169 335 OFFCURVE",
"235 442 OFFCURVE",
"327 442 CURVE SMOOTH",
"371 442 OFFCURVE",
"400 430 OFFCURVE",
"400 430 CURVE"
);
},
{
closed = 1;
nodes = (
"191 642 LINE",
"482 642 LINE",
"500 747 LINE",
"209 747 LINE"
);
}
);
width = 605;
}
);
leftKerningGroup = a;
rightKerningGroup = a;
unicode = 0101;
},
{
glyphname = aogonek;
lastChange = "2014-11-10 22:19:09 +0100";
layers = (
{
layerId = "6959900B-8A08-4E04-B0F8-C63132552E7A";
name = "Bold Extended Italic";
paths = (
{
closed = 1;
nodes = (
"489 104 LINE",
"559 540 LINE",
"471 540 LINE",
"442 513 LINE",
"442 513 OFFCURVE",
"394 550 OFFCURVE",
"325 550 CURVE SMOOTH",
"170 550 OFFCURVE",
"21 421 OFFCURVE",
"21 171 CURVE SMOOTH",
"21 70 OFFCURVE",
"74 -10 OFFCURVE",
"162 -10 CURVE SMOOTH",
"288 -10 OFFCURVE",
"371 138 OFFCURVE",
"376 148 CURVE",
"341 0 LINE",
"428 4 LINE",
"393 -14 OFFCURVE",
"300 -69 OFFCURVE",
"300 -152 CURVE SMOOTH",
"300 -206 OFFCURVE",
"341 -235 OFFCURVE",
"393 -235 CURVE SMOOTH",
"442 -235 OFFCURVE",
"495 -211 OFFCURVE",
"495 -211 CURVE",
"490 -140 LINE",
"490 -140 OFFCURVE",
"467 -147 OFFCURVE",
"450 -147 CURVE SMOOTH",
"429 -147 OFFCURVE",
"416 -135 OFFCURVE",
"416 -117 CURVE SMOOTH",
"416 -62 OFFCURVE",
"546 6 OFFCURVE",
"553 10 CURVE",
"566 89 LINE"
);
},
{
closed = 1;
nodes = (
"385 347 LINE",
"385 347 OFFCURVE",
"318 107 OFFCURVE",
"218 107 CURVE SMOOTH",
"188 107 OFFCURVE",
"169 137 OFFCURVE",
"169 190 CURVE SMOOTH",
"169 335 OFFCURVE",
"235 442 OFFCURVE",
"327 442 CURVE SMOOTH",
"371 442 OFFCURVE",
"400 430 OFFCURVE",
"400 430 CURVE"
);
}
);
width = 605;
}
);
leftKerningGroup = a;
rightKerningGroup = a;
unicode = 0105;
},
{
glyphname = atilde;
lastChange = "2014-11-10 22:19:09 +0100";
layers = (
{
layerId = "6959900B-8A08-4E04-B0F8-C63132552E7A";
name = "Bold Extended Italic";
paths = (
{
closed = 1;
nodes = (
"489 104 LINE",
"559 540 LINE",
"471 540 LINE",
"442 513 LINE",
"442 513 OFFCURVE",
"394 550 OFFCURVE",
"325 550 CURVE SMOOTH",
"170 550 OFFCURVE",
"21 421 OFFCURVE",
"21 171 CURVE SMOOTH",
"21 70 OFFCURVE",
"74 -10 OFFCURVE",
"162 -10 CURVE SMOOTH",
"288 -10 OFFCURVE",
"371 138 OFFCURVE",
"376 148 CURVE",
"341 0 LINE",
"553 10 LINE",
"566 89 LINE"
);
},
{
closed = 1;
nodes = (
"385 347 LINE",
"385 347 OFFCURVE",
"318 107 OFFCURVE",
"218 107 CURVE SMOOTH",
"188 107 OFFCURVE",
"169 137 OFFCURVE",
"169 190 CURVE SMOOTH",
"169 335 OFFCURVE",
"235 442 OFFCURVE",
"327 442 CURVE SMOOTH",
"371 442 OFFCURVE",
"400 430 OFFCURVE",
"400 430 CURVE"
);
},
{
closed = 1;
nodes = (
"184 637 LINE",
"184 637 OFFCURVE",
"221 678 OFFCURVE",
"262 678 CURVE SMOOTH",
"320 678 OFFCURVE",
"359 634 OFFCURVE",
"427 634 CURVE SMOOTH",
"506 634 OFFCURVE",
"565 743 OFFCURVE",
"565 743 CURVE",
"520 782 LINE",
"520 782 OFFCURVE",
"485 740 OFFCURVE",
"447 740 CURVE SMOOTH",
"389 740 OFFCURVE",
"355 785 OFFCURVE",
"287 785 CURVE SMOOTH",
"207 785 OFFCURVE",
"146 678 OFFCURVE",
"146 678 CURVE"
);
}
);
width = 605;
}
);
leftKerningGroup = a;
rightKerningGroup = a;
unicode = 00E3;
},
{
glyphname = ae;
lastChange = "2014-11-10 22:19:09 +0100";
layers = (
{
layerId = "6959900B-8A08-4E04-B0F8-C63132552E7A";
name = "Bold Extended Italic";
paths = (
{
closed = 1;
nodes = (
"806 492 OFFCURVE",
"736 550 OFFCURVE",
"623 550 CURVE SMOOTH",
"560 550 OFFCURVE",
"503 525 OFFCURVE",
"456 484 CURVE",
"445 521 OFFCURVE",
"407 550 OFFCURVE",
"319 550 CURVE SMOOTH",
"219 550 OFFCURVE",
"104 510 OFFCURVE",
"104 510 CURVE",
"87 365 LINE",
"170 365 LINE",
"195 429 LINE",
"195 429 OFFCURVE",
"234 442 OFFCURVE",
"285 442 CURVE SMOOTH",
"325 442 OFFCURVE",
"349 424 OFFCURVE",
"349 387 CURVE SMOOTH",
"349 382 OFFCURVE",
"348 373 OFFCURVE",
"347 367 CURVE SMOOTH",
"338 311 LINE",
"267 311 LINE SMOOTH",
"116 311 OFFCURVE",
"14 250 OFFCURVE",
"14 120 CURVE SMOOTH",
"14 40 OFFCURVE",
"68 -9 OFFCURVE",
"151 -9 CURVE SMOOTH",
"230 -9 OFFCURVE",
"300 34 OFFCURVE",
"345 87 CURVE",
"371 25 OFFCURVE",
"430 -10 OFFCURVE",
"516 -10 CURVE SMOOTH",
"623 -10 OFFCURVE",
"720 47 OFFCURVE",
"749 67 CURVE",
"707 141 LINE",
"686 134 OFFCURVE",
"616 105 OFFCURVE",
"557 105 CURVE SMOOTH",
"486 105 OFFCURVE",
"464 141 OFFCURVE",
"464 216 CURVE",
"684 219 OFFCURVE",
"806 292 OFFCURVE",
"806 407 CURVE SMOOTH"
);
},
{
closed = 1;
nodes = (
"325 226 LINE",
"318 170 OFFCURVE",
"269 100 OFFCURVE",
"209 100 CURVE SMOOTH",
"181 100 OFFCURVE",
"157 122 OFFCURVE",
"157 150 CURVE SMOOTH",
"157 197 OFFCURVE",
"191 226 OFFCURVE",
"269 226 CURVE SMOOTH"
);
},
{
closed = 1;
nodes = (
"661 342 OFFCURVE",
"603 307 OFFCURVE",
"475 304 CURVE",
"495 380 OFFCURVE",
"544 437 OFFCURVE",
"604 437 CURVE SMOOTH",
"642 437 OFFCURVE",
"661 421 OFFCURVE",
"661 389 CURVE SMOOTH"
);
}
);
width = 811;
}
);
leftKerningGroup = a;
rightKerningGroup = a;
unicode = 00E6;
},
{
glyphname = b;
lastChange = "2014-11-10 22:19:09 +0100";
layers = (
{
layerId = "6959900B-8A08-4E04-B0F8-C63132552E7A";
name = "Bold Extended Italic";
paths = (
{
closed = 1;
nodes = (
"42 20 LINE",
"42 20 OFFCURVE",
"142 -10 OFFCURVE",
"250 -10 CURVE SMOOTH",
"418 -10 OFFCURVE",
"575 126 OFFCURVE",
"575 365 CURVE SMOOTH",
"575 465 OFFCURVE",
"528 550 OFFCURVE",
"433 550 CURVE SMOOTH",
"303 550 OFFCURVE",
"230 398 OFFCURVE",
"225 388 CURVE",
"259 525 LINE",
"303 775 LINE",
"84 767 LINE",
"71 687 LINE",
"144 667 LINE"
);
},
{
closed = 1;
nodes = (
"217 193 LINE",
"217 193 OFFCURVE",
"272 430 OFFCURVE",
"372 430 CURVE SMOOTH",
"410 430 OFFCURVE",
"427 387 OFFCURVE",
"427 342 CURVE SMOOTH",
"427 206 OFFCURVE",
"351 100 OFFCURVE",
"269 100 CURVE SMOOTH",
"234 100 OFFCURVE",
"201 111 OFFCURVE",
"201 111 CURVE"
);
}
);
width = 612;
}
);
leftKerningGroup = l;
rightKerningGroup = b;
unicode = 0062;
},
{
glyphname = c;
lastChange = "2014-11-10 22:19:09 +0100";
layers = (
{
layerId = "6959900B-8A08-4E04-B0F8-C63132552E7A";
name = "Bold Extended Italic";
paths = (
{
closed = 1;
nodes = (
"400 151 LINE",
"378 141 OFFCURVE",
"316 110 OFFCURVE",
"258 110 CURVE SMOOTH",
"207 110 OFFCURVE",
"176 145 OFFCURVE",
"176 203 CURVE SMOOTH",
"176 311 OFFCURVE",
"221 431 OFFCURVE",
"322 431 CURVE SMOOTH",
"355 431 OFFCURVE",
"375 422 OFFCURVE",
"375 422 CURVE",
"380 352 LINE",
"468 352 LINE",
"493 510 LINE",
"473 519 OFFCURVE",
"413 550 OFFCURVE",
"338 550 CURVE SMOOTH",
"155 550 OFFCURVE",
"28 405 OFFCURVE",
"28 183 CURVE SMOOTH",
"28 58 OFFCURVE",
"100 -10 OFFCURVE",
"215 -10 CURVE SMOOTH",
"325 -10 OFFCURVE",
"421 57 OFFCURVE",
"443 72 CURVE"
);
}
);
width = 485;
}
);
leftKerningGroup = o;
rightKerningGroup = c;
unicode = 0063;
},
{
glyphname = ccedilla;
lastChange = "2014-11-10 22:19:09 +0100";
layers = (
{
layerId = "6959900B-8A08-4E04-B0F8-C63132552E7A";
name = "Bold Extended Italic";
paths = (
{
closed = 1;
nodes = (
"187 -168 OFFCURVE",
"155 -149 OFFCURVE",
"155 -149 CURVE",
"117 -204 LINE",
"117 -204 OFFCURVE",
"164 -234 OFFCURVE",
"232 -234 CURVE SMOOTH",
"301 -234 OFFCURVE",
"365 -190 OFFCURVE",
"365 -120 CURVE SMOOTH",
"365 -79 OFFCURVE",
"336 -53 OFFCURVE",
"294 -44 CURVE",
"302 2 LINE",
"365 21 OFFCURVE",
"419 56 OFFCURVE",
"443 72 CURVE",
"399 146 LINE",
"377 136 OFFCURVE",
"316 105 OFFCURVE",
"258 105 CURVE SMOOTH",
"208 105 OFFCURVE",
"176 139 OFFCURVE",
"176 200 CURVE SMOOTH",
"176 308 OFFCURVE",
"221 435 OFFCURVE",
"322 435 CURVE SMOOTH",
"355 435 OFFCURVE",
"375 426 OFFCURVE",
"375 426 CURVE",
"378 352 LINE",
"466 352 LINE",
"493 510 LINE",
"473 519 OFFCURVE",
"413 550 OFFCURVE",
"338 550 CURVE SMOOTH",
"155 550 OFFCURVE",
"28 405 OFFCURVE",
"28 183 CURVE SMOOTH",
"28 58 OFFCURVE",
"103 -7 OFFCURVE",
"216 -10 CURVE",
"204 -87 LINE",
"249 -87 OFFCURVE",
"279 -100 OFFCURVE",
"279 -126 CURVE SMOOTH",
"279 -154 OFFCURVE",
"254 -168 OFFCURVE",
"224 -168 CURVE SMOOTH"
);
}
);
width = 485;
}
);
leftKerningGroup = o;
rightKerningGroup = c;
unicode = 00E7;
},
{
glyphname = ccircumflex;
lastChange = "2014-11-10 22:19:09 +0100";
layers = (
{
layerId = "6959900B-8A08-4E04-B0F8-C63132552E7A";
name = "Bold Extended Italic";
paths = (
{
closed = 1;
nodes = (
"399 146 LINE",
"377 136 OFFCURVE",
"316 105 OFFCURVE",
"258 105 CURVE SMOOTH",
"208 105 OFFCURVE",
"176 139 OFFCURVE",
"176 200 CURVE SMOOTH",
"176 308 OFFCURVE",
"221 435 OFFCURVE",
"322 435 CURVE SMOOTH",
"355 435 OFFCURVE",
"375 426 OFFCURVE",
"375 426 CURVE",
"378 352 LINE",
"466 352 LINE",
"493 510 LINE",
"473 519 OFFCURVE",
"413 550 OFFCURVE",
"338 550 CURVE SMOOTH",
"155 550 OFFCURVE",
"28 405 OFFCURVE",
"28 183 CURVE SMOOTH",
"28 55 OFFCURVE",
"107 -10 OFFCURVE",
"225 -10 CURVE SMOOTH",
"317 -10 OFFCURVE",
"410 49 OFFCURVE",
"443 72 CURVE"
);
},
{
closed = 1;
nodes = (
"357 719 LINE",
"484 619 LINE",
"540 684 LINE",
"410 828 LINE",
"323 821 LINE",
"151 684 LINE",
"193 619 LINE"
);
}
);
width = 485;
}
);
leftKerningGroup = o;
rightKerningGroup = c;
unicode = 0109;
},
{
glyphname = d;
lastChange = "2014-11-10 22:19:09 +0100";
layers = (
{
layerId = "6959900B-8A08-4E04-B0F8-C63132552E7A";
name = "Bold Extended Italic";
paths = (
{
closed = 1;
nodes = (
"495 104 LINE",
"603 775 LINE",
"381 767 LINE",
"369 687 LINE",
"446 667 LINE",
"423 531 LINE",
"423 531 OFFCURVE",
"383 550 OFFCURVE",
"336 550 CURVE SMOOTH",
"181 550 OFFCURVE",
"31 420 OFFCURVE",
"31 171 CURVE SMOOTH",
"31 69 OFFCURVE",
"83 -10 OFFCURVE",
"172 -10 CURVE SMOOTH",
"299 -10 OFFCURVE",
"381 138 OFFCURVE",
"386 148 CURVE",
"349 0 LINE",
"558 5 LINE",
"571 89 LINE"
);
},
{
closed = 1;
nodes = (
"393 347 LINE",
"393 347 OFFCURVE",
"328 107 OFFCURVE",
"228 107 CURVE SMOOTH",
"197 107 OFFCURVE",
"179 139 OFFCURVE",
"179 192 CURVE SMOOTH",
"179 318 OFFCURVE",
"234 442 OFFCURVE",
"337 442 CURVE SMOOTH",
"379 442 OFFCURVE",
"407 430 OFFCURVE",
"407 430 CURVE"
);
}
);
width = 610;
}
);
leftKerningGroup = o;
unicode = 0064;
},
{
glyphname = eth;
lastChange = "2014-11-10 22:19:09 +0100";
layers = (
{
layerId = "6959900B-8A08-4E04-B0F8-C63132552E7A";
name = "Bold Extended Italic";
paths = (
{
closed = 1;
nodes = (
"490 789 LINE",
"376 728 LINE",
"335 756 OFFCURVE",
"289 776 OFFCURVE",
"240 789 CURVE",
"187 702 LINE",
"212 693 OFFCURVE",
"240 681 OFFCURVE",
"264 667 CURVE",
"174 618 LINE",
"217 540 LINE",
"339 606 LINE",
"372 571 OFFCURVE",
"392 528 OFFCURVE",
"399 480 CURVE",
"399 480 OFFCURVE",
"363 505 OFFCURVE",
"313 505 CURVE SMOOTH",
"145 505 OFFCURVE",
"26 373 OFFCURVE",
"26 178 CURVE SMOOTH",
"26 57 OFFCURVE",
"105 -12 OFFCURVE",
"233 -12 CURVE SMOOTH",
"430 -12 OFFCURVE",
"533 147 OFFCURVE",
"533 389 CURVE SMOOTH",
"533 508 OFFCURVE",
"500 598 OFFCURVE",
"445 663 CURVE",
"534 711 LINE"
);
},
{
closed = 1;
nodes = (
"202 102 OFFCURVE",
"179 135 OFFCURVE",
"179 188 CURVE SMOOTH",
"179 282 OFFCURVE",
"214 390 OFFCURVE",
"299 390 CURVE SMOOTH",
"354 390 OFFCURVE",
"378 360 OFFCURVE",
"378 307 CURVE SMOOTH",
"378 215 OFFCURVE",
"345 102 OFFCURVE",
"255 102 CURVE SMOOTH"
);
}
);
width = 564;
}
);
leftKerningGroup = o;
unicode = 00F0;
},
{
glyphname = dcaron;
lastChange = "2014-11-10 22:19:09 +0100";
layers = (
{
components = (
{
name = d;
transform = "{1, 0, 0, 1, 0, 0}";
},
{
name = caron.x;
transform = "{1, 0, 0, 1, 591, 0}";
}
);
layerId = "6959900B-8A08-4E04-B0F8-C63132552E7A";
name = "Bold Extended Italic";
paths = (
{
closed = 0;
nodes = (
"493 509 LINE"
);
}
);
width = 736;
}
);
leftKerningGroup = o;
unicode = 010F;
},
{
glyphname = dcroat;
lastChange = "2014-11-10 22:19:09 +0100";
layers = (
{
layerId = "6959900B-8A08-4E04-B0F8-C63132552E7A";
name = "Bold Extended Italic";
paths = (
{
closed = 1;
nodes = (
"330 569 LINE",
"429 569 LINE",
"423 531 LINE",
"423 531 OFFCURVE",
"383 550 OFFCURVE",
"336 550 CURVE SMOOTH",
"181 550 OFFCURVE",
"31 420 OFFCURVE",
"31 171 CURVE SMOOTH",
"31 69 OFFCURVE",
"83 -10 OFFCURVE",
"172 -10 CURVE SMOOTH",
"299 -10 OFFCURVE",
"381 138 OFFCURVE",
"386 148 CURVE",
"349 0 LINE",
"558 5 LINE",
"571 89 LINE",
"495 104 LINE",
"570 569 LINE",
"651 569 LINE",
"665 649 LINE",
"583 649 LINE",
"603 775 LINE",
"381 767 LINE",
"369 687 LINE",
"446 667 LINE",
"443 649 LINE",
"344 649 LINE"
);
},
{
closed = 1;
nodes = (
"393 347 LINE",
"393 347 OFFCURVE",
"328 107 OFFCURVE",
"228 107 CURVE SMOOTH",
"197 107 OFFCURVE",
"179 139 OFFCURVE",
"179 192 CURVE SMOOTH",
"179 318 OFFCURVE",
"234 442 OFFCURVE",
"337 442 CURVE SMOOTH",
"379 442 OFFCURVE",
"407 430 OFFCURVE",
"407 430 CURVE"
);
}
);
width = 610;
}
);
leftKerningGroup = o;
unicode = 0111;
},
{
glyphname = e;
lastChange = "2014-11-10 22:19:09 +0100";
layers = (
{
layerId = "6959900B-8A08-4E04-B0F8-C63132552E7A";
name = "Bold Extended Italic";
paths = (
{
closed = 1;
nodes = (
"517 494 OFFCURVE",
"445 550 OFFCURVE",
"327 550 CURVE SMOOTH",
"163 550 OFFCURVE",
"26 396 OFFCURVE",
"26 175 CURVE SMOOTH",
"26 58 OFFCURVE",
"105 -10 OFFCURVE",
"225 -10 CURVE SMOOTH",
"331 -10 OFFCURVE",
"431 47 OFFCURVE",
"460 67 CURVE",
"418 141 LINE",
"388 129 OFFCURVE",
"325 105 OFFCURVE",
"266 105 CURVE SMOOTH",
"207 105 OFFCURVE",
"172 126 OFFCURVE",
"172 213 CURVE",
"392 215 OFFCURVE",
"517 294 OFFCURVE",
"517 407 CURVE SMOOTH"
);
},
{
closed = 1;
nodes = (
"372 344 OFFCURVE",
"311 304 OFFCURVE",
"184 301 CURVE",
"204 389 OFFCURVE",
"268 438 OFFCURVE",
"322 438 CURVE SMOOTH",
"350 438 OFFCURVE",
"372 422 OFFCURVE",
"372 389 CURVE SMOOTH"
);
}
);
width = 522;
}
);
leftKerningGroup = o;
rightKerningGroup = e;
unicode = 0065;
},
{
glyphname = ebreve;
lastChange = "2014-11-10 22:19:09 +0100";
layers = (
{
components = (
{
name = e;
transform = "{1, 0, 0, 1, 0, 0}";
},
{
name = breve;
transform = "{1, 0, 0, 1, 126, 16}";
}
);
layerId = "6959900B-8A08-4E04-B0F8-C63132552E7A";
name = "Bold Extended Italic";
paths = (
{
closed = 0;
nodes = (
"428 465 LINE"
);
}
);
width = 522;
}
);
leftKerningGroup = o;
rightKerningGroup = e;
unicode = 0115;
},
{
glyphname = ecircumflex;
lastChange = "2014-11-10 22:19:09 +0100";
layers = (
{
layerId = "6959900B-8A08-4E04-B0F8-C63132552E7A";
name = "Bold Extended Italic";
paths = (
{
closed = 1;
nodes = (
"517 494 OFFCURVE",
"445 550 OFFCURVE",
"327 550 CURVE SMOOTH",
"163 550 OFFCURVE",
"26 396 OFFCURVE",
"26 175 CURVE SMOOTH",
"26 58 OFFCURVE",
"105 -10 OFFCURVE",
"225 -10 CURVE SMOOTH",
"331 -10 OFFCURVE",
"431 47 OFFCURVE",
"460 67 CURVE",
"418 141 LINE",
"396 134 OFFCURVE",
"325 105 OFFCURVE",
"266 105 CURVE SMOOTH",
"207 105 OFFCURVE",
"172 126 OFFCURVE",
"172 213 CURVE",
"392 215 OFFCURVE",
"517 294 OFFCURVE",
"517 407 CURVE SMOOTH"
);
},
{
closed = 1;
nodes = (
"372 344 OFFCURVE",
"311 304 OFFCURVE",
"184 301 CURVE",
"204 380 OFFCURVE",
"255 437 OFFCURVE",
"315 437 CURVE SMOOTH",
"353 437 OFFCURVE",
"372 421 OFFCURVE",
"372 389 CURVE SMOOTH"
);
},
{
closed = 1;
nodes = (
"346 719 LINE",
"473 619 LINE",
"529 684 LINE",
"399 828 LINE",
"312 821 LINE",
"140 684 LINE",
"182 619 LINE"
);
}
);
width = 517;
}
);
leftKerningGroup = o;
rightKerningGroup = e;
unicode = 00EA;
},
{
glyphname = emacron;
lastChange = "2014-11-10 22:19:09 +0100";
layers = (
{
layerId = "6959900B-8A08-4E04-B0F8-C63132552E7A";
name = "Bold Extended Italic";
paths = (
{
closed = 1;
nodes = (
"517 494 OFFCURVE",
"445 550 OFFCURVE",
"327 550 CURVE SMOOTH",
"163 550 OFFCURVE",
"26 396 OFFCURVE",
"26 175 CURVE SMOOTH",
"26 58 OFFCURVE",
"105 -10 OFFCURVE",
"225 -10 CURVE SMOOTH",
"331 -10 OFFCURVE",
"431 47 OFFCURVE",
"460 67 CURVE",
"418 141 LINE",
"396 134 OFFCURVE",
"325 105 OFFCURVE",
"266 105 CURVE SMOOTH",
"207 105 OFFCURVE",
"172 126 OFFCURVE",
"172 213 CURVE",
"392 215 OFFCURVE",
"517 294 OFFCURVE",
"517 407 CURVE SMOOTH"
);
},
{
closed = 1;
nodes = (
"372 344 OFFCURVE",
"311 304 OFFCURVE",
"184 301 CURVE",
"204 380 OFFCURVE",
"255 437 OFFCURVE",
"315 437 CURVE SMOOTH",
"353 437 OFFCURVE",
"372 421 OFFCURVE",
"372 389 CURVE SMOOTH"
);
},
{
closed = 1;
nodes = (
"171 642 LINE",
"462 642 LINE",
"480 747 LINE",
"189 747 LINE"
);
}
);
width = 517;
}
);
leftKerningGroup = o;
rightKerningGroup = e;
unicode = 0113;
},
{
glyphname = eogonek;
lastChange = "2014-11-10 22:19:09 +0100";
layers = (
{
layerId = "6959900B-8A08-4E04-B0F8-C63132552E7A";
name = "Bold Extended Italic";
paths = (
{
closed = 1;
nodes = (
"517 494 OFFCURVE",
"445 550 OFFCURVE",
"327 550 CURVE SMOOTH",
"163 550 OFFCURVE",
"26 396 OFFCURVE",
"26 175 CURVE SMOOTH",
"26 58 OFFCURVE",
"105 -10 OFFCURVE",
"225 -10 CURVE SMOOTH",
"236 -10 OFFCURVE",
"247 -9 OFFCURVE",
"257 -8 CURVE",
"207 -44 OFFCURVE",
"158 -91 OFFCURVE",
"158 -152 CURVE SMOOTH",
"158 -206 OFFCURVE",
"199 -235 OFFCURVE",
"251 -235 CURVE SMOOTH",
"300 -235 OFFCURVE",
"353 -211 OFFCURVE",
"353 -211 CURVE",
"348 -140 LINE",
"348 -140 OFFCURVE",
"325 -147 OFFCURVE",
"308 -147 CURVE SMOOTH",
"287 -147 OFFCURVE",
"274 -135 OFFCURVE",
"274 -117 CURVE SMOOTH",
"274 -65 OFFCURVE",
"410 33 OFFCURVE",
"449 60 CURVE SMOOTH",
"460 67 LINE",
"459 67 LINE",
"460 67 LINE",
"418 141 LINE",
"396 134 OFFCURVE",
"325 105 OFFCURVE",
"266 105 CURVE SMOOTH",
"207 105 OFFCURVE",
"172 126 OFFCURVE",
"172 213 CURVE",
"392 215 OFFCURVE",
"517 294 OFFCURVE",
"517 407 CURVE SMOOTH"
);
},
{
closed = 1;
nodes = (
"372 344 OFFCURVE",
"311 304 OFFCURVE",
"184 301 CURVE",
"204 380 OFFCURVE",
"255 437 OFFCURVE",
"315 437 CURVE SMOOTH",
"353 437 OFFCURVE",
"372 421 OFFCURVE",
"372 389 CURVE SMOOTH"
);
}
);
width = 517;
}
);
leftKerningGroup = o;
rightKerningGroup = e;
unicode = 0119;
},
{
glyphname = f;
lastChange = "2014-11-10 22:19:09 +0100";
layers = (
{
layerId = "6959900B-8A08-4E04-B0F8-C63132552E7A";
name = "Bold Extended Italic";
paths = (
{
closed = 1;
nodes = (
"70 -48 LINE SMOOTH",
"60 -111 OFFCURVE",
"30 -144 OFFCURVE",
"-22 -144 CURVE SMOOTH",
"-91 -144 LINE",
"-110 -231 LINE",
"-110 -231 OFFCURVE",
"-48 -245 OFFCURVE",
"-8 -245 CURVE SMOOTH",
"122 -245 OFFCURVE",
"193 -158 OFFCURVE",
"213 -31 CURVE SMOOTH",
"286 430 LINE",
"418 430 LINE",
"436 530 LINE",
"303 530 LINE",
"313 595 LINE SMOOTH",
"321 645 OFFCURVE",
"343 677 OFFCURVE",
"401 677 CURVE SMOOTH",
"449 677 LINE",
"449 602 LINE",
"534 602 LINE",
"564 764 LINE",
"564 764 OFFCURVE",
"480 787 OFFCURVE",
"397 787 CURVE SMOOTH",
"230 787 OFFCURVE",
"181 684 OFFCURVE",
"162 530 CURVE",
"70 517 LINE",
"56 430 LINE",
"145 430 LINE"
);
}
);
width = 401;
}
);
leftKerningGroup = f;
rightKerningGroup = f;
unicode = 0066;
},
{
glyphname = g;
lastChange = "2014-11-10 22:19:09 +0100";
layers = (
{
layerId = "6959900B-8A08-4E04-B0F8-C63132552E7A";
name = "Bold Extended Italic";
paths = (
{
closed = 1;
nodes = (
"12 -203 LINE",
"12 -204 OFFCURVE",
"127 -252 OFFCURVE",
"226 -252 CURVE SMOOTH",
"370 -252 OFFCURVE",
"453 -172 OFFCURVE",
"479 -12 CURVE SMOOTH",
"567 540 LINE",
"479 540 LINE",
"450 513 LINE",
"450 513 OFFCURVE",
"402 550 OFFCURVE",
"333 550 CURVE SMOOTH",
"181 550 OFFCURVE",
"30 414 OFFCURVE",
"30 166 CURVE SMOOTH",
"30 65 OFFCURVE",
"87 -10 OFFCURVE",
"174 -10 CURVE SMOOTH",
"294 -10 OFFCURVE",
"379 141 OFFCURVE",
"385 151 CURVE",
"350 -15 LINE SMOOTH",
"333 -95 OFFCURVE",
"292 -139 OFFCURVE",
"206 -139 CURVE SMOOTH",
"139 -139 OFFCURVE",
"45 -105 OFFCURVE",
"45 -105 CURVE"
);
},
{
closed = 1;
nodes = (
"393 347 LINE",
"393 347 OFFCURVE",
"327 107 OFFCURVE",
"226 107 CURVE SMOOTH",
"196 107 OFFCURVE",
"177 137 OFFCURVE",
"177 191 CURVE SMOOTH",
"177 334 OFFCURVE",
"242 442 OFFCURVE",
"335 442 CURVE SMOOTH",
"379 442 OFFCURVE",
"407 430 OFFCURVE",
"407 430 CURVE"
);
}
);
width = 589;
}
);
leftKerningGroup = g;
rightKerningGroup = g;
unicode = 0067;
},
{
glyphname = gcircumflex;
lastChange = "2014-11-10 22:19:09 +0100";
layers = (
{
layerId = "6959900B-8A08-4E04-B0F8-C63132552E7A";
name = "Bold Extended Italic";
paths = (
{
closed = 1;
nodes = (
"12 -203 LINE",
"12 -204 OFFCURVE",
"127 -252 OFFCURVE",
"226 -252 CURVE SMOOTH",
"370 -252 OFFCURVE",
"453 -172 OFFCURVE",
"479 -12 CURVE SMOOTH",
"567 540 LINE",
"479 540 LINE",
"450 513 LINE",
"450 513 OFFCURVE",
"402 550 OFFCURVE",
"333 550 CURVE SMOOTH",
"181 550 OFFCURVE",
"30 414 OFFCURVE",
"30 166 CURVE SMOOTH",
"30 65 OFFCURVE",
"87 -10 OFFCURVE",
"174 -10 CURVE SMOOTH",
"294 -10 OFFCURVE",
"379 141 OFFCURVE",
"385 151 CURVE",
"350 -15 LINE SMOOTH",
"333 -95 OFFCURVE",
"292 -139 OFFCURVE",
"206 -139 CURVE SMOOTH",
"139 -139 OFFCURVE",
"45 -105 OFFCURVE",
"45 -105 CURVE"
);
},
{
closed = 1;
nodes = (
"393 347 LINE",
"393 347 OFFCURVE",
"327 107 OFFCURVE",
"226 107 CURVE SMOOTH",
"196 107 OFFCURVE",
"177 137 OFFCURVE",
"177 191 CURVE SMOOTH",
"177 334 OFFCURVE",
"242 442 OFFCURVE",
"335 442 CURVE SMOOTH",
"379 442 OFFCURVE",
"407 430 OFFCURVE",
"407 430 CURVE"
);
},
{
closed = 1;
nodes = (
"378 719 LINE",
"505 619 LINE",
"561 684 LINE",
"431 828 LINE",
"344 821 LINE",
"172 684 LINE",
"214 619 LINE"
);
}
);
width = 589;
}
);
leftKerningGroup = g;
rightKerningGroup = g;
unicode = 011D;
},
{
glyphname = gcommaaccent;
lastChange = "2014-11-10 22:19:09 +0100";
layers = (
{
layerId = "6959900B-8A08-4E04-B0F8-C63132552E7A";
name = "Bold Extended Italic";
paths = (
{
closed = 1;
nodes = (
"12 -203 LINE",
"12 -204 OFFCURVE",
"127 -252 OFFCURVE",
"226 -252 CURVE SMOOTH",
"370 -252 OFFCURVE",
"453 -172 OFFCURVE",
"479 -12 CURVE SMOOTH",
"567 540 LINE",
"479 540 LINE",
"450 513 LINE",
"450 513 OFFCURVE",
"402 550 OFFCURVE",
"333 550 CURVE SMOOTH",
"181 550 OFFCURVE",
"30 414 OFFCURVE",
"30 166 CURVE SMOOTH",
"30 65 OFFCURVE",
"87 -10 OFFCURVE",
"174 -10 CURVE SMOOTH",
"294 -10 OFFCURVE",
"379 141 OFFCURVE",
"385 151 CURVE",
"350 -15 LINE SMOOTH",
"333 -95 OFFCURVE",
"292 -139 OFFCURVE",
"206 -139 CURVE SMOOTH",
"139 -139 OFFCURVE",
"45 -105 OFFCURVE",
"45 -105 CURVE"
);
},
{
closed = 1;
nodes = (
"393 347 LINE",
"393 347 OFFCURVE",
"327 107 OFFCURVE",
"226 107 CURVE SMOOTH",
"196 107 OFFCURVE",
"177 137 OFFCURVE",
"177 191 CURVE SMOOTH",
"177 334 OFFCURVE",
"242 442 OFFCURVE",
"335 442 CURVE SMOOTH",
"379 442 OFFCURVE",
"407 430 OFFCURVE",
"407 430 CURVE"
);
},
{
closed = 1;
nodes = (
"346 583 LINE",
"394 626 OFFCURVE",
"484 711 OFFCURVE",
"484 797 CURVE SMOOTH",
"484 837 OFFCURVE",
"464 862 OFFCURVE",
"424 862 CURVE SMOOTH",
"384 862 OFFCURVE",
"345 832 OFFCURVE",
"345 782 CURVE SMOOTH",
"345 754 OFFCURVE",
"357 742 OFFCURVE",
"357 723 CURVE SMOOTH",
"357 689 OFFCURVE",
"326 664 OFFCURVE",
"296 636 CURVE"
);
}
);
width = 589;
}
);
leftKerningGroup = g;
rightKerningGroup = g;
unicode = 0123;
},
{
glyphname = h;
lastChange = "2014-11-10 22:19:09 +0100";
layers = (
{
layerId = "6959900B-8A08-4E04-B0F8-C63132552E7A";
name = "Bold Extended Italic";
paths = (
{
closed = 1;
nodes = (
"89 767 LINE",
"76 687 LINE",
"153 667 LINE",
"46 0 LINE",
"191 0 LINE",
"224 182 LINE SMOOTH",
"235 242 OFFCURVE",
"296 427 OFFCURVE",
"384 427 CURVE SMOOTH",
"413 427 OFFCURVE",
"422 406 OFFCURVE",
"422 378 CURVE SMOOTH",
"422 367 OFFCURVE",
"421 355 OFFCURVE",
"419 342 CURVE SMOOTH",
"363 0 LINE",
"587 10 LINE",
"600 90 LINE",
"525 105 LINE",
"567 370 LINE SMOOTH",
"570 391 OFFCURVE",
"572 411 OFFCURVE",
"572 429 CURVE SMOOTH",
"572 502 OFFCURVE",
"540 550 OFFCURVE",
"460 550 CURVE SMOOTH",
"329 550 OFFCURVE",
"249 390 OFFCURVE",
"245 380 CURVE",
"315 775 LINE"
);
}
);
width = 639;
}
);
rightKerningGroup = n;
unicode = 0068;
},
{
glyphname = hbar;
lastChange = "2014-11-10 22:19:09 +0100";
layers = (
{
layerId = "6959900B-8A08-4E04-B0F8-C63132552E7A";
name = "Bold Extended Italic";
paths = (
{
closed = 1;
nodes = (
"89 767 LINE",
"76 687 LINE",
"153 667 LINE",
"149 646 LINE",
"71 646 LINE",
"58 566 LINE",
"137 566 LINE",
"46 0 LINE",
"187 0 LINE",
"220 182 LINE SMOOTH",
"231 242 OFFCURVE",
"292 427 OFFCURVE",
"380 427 CURVE SMOOTH",
"409 427 OFFCURVE",
"418 406 OFFCURVE",
"418 378 CURVE SMOOTH",
"418 367 OFFCURVE",
"417 355 OFFCURVE",
"415 342 CURVE SMOOTH",
"359 0 LINE",
"580 10 LINE",
"593 90 LINE",
"518 105 LINE",
"560 370 LINE SMOOTH",
"563 391 OFFCURVE",
"565 411 OFFCURVE",
"565 429 CURVE SMOOTH",
"565 502 OFFCURVE",
"536 550 OFFCURVE",
"456 550 CURVE SMOOTH",
"325 550 OFFCURVE",
"245 390 OFFCURVE",
"241 380 CURVE",
"274 566 LINE",
"382 566 LINE",
"394 646 LINE",
"288 646 LINE",
"311 775 LINE"
);
}
);
width = 632;
}
);
rightKerningGroup = n;
unicode = 0127;
},
{
glyphname = hcircumflex;
lastChange = "2014-11-10 22:19:09 +0100";
layers = (
{
layerId = "6959900B-8A08-4E04-B0F8-C63132552E7A";
name = "Bold Extended Italic";
paths = (
{
closed = 1;
nodes = (
"89 767 LINE",
"76 687 LINE",
"153 667 LINE",
"46 0 LINE",
"187 0 LINE",
"220 182 LINE SMOOTH",
"231 242 OFFCURVE",
"292 427 OFFCURVE",
"380 427 CURVE SMOOTH",
"409 427 OFFCURVE",
"418 406 OFFCURVE",
"418 378 CURVE SMOOTH",
"418 367 OFFCURVE",
"417 355 OFFCURVE",
"415 342 CURVE SMOOTH",
"359 0 LINE",
"580 10 LINE",
"593 90 LINE",
"518 105 LINE",
"560 370 LINE SMOOTH",
"563 391 OFFCURVE",
"565 411 OFFCURVE",
"565 429 CURVE SMOOTH",
"565 502 OFFCURVE",
"536 550 OFFCURVE",
"456 550 CURVE SMOOTH",
"325 550 OFFCURVE",
"245 390 OFFCURVE",
"241 380 CURVE",
"311 775 LINE"
);
},
{
closed = 1;
nodes = (
"250 892 LINE",
"377 792 LINE",
"433 857 LINE",
"303 1001 LINE",
"216 994 LINE",
"44 857 LINE",
"86 792 LINE"
);
}
);
width = 632;
}
);
rightKerningGroup = n;
unicode = 0125;
},
{
glyphname = i;
lastChange = "2014-11-10 22:19:09 +0100";
layers = (
{
layerId = "6959900B-8A08-4E04-B0F8-C63132552E7A";
name = "Bold Extended Italic";
paths = (
{
closed = 1;
nodes = (
"58 532 LINE",
"44 452 LINE",
"121 432 LINE",
"53 0 LINE",
"277 10 LINE",
"290 90 LINE",
"214 105 LINE",
"283 540 LINE"
);
},
{
closed = 1;
nodes = (
"147 637 OFFCURVE",
"176 613 OFFCURVE",
"218 613 CURVE SMOOTH",
"274 613 OFFCURVE",
"311 664 OFFCURVE",
"311 725 CURVE SMOOTH",
"311 771 OFFCURVE",
"282 795 OFFCURVE",
"242 795 CURVE SMOOTH",
"184 795 OFFCURVE",
"147 744 OFFCURVE",
"147 685 CURVE SMOOTH"
);
}
);
width = 334;
}
);
leftKerningGroup = i;
rightKerningGroup = i;
unicode = 0069;
},
{
glyphname = dotlessi;
lastChange = "2014-11-10 22:19:09 +0100";
layers = (
{
layerId = "6959900B-8A08-4E04-B0F8-C63132552E7A";
name = "Bold Extended Italic";
paths = (
{
closed = 1;
nodes = (
"58 532 LINE",
"44 452 LINE",
"121 432 LINE",
"53 0 LINE",
"273 10 LINE",
"286 90 LINE",
"210 105 LINE",
"279 540 LINE"
);
}
);
width = 330;
}
);
leftKerningGroup = i;
rightKerningGroup = i;
unicode = 0131;
},
{
glyphname = icircumflex;
lastChange = "2014-11-10 22:19:09 +0100";
layers = (
{
layerId = "6959900B-8A08-4E04-B0F8-C63132552E7A";
name = "Bold Extended Italic";
paths = (
{
closed = 1;
nodes = (
"218 716 LINE",
"335 616 LINE",
"394 681 LINE",
"271 825 LINE",
"184 818 LINE",
"20 681 LINE",
"65 616 LINE"
);
},
{
closed = 1;
nodes = (
"64 532 LINE",
"50 452 LINE",
"127 432 LINE",
"59 0 LINE",
"279 10 LINE",
"292 90 LINE",
"216 105 LINE",
"285 540 LINE"
);
}
);
width = 339;
}
);
leftKerningGroup = i;
rightKerningGroup = i;
unicode = 00EE;
},
{
glyphname = idieresis;
lastChange = "2014-11-10 22:19:09 +0100";
layers = (
{
components = (
{
name = dotlessi;
transform = "{1, 0, 0, 1, 0, 0}";
}
);
layerId = "6959900B-8A08-4E04-B0F8-C63132552E7A";
name = "Bold Extended Italic";
paths = (
{
closed = 1;
nodes = (
"254 643 OFFCURVE",
"277 620 OFFCURVE",
"314 620 CURVE SMOOTH",
"367 620 OFFCURVE",
"398 664 OFFCURVE",
"398 715 CURVE SMOOTH",
"398 753 OFFCURVE",
"374 776 OFFCURVE",
"336 776 CURVE SMOOTH",
"283 776 OFFCURVE",
"254 731 OFFCURVE",
"254 680 CURVE SMOOTH"
);
},
{
closed = 1;
nodes = (
"60 643 OFFCURVE",
"83 620 OFFCURVE",
"120 620 CURVE SMOOTH",
"173 620 OFFCURVE",
"205 664 OFFCURVE",
"205 715 CURVE SMOOTH",
"205 753 OFFCURVE",
"181 776 OFFCURVE",
"143 776 CURVE SMOOTH",
"89 776 OFFCURVE",
"60 731 OFFCURVE",
"60 680 CURVE SMOOTH"
);
}
);
width = 330;
}
);
leftKerningGroup = i;
rightKerningGroup = i;
unicode = 00EF;
},
{
glyphname = ij;
lastChange = "2014-11-10 22:19:09 +0100";
layers = (
{
layerId = "6959900B-8A08-4E04-B0F8-C63132552E7A";
name = "Bold Extended Italic";
paths = (
{
closed = 1;
nodes = (
"475 637 OFFCURVE",
"505 613 OFFCURVE",
"546 613 CURVE SMOOTH",
"603 613 OFFCURVE",
"640 664 OFFCURVE",
"640 725 CURVE SMOOTH",
"640 771 OFFCURVE",
"611 795 OFFCURVE",
"570 795 CURVE SMOOTH",
"512 795 OFFCURVE",
"475 744 OFFCURVE",
"475 685 CURVE SMOOTH"
);
},
{
closed = 1;
nodes = (
"138 637 OFFCURVE",
"167 613 OFFCURVE",
"209 613 CURVE SMOOTH",
"265 613 OFFCURVE",
"302 664 OFFCURVE",
"302 725 CURVE SMOOTH",
"302 771 OFFCURVE",
"273 795 OFFCURVE",
"233 795 CURVE SMOOTH",
"175 795 OFFCURVE",
"138 744 OFFCURVE",
"138 685 CURVE SMOOTH"
);
},
{
closed = 1;
nodes = (
"438 332 LINE",
"427 272 OFFCURVE",
"337 115 OFFCURVE",
"254 115 CURVE SMOOTH",
"225 115 OFFCURVE",
"216 136 OFFCURVE",
"216 164 CURVE SMOOTH",
"216 175 OFFCURVE",
"217 187 OFFCURVE",
"219 200 CURVE SMOOTH",
"275 542 LINE",
"54 532 LINE",
"39 452 LINE",
"116 432 LINE",
"74 172 LINE SMOOTH",
"71 151 OFFCURVE",
"69 131 OFFCURVE",
"69 113 CURVE SMOOTH",
"69 40 OFFCURVE",
"98 -8 OFFCURVE",
"178 -8 CURVE SMOOTH",
"313 -8 OFFCURVE",
"388 130 OFFCURVE",
"413 165 CURVE",
"382 -16 LINE SMOOTH",
"366 -107 OFFCURVE",
"351 -145 OFFCURVE",
"280 -145 CURVE SMOOTH",
"252 -145 OFFCURVE",
"228 -142 OFFCURVE",
"217 -142 CURVE",
"197 -230 LINE",
"197 -230 OFFCURVE",
"254 -245 OFFCURVE",
"297 -245 CURVE SMOOTH",
"421 -245 OFFCURVE",
"498 -168 OFFCURVE",
"518 -43 CURVE SMOOTH",
"612 540 LINE",
"390 532 LINE",
"376 452 LINE",
"454 432 LINE"
);
}
);
width = 635;
}
);
leftKerningGroup = i;
rightKerningGroup = j;
unicode = 0133;
},
{
glyphname = imacron;
lastChange = "2014-11-10 22:19:09 +0100";
layers = (
{
layerId = "6959900B-8A08-4E04-B0F8-C63132552E7A";
name = "Bold Extended Italic";
paths = (
{
closed = 1;
nodes = (
"60 642 LINE",
"342 642 LINE",
"360 747 LINE",
"78 747 LINE"
);
},
{
closed = 1;
nodes = (
"58 532 LINE",
"44 452 LINE",
"121 432 LINE",
"53 0 LINE",
"273 10 LINE",
"286 90 LINE",
"210 105 LINE",
"279 540 LINE"
);
}
);
width = 325;
}
);
leftKerningGroup = i;
rightKerningGroup = i;
unicode = 012B;
},
{
glyphname = iogonek;
lastChange = "2014-11-10 22:19:09 +0100";
layers = (
{
layerId = "6959900B-8A08-4E04-B0F8-C63132552E7A";
name = "Bold Extended Italic";
paths = (
{
closed = 1;
nodes = (
"58 532 LINE",
"44 452 LINE",
"121 432 LINE",
"53 0 LINE",
"148 4 LINE",
"114 -13 OFFCURVE",
"20 -69 OFFCURVE",
"20 -152 CURVE SMOOTH",
"20 -206 OFFCURVE",
"61 -235 OFFCURVE",
"113 -235 CURVE SMOOTH",
"162 -235 OFFCURVE",
"215 -211 OFFCURVE",
"215 -211 CURVE",
"210 -140 LINE",
"210 -140 OFFCURVE",
"187 -147 OFFCURVE",
"170 -147 CURVE SMOOTH",
"149 -147 OFFCURVE",
"136 -135 OFFCURVE",
"136 -117 CURVE SMOOTH",
"136 -62 OFFCURVE",
"266 6 OFFCURVE",
"273 10 CURVE",
"286 90 LINE",
"210 105 LINE",
"279 540 LINE"
);
},
{
closed = 1;
nodes = (
"143 637 OFFCURVE",
"172 613 OFFCURVE",
"214 613 CURVE SMOOTH",
"270 613 OFFCURVE",
"307 664 OFFCURVE",
"307 725 CURVE SMOOTH",
"307 771 OFFCURVE",
"278 795 OFFCURVE",
"238 795 CURVE SMOOTH",
"180 795 OFFCURVE",
"143 744 OFFCURVE",
"143 685 CURVE SMOOTH"
);
}
);
width = 330;
}
);
leftKerningGroup = i;
rightKerningGroup = i;
unicode = 012F;
},
{
glyphname = itilde;
lastChange = "2014-11-10 22:19:09 +0100";
layers = (
{
layerId = "6959900B-8A08-4E04-B0F8-C63132552E7A";
name = "Bold Extended Italic";
paths = (
{
closed = 1;
nodes = (
"32 630 LINE",
"32 630 OFFCURVE",
"64 671 OFFCURVE",
"105 671 CURVE SMOOTH",
"159 671 OFFCURVE",
"187 627 OFFCURVE",
"251 627 CURVE SMOOTH",
"330 627 OFFCURVE",
"384 736 OFFCURVE",
"384 736 CURVE",
"339 782 LINE",
"339 782 OFFCURVE",
"309 740 OFFCURVE",
"271 740 CURVE SMOOTH",
"217 740 OFFCURVE",
"191 786 OFFCURVE",
"127 786 CURVE SMOOTH",
"47 786 OFFCURVE",
"-6 676 OFFCURVE",
"-6 676 CURVE"
);
},
{
closed = 1;
nodes = (
"58 532 LINE",
"44 452 LINE",
"121 432 LINE",
"53 0 LINE",
"273 10 LINE",
"286 90 LINE",
"210 105 LINE",
"279 540 LINE"
);
}
);
width = 330;
}
);
leftKerningGroup = i;
rightKerningGroup = i;
unicode = 0129;
},
{
glyphname = j;
lastChange = "2014-11-10 22:19:09 +0100";
layers = (
{
layerId = "6959900B-8A08-4E04-B0F8-C63132552E7A";
name = "Bold Extended Italic";
paths = (
{
closed = 1;
nodes = (
"144 637 OFFCURVE",
"174 613 OFFCURVE",
"215 613 CURVE SMOOTH",
"272 613 OFFCURVE",
"309 664 OFFCURVE",
"309 725 CURVE SMOOTH",
"309 771 OFFCURVE",
"280 795 OFFCURVE",
"239 795 CURVE SMOOTH",
"181 795 OFFCURVE",
"144 744 OFFCURVE",
"144 685 CURVE SMOOTH"
);
},
{
closed = 1;
nodes = (
"123 432 LINE",
"51 -16 LINE SMOOTH",
"36 -107 OFFCURVE",
"20 -145 OFFCURVE",
"-51 -145 CURVE SMOOTH",
"-79 -145 OFFCURVE",
"-103 -142 OFFCURVE",
"-114 -142 CURVE",
"-134 -230 LINE",
"-134 -230 OFFCURVE",
"-77 -245 OFFCURVE",
"-34 -245 CURVE SMOOTH",
"90 -245 OFFCURVE",
"167 -168 OFFCURVE",
"187 -43 CURVE SMOOTH",
"281 540 LINE",
"59 532 LINE",
"45 452 LINE"
);
}
);
width = 329;
}
);
leftKerningGroup = j;
rightKerningGroup = i;
unicode = 006A;
},
{
glyphname = dotlessj;
lastChange = "2014-11-10 22:19:09 +0100";
layers = (
{
layerId = "6959900B-8A08-4E04-B0F8-C63132552E7A";
name = "Bold Extended Italic";
paths = (
{
closed = 1;
nodes = (
"123 432 LINE",
"51 -16 LINE SMOOTH",
"36 -107 OFFCURVE",
"20 -145 OFFCURVE",
"-51 -145 CURVE SMOOTH",
"-79 -145 OFFCURVE",
"-103 -142 OFFCURVE",
"-114 -142 CURVE",
"-134 -230 LINE",
"-134 -230 OFFCURVE",
"-77 -245 OFFCURVE",
"-34 -245 CURVE SMOOTH",
"90 -245 OFFCURVE",
"167 -168 OFFCURVE",
"187 -43 CURVE SMOOTH",
"281 540 LINE",
"59 532 LINE",
"45 452 LINE"
);
}
);
width = 328;
}
);
leftKerningGroup = j;
rightKerningGroup = i;
unicode = 0237;
},
{
glyphname = jcircumflex;
lastChange = "2014-11-10 22:19:09 +0100";
layers = (
{
layerId = "6959900B-8A08-4E04-B0F8-C63132552E7A";
name = "Bold Extended Italic";
paths = (
{
closed = 1;
nodes = (
"126 432 LINE",
"54 -16 LINE SMOOTH",
"39 -107 OFFCURVE",
"23 -145 OFFCURVE",
"-48 -145 CURVE SMOOTH",
"-76 -145 OFFCURVE",
"-100 -142 OFFCURVE",
"-111 -142 CURVE",
"-131 -230 LINE",
"-131 -230 OFFCURVE",
"-74 -245 OFFCURVE",
"-31 -245 CURVE SMOOTH",
"93 -245 OFFCURVE",
"170 -168 OFFCURVE",
"190 -43 CURVE SMOOTH",
"284 540 LINE",
"62 532 LINE",
"48 452 LINE"
);
},
{
closed = 1;
nodes = (
"211 719 LINE",
"338 619 LINE",
"394 684 LINE",
"264 828 LINE",
"177 821 LINE",
"5 684 LINE",
"47 619 LINE"
);
}
);
width = 329;
}
);
leftKerningGroup = j;
rightKerningGroup = j;
unicode = 0135;
},
{
glyphname = k;
lastChange = "2014-11-10 22:19:09 +0100";
layers = (
{
layerId = "6959900B-8A08-4E04-B0F8-C63132552E7A";
name = "Bold Extended Italic";
paths = (
{
closed = 1;
nodes = (
"87 767 LINE",
"74 687 LINE",
"151 667 LINE",
"44 0 LINE",
"187 0 LINE",
"226 244 LINE",
"285 244 LINE",
"373 0 LINE",
"546 0 LINE",
"557 80 LINE",
"485 103 LINE",
"402 306 LINE",
"520 443 LINE",
"585 455 LINE",
"598 540 LINE",
"360 535 LINE",
"348 455 LINE",
"388 441 LINE",
"306 339 LINE",
"241 339 LINE",
"311 775 LINE"
);
}
);
width = 549;
}
);
leftKerningGroup = l;
rightKerningGroup = k;
unicode = 006B;
},
{
glyphname = kcommaaccent;
lastChange = "2014-11-10 22:19:09 +0100";
layers = (
{
layerId = "6959900B-8A08-4E04-B0F8-C63132552E7A";
name = "Bold Extended Italic";
paths = (
{
closed = 1;
nodes = (
"89 767 LINE",
"76 687 LINE",
"153 667 LINE",
"46 0 LINE",
"187 0 LINE",
"226 245 LINE",
"256 245 LINE SMOOTH",
"283 245 OFFCURVE",
"291 225 OFFCURVE",
"309 172 CURVE SMOOTH",
"368 0 LINE",
"536 0 LINE",
"549 80 LINE",
"473 104 LINE",
"426 232 LINE SMOOTH",
"415 263 OFFCURVE",
"407 280 OFFCURVE",
"396 293 CURVE",
"522 444 LINE",
"581 457 LINE",
"595 540 LINE",
"362 535 LINE",
"349 457 LINE",
"390 445 LINE",
"299 335 LINE",
"240 335 LINE",
"311 775 LINE"
);
},
{
closed = 1;
nodes = (
"194 -329 LINE",
"242 -286 OFFCURVE",
"332 -201 OFFCURVE",
"332 -115 CURVE SMOOTH",
"332 -75 OFFCURVE",
"312 -50 OFFCURVE",
"272 -50 CURVE SMOOTH",
"232 -50 OFFCURVE",
"193 -80 OFFCURVE",
"193 -130 CURVE SMOOTH",
"193 -158 OFFCURVE",
"205 -170 OFFCURVE",
"205 -189 CURVE SMOOTH",
"205 -223 OFFCURVE",
"174 -248 OFFCURVE",
"144 -276 CURVE"
);
}
);
width = 544;
}
);
leftKerningGroup = l;
rightKerningGroup = k;
unicode = 0137;
},
{
glyphname = kgreenlandic;
lastChange = "2014-11-10 22:19:09 +0100";
layers = (
{
layerId = "6959900B-8A08-4E04-B0F8-C63132552E7A";
name = "Bold Extended Italic";
paths = (
{
closed = 1;
nodes = (
"58 533 LINE",
"44 452 LINE",
"122 433 LINE",
"53 0 LINE",
"197 0 LINE",
"237 244 LINE",
"296 244 LINE",
"384 0 LINE",
"557 0 LINE",
"568 80 LINE",
"496 103 LINE",
"413 306 LINE",
"531 443 LINE",
"596 455 LINE",
"609 540 LINE",
"371 535 LINE",
"359 455 LINE",
"399 441 LINE",
"317 339 LINE",
"252 339 LINE",
"285 542 LINE"
);
}
);
width = 560;
}
);
leftKerningGroup = l;
rightKerningGroup = k;
unicode = 0138;
},
{
glyphname = l;
lastChange = "2014-11-10 22:19:09 +0100";
layers = (
{
layerId = "6959900B-8A08-4E04-B0F8-C63132552E7A";
name = "Bold Extended Italic";
paths = (
{
closed = 1;
nodes = (
"89 767 LINE",
"76 687 LINE",
"153 667 LINE",
"46 0 LINE",
"269 10 LINE",
"282 90 LINE",
"206 105 LINE",
"313 775 LINE"
);
}
);
width = 321;
}
);
leftKerningGroup = l;
rightKerningGroup = l;
unicode = 006C;
},
{
glyphname = lcaron;
lastChange = "2014-11-10 22:19:09 +0100";
layers = (
{
components = (
{
name = l;
transform = "{1, 0, 0, 1, -0, 0}";
},
{
name = caron.x;
transform = "{1, 0, 0, 1, 289, 0}";
}
);
layerId = "6959900B-8A08-4E04-B0F8-C63132552E7A";
name = "Bold Extended Italic";
paths = (
{
closed = 0;
nodes = (
"215 629 LINE"
);
}
);
width = 439;
}
);
leftKerningGroup = l;
unicode = 013E;
},
{
glyphname = lcommaaccent;
lastChange = "2014-11-10 22:19:09 +0100";
layers = (
{
layerId = "6959900B-8A08-4E04-B0F8-C63132552E7A";
name = "Bold Extended Italic";
paths = (
{
closed = 1;
nodes = (
"44 -329 LINE",
"92 -286 OFFCURVE",
"182 -201 OFFCURVE",
"182 -115 CURVE SMOOTH",
"182 -75 OFFCURVE",
"162 -50 OFFCURVE",
"122 -50 CURVE SMOOTH",
"82 -50 OFFCURVE",
"43 -80 OFFCURVE",
"43 -130 CURVE SMOOTH",
"43 -158 OFFCURVE",
"55 -170 OFFCURVE",
"55 -189 CURVE SMOOTH",
"55 -223 OFFCURVE",
"24 -248 OFFCURVE",
"-6 -276 CURVE"
);
},
{
closed = 1;
nodes = (
"89 767 LINE",
"76 687 LINE",
"153 667 LINE",
"46 0 LINE",
"269 10 LINE",
"282 90 LINE",
"206 105 LINE",
"313 775 LINE"
);
}
);
width = 321;
}
);
leftKerningGroup = l;
rightKerningGroup = l;
unicode = 013C;
},
{
glyphname = ldot;
lastChange = "2014-11-10 22:19:09 +0100";
layers = (
{
layerId = "6959900B-8A08-4E04-B0F8-C63132552E7A";
name = "Bold Extended Italic";
paths = (
{
closed = 1;
nodes = (
"89 767 LINE",
"76 687 LINE",
"153 667 LINE",
"46 0 LINE",
"269 10 LINE",
"282 90 LINE",
"206 105 LINE",
"313 775 LINE"
);
},
{
closed = 1;
nodes = (
"308 247 OFFCURVE",
"337 218 OFFCURVE",
"382 218 CURVE SMOOTH",
"450 218 OFFCURVE",
"484 272 OFFCURVE",
"484 332 CURVE SMOOTH",
"484 378 OFFCURVE",
"453 406 OFFCURVE",
"408 406 CURVE SMOOTH",
"340 406 OFFCURVE",
"308 353 OFFCURVE",
"308 292 CURVE SMOOTH"
);
}
);
width = 486;
}
);
leftKerningGroup = l;
unicode = 0140;
},
{
glyphname = lslash;
lastChange = "2014-11-10 22:19:09 +0100";
layers = (
{
layerId = "6959900B-8A08-4E04-B0F8-C63132552E7A";
name = "Bold Extended Italic";
paths = (
{
closed = 1;
nodes = (
"98 767 LINE",
"85 687 LINE",
"162 667 LINE",
"55 0 LINE",
"278 10 LINE",
"291 90 LINE",
"215 105 LINE",
"322 775 LINE"
);
},
{
closed = 1;
nodes = (
"-7 346 LINE",
"4 246 LINE",
"385 400 LINE",
"374 500 LINE"
);
}
);
width = 347;
}
);
unicode = 0142;
},
{
glyphname = m;
lastChange = "2014-11-10 22:19:09 +0100";
layers = (
{
layerId = "6959900B-8A08-4E04-B0F8-C63132552E7A";
name = "Bold Extended Italic";
paths = (
{
closed = 1;
nodes = (
"57 532 LINE",
"44 452 LINE",
"121 432 LINE",
"53 0 LINE",
"194 0 LINE",
"222 170 LINE",
"252 285 OFFCURVE",
"309 427 OFFCURVE",
"380 427 CURVE SMOOTH",
"409 427 OFFCURVE",
"418 406 OFFCURVE",
"418 378 CURVE SMOOTH",
"418 367 OFFCURVE",
"417 355 OFFCURVE",
"415 342 CURVE SMOOTH",
"360 0 LINE",
"501 0 LINE",
"532 193 LINE",
"555 280 OFFCURVE",
"612 427 OFFCURVE",
"686 427 CURVE SMOOTH",
"715 427 OFFCURVE",
"724 407 OFFCURVE",
"724 378 CURVE SMOOTH",
"724 368 OFFCURVE",
"723 355 OFFCURVE",
"721 342 CURVE SMOOTH",
"665 0 LINE",
"886 10 LINE",
"899 90 LINE",
"824 105 LINE",
"867 370 LINE SMOOTH",
"870 390 OFFCURVE",
"872 410 OFFCURVE",
"872 428 CURVE SMOOTH",
"872 500 OFFCURVE",
"841 550 OFFCURVE",
"762 550 CURVE SMOOTH",
"654 550 OFFCURVE",
"585 440 OFFCURVE",
"561 392 CURVE",
"563 405 OFFCURVE",
"564 417 OFFCURVE",
"564 429 CURVE SMOOTH",
"564 498 OFFCURVE",
"532 550 OFFCURVE",
"456 550 CURVE SMOOTH",
"324 550 OFFCURVE",
"247 383 OFFCURVE",
"245 379 CURVE",
"278 540 LINE"
);
}
);
width = 938;
}
);
leftKerningGroup = n;
rightKerningGroup = n;
unicode = 006D;
},
{
glyphname = n;
lastChange = "2014-11-10 22:19:09 +0100";
layers = (
{
layerId = "6959900B-8A08-4E04-B0F8-C63132552E7A";
name = "Bold Extended Italic";
paths = (
{
closed = 1;
nodes = (
"57 532 LINE",
"44 452 LINE",
"121 432 LINE",
"52 0 LINE",
"196 0 LINE",
"225 171 LINE",
"231 223 OFFCURVE",
"303 425 OFFCURVE",
"391 425 CURVE SMOOTH",
"419 425 OFFCURVE",
"429 404 OFFCURVE",
"429 376 CURVE SMOOTH",
"429 365 OFFCURVE",
"427 353 OFFCURVE",
"425 340 CURVE SMOOTH",
"370 0 LINE",
"596 10 LINE",
"609 90 LINE",
"531 105 LINE",
"577 370 LINE SMOOTH",
"580 390 OFFCURVE",
"582 410 OFFCURVE",
"582 428 CURVE SMOOTH",
"582 500 OFFCURVE",
"546 550 OFFCURVE",
"467 550 CURVE SMOOTH",
"336 550 OFFCURVE",
"253 390 OFFCURVE",
"248 380 CURVE",
"282 540 LINE"
);
}
);
width = 648;
}
);
leftKerningGroup = n;
rightKerningGroup = n;
unicode = 006E;
},
{
glyphname = napostrophe;
lastChange = "2014-11-10 22:19:09 +0100";
layers = (
{
layerId = "6959900B-8A08-4E04-B0F8-C63132552E7A";
name = "Bold Extended Italic";
paths = (
{
closed = 1;
nodes = (
"73 532 LINE",
"60 452 LINE",
"137 432 LINE",
"68 0 LINE",
"209 0 LINE",
"238 171 LINE SMOOTH",
"247 223 OFFCURVE",
"316 427 OFFCURVE",
"404 427 CURVE SMOOTH",
"432 427 OFFCURVE",
"442 406 OFFCURVE",
"442 378 CURVE SMOOTH",
"442 367 OFFCURVE",
"440 355 OFFCURVE",
"438 342 CURVE SMOOTH",
"383 0 LINE",
"604 10 LINE",
"617 90 LINE",
"542 105 LINE",
"585 370 LINE SMOOTH",
"588 390 OFFCURVE",
"590 410 OFFCURVE",
"590 428 CURVE SMOOTH",
"590 500 OFFCURVE",
"559 550 OFFCURVE",
"480 550 CURVE SMOOTH",
"349 550 OFFCURVE",
"266 390 OFFCURVE",
"261 380 CURVE",
"295 540 LINE"
);
},
{
closed = 1;
nodes = (
"76 573 LINE",
"124 616 OFFCURVE",
"214 701 OFFCURVE",
"214 787 CURVE SMOOTH",
"214 827 OFFCURVE",
"194 852 OFFCURVE",
"154 852 CURVE SMOOTH",
"114 852 OFFCURVE",
"75 822 OFFCURVE",
"75 772 CURVE SMOOTH",
"75 744 OFFCURVE",
"87 732 OFFCURVE",
"87 713 CURVE SMOOTH",
"87 679 OFFCURVE",
"56 654 OFFCURVE",
"26 626 CURVE"
);
}
);
width = 656;
}
);
leftKerningGroup = n;
rightKerningGroup = n;
unicode = 0149;
},
{
glyphname = ncommaaccent;
lastChange = "2014-11-10 22:19:09 +0100";
layers = (
{
layerId = "6959900B-8A08-4E04-B0F8-C63132552E7A";
name = "Bold Extended Italic";
paths = (
{
closed = 1;
nodes = (
"57 532 LINE",
"44 452 LINE",
"121 432 LINE",
"52 0 LINE",
"193 0 LINE",
"222 171 LINE",
"228 223 OFFCURVE",
"300 427 OFFCURVE",
"388 427 CURVE SMOOTH",
"416 427 OFFCURVE",
"426 406 OFFCURVE",
"426 378 CURVE SMOOTH",
"426 367 OFFCURVE",
"424 355 OFFCURVE",
"422 342 CURVE SMOOTH",
"367 0 LINE",
"588 10 LINE",
"601 90 LINE",
"526 105 LINE",
"569 370 LINE SMOOTH",
"572 390 OFFCURVE",
"574 410 OFFCURVE",
"574 428 CURVE SMOOTH",
"574 500 OFFCURVE",
"543 550 OFFCURVE",
"464 550 CURVE SMOOTH",
"333 550 OFFCURVE",
"250 390 OFFCURVE",
"245 380 CURVE",
"279 540 LINE"
);
},
{
closed = 1;
nodes = (
"192 -329 LINE",
"240 -286 OFFCURVE",
"330 -201 OFFCURVE",
"330 -115 CURVE SMOOTH",
"330 -75 OFFCURVE",
"310 -50 OFFCURVE",
"270 -50 CURVE SMOOTH",
"230 -50 OFFCURVE",
"191 -80 OFFCURVE",
"191 -130 CURVE SMOOTH",
"191 -158 OFFCURVE",
"203 -170 OFFCURVE",
"203 -189 CURVE SMOOTH",
"203 -223 OFFCURVE",
"172 -248 OFFCURVE",
"142 -276 CURVE"
);
}
);
width = 640;
}
);
leftKerningGroup = n;
rightKerningGroup = n;
unicode = 0146;
},
{
glyphname = eng;
lastChange = "2014-11-10 22:19:09 +0100";
layers = (
{
layerId = "6959900B-8A08-4E04-B0F8-C63132552E7A";
name = "Bold Extended Italic";
paths = (
{
closed = 1;
nodes = (
"366 -16 LINE SMOOTH",
"351 -107 OFFCURVE",
"333 -145 OFFCURVE",
"264 -145 CURVE SMOOTH",
"236 -145 OFFCURVE",
"212 -142 OFFCURVE",
"201 -142 CURVE",
"181 -230 LINE",
"181 -230 OFFCURVE",
"238 -245 OFFCURVE",
"281 -245 CURVE SMOOTH",
"405 -245 OFFCURVE",
"482 -168 OFFCURVE",
"502 -43 CURVE SMOOTH",
"569 370 LINE SMOOTH",
"572 390 OFFCURVE",
"574 410 OFFCURVE",
"574 428 CURVE SMOOTH",
"574 500 OFFCURVE",
"543 550 OFFCURVE",
"464 550 CURVE SMOOTH",
"333 550 OFFCURVE",
"250 390 OFFCURVE",
"245 380 CURVE",
"279 540 LINE",
"57 532 LINE",
"44 452 LINE",
"121 432 LINE",
"52 0 LINE",
"193 0 LINE",
"222 171 LINE",
"228 223 OFFCURVE",
"300 427 OFFCURVE",
"388 427 CURVE SMOOTH",
"416 427 OFFCURVE",
"426 406 OFFCURVE",
"426 378 CURVE SMOOTH",
"426 367 OFFCURVE",
"423 339 OFFCURVE",
"421 326 CURVE SMOOTH"
);
}
);
width = 643;
}
);
leftKerningGroup = n;
rightKerningGroup = j;
unicode = 014B;
},
{
glyphname = ntilde;
lastChange = "2014-11-10 22:19:09 +0100";
layers = (
{
layerId = "6959900B-8A08-4E04-B0F8-C63132552E7A";
name = "Bold Extended Italic";
paths = (
{
closed = 1;
nodes = (
"57 532 LINE",
"44 452 LINE",
"121 432 LINE",
"52 0 LINE",
"193 0 LINE",
"222 171 LINE",
"228 223 OFFCURVE",
"300 427 OFFCURVE",
"388 427 CURVE SMOOTH",
"416 427 OFFCURVE",
"426 406 OFFCURVE",
"426 378 CURVE SMOOTH",
"426 367 OFFCURVE",
"424 355 OFFCURVE",
"422 342 CURVE SMOOTH",
"367 0 LINE",
"588 10 LINE",
"601 90 LINE",
"526 105 LINE",
"569 370 LINE SMOOTH",
"572 390 OFFCURVE",
"574 410 OFFCURVE",
"574 428 CURVE SMOOTH",
"574 500 OFFCURVE",
"543 550 OFFCURVE",
"464 550 CURVE SMOOTH",
"333 550 OFFCURVE",
"250 390 OFFCURVE",
"245 380 CURVE",
"279 540 LINE"
);
},
{
closed = 1;
nodes = (
"205 630 LINE",
"205 630 OFFCURVE",
"242 671 OFFCURVE",
"283 671 CURVE SMOOTH",
"341 671 OFFCURVE",
"371 627 OFFCURVE",
"439 627 CURVE SMOOTH",
"518 627 OFFCURVE",
"577 736 OFFCURVE",
"577 736 CURVE",
"532 782 LINE",
"532 782 OFFCURVE",
"497 740 OFFCURVE",
"459 740 CURVE SMOOTH",
"401 740 OFFCURVE",
"373 786 OFFCURVE",
"305 786 CURVE SMOOTH",
"225 786 OFFCURVE",
"167 676 OFFCURVE",
"167 676 CURVE"
);
}
);
width = 640;
}
);
leftKerningGroup = n;
rightKerningGroup = n;
unicode = 00F1;
},
{
glyphname = o;
lastChange = "2014-11-10 22:19:09 +0100";
layers = (
{
layerId = "6959900B-8A08-4E04-B0F8-C63132552E7A";
name = "Bold Extended Italic";
paths = (
{
closed = 1;
nodes = (
"425 -10 OFFCURVE",
"548 127 OFFCURVE",
"548 339 CURVE SMOOTH",
"548 469 OFFCURVE",
"470 550 OFFCURVE",
"332 550 CURVE SMOOTH",
"151 550 OFFCURVE",
"30 412 OFFCURVE",
"30 200 CURVE SMOOTH",
"30 66 OFFCURVE",
"109 -10 OFFCURVE",
"244 -10 CURVE SMOOTH"
);
},
{
closed = 1;
nodes = (
"398 247 OFFCURVE",
"369 110 OFFCURVE",
"261 110 CURVE SMOOTH",
"205 110 OFFCURVE",
"180 145 OFFCURVE",
"180 208 CURVE SMOOTH",
"180 329 OFFCURVE",
"231 430 OFFCURVE",
"315 430 CURVE SMOOTH",
"365 430 OFFCURVE",
"396 402 OFFCURVE",
"398 345 CURVE"
);
}
);
width = 579;
}
);
leftKerningGroup = o;
rightKerningGroup = o;
unicode = 006F;
},
{
glyphname = obreve;
lastChange = "2014-11-10 22:19:09 +0100";
layers = (
{
components = (
{
name = o;
transform = "{1, 0, 0, 1, 0, 0}";
},
{
name = breve;
transform = "{1, 0, 0, 1, 131, 16}";
}
);
layerId = "6959900B-8A08-4E04-B0F8-C63132552E7A";
name = "Bold Extended Italic";
paths = (
{
closed = 0;
nodes = (
"268 726 LINE"
);
}
);
width = 579;
}
);
leftKerningGroup = o;
rightKerningGroup = o;
unicode = 014F;
},
{
glyphname = ocircumflex;
lastChange = "2014-11-10 22:19:09 +0100";
layers = (
{
layerId = "6959900B-8A08-4E04-B0F8-C63132552E7A";
name = "Bold Extended Italic";
paths = (
{
closed = 1;
nodes = (
"417 -10 OFFCURVE",
"546 134 OFFCURVE",
"546 354 CURVE SMOOTH",
"546 475 OFFCURVE",
"473 550 OFFCURVE",
"340 550 CURVE SMOOTH",
"155 550 OFFCURVE",
"28 405 OFFCURVE",
"28 185 CURVE SMOOTH",
"28 60 OFFCURVE",
"102 -10 OFFCURVE",
"232 -10 CURVE SMOOTH"
);
},
{
closed = 1;
nodes = (
"398 210 OFFCURVE",
"340 105 OFFCURVE",
"253 105 CURVE SMOOTH",
"203 105 OFFCURVE",
"176 135 OFFCURVE",
"176 195 CURVE SMOOTH",
"176 322 OFFCURVE",
"232 435 OFFCURVE",
"319 435 CURVE SMOOTH",
"369 435 OFFCURVE",
"398 407 OFFCURVE",
"398 345 CURVE SMOOTH"
);
},
{
closed = 1;
nodes = (
"357 708 LINE",
"484 608 LINE",
"540 673 LINE",
"410 817 LINE",
"323 810 LINE",
"151 673 LINE",
"193 608 LINE"
);
}
);
width = 574;
}
);
leftKerningGroup = o;
rightKerningGroup = o;
unicode = 00F4;
},
{
glyphname = omacron;
lastChange = "2014-11-10 22:19:09 +0100";
layers = (
{
layerId = "6959900B-8A08-4E04-B0F8-C63132552E7A";
name = "Bold Extended Italic";
paths = (
{
closed = 1;
nodes = (
"417 -10 OFFCURVE",
"546 134 OFFCURVE",
"546 354 CURVE SMOOTH",
"546 475 OFFCURVE",
"473 550 OFFCURVE",
"340 550 CURVE SMOOTH",
"155 550 OFFCURVE",
"28 405 OFFCURVE",
"28 185 CURVE SMOOTH",
"28 60 OFFCURVE",
"102 -10 OFFCURVE",
"232 -10 CURVE SMOOTH"
);
},
{
closed = 1;
nodes = (
"398 210 OFFCURVE",
"340 105 OFFCURVE",
"253 105 CURVE SMOOTH",
"203 105 OFFCURVE",
"176 135 OFFCURVE",
"176 195 CURVE SMOOTH",
"176 322 OFFCURVE",
"232 435 OFFCURVE",
"319 435 CURVE SMOOTH",
"369 435 OFFCURVE",
"398 407 OFFCURVE",
"398 345 CURVE SMOOTH"
);
},
{
closed = 1;
nodes = (
"208 642 LINE",
"499 642 LINE",
"517 747 LINE",
"226 747 LINE"
);
}
);
width = 574;
}
);
leftKerningGroup = o;
rightKerningGroup = o;
unicode = 014D;
},
{
glyphname = oslash;
lastChange = "2014-11-10 22:19:09 +0100";
layers = (
{
layerId = "6959900B-8A08-4E04-B0F8-C63132552E7A";
name = "Bold Extended Italic";
paths = (
{
closed = 1;
nodes = (
"160 550 OFFCURVE",
"33 405 OFFCURVE",
"33 185 CURVE SMOOTH",
"33 127 OFFCURVE",
"49 80 OFFCURVE",
"80 47 CURVE",
"-10 -75 LINE",
"56 -117 LINE",
"146 5 LINE",
"173 -4 OFFCURVE",
"203 -10 OFFCURVE",
"238 -10 CURVE SMOOTH",
"424 -10 OFFCURVE",
"553 135 OFFCURVE",
"553 357 CURVE SMOOTH",
"553 413 OFFCURVE",
"536 458 OFFCURVE",
"505 492 CURVE",
"586 601 LINE",
"519 643 LINE",
"439 534 LINE",
"411 544 OFFCURVE",
"380 550 OFFCURVE",
"344 550 CURVE SMOOTH"
);
},
{
closed = 1;
nodes = (
"246 105 OFFCURVE",
"234 107 OFFCURVE",
"224 111 CURVE",
"401 350 LINE",
"401 341 OFFCURVE",
"402 332 OFFCURVE",
"402 323 CURVE SMOOTH",
"402 197 OFFCURVE",
"341 105 OFFCURVE",
"259 105 CURVE SMOOTH"
);
},
{
closed = 1;
nodes = (
"338 435 OFFCURVE",
"350 432 OFFCURVE",
"361 428 CURVE",
"185 190 LINE",
"184 196 OFFCURVE",
"184 202 OFFCURVE",
"184 209 CURVE SMOOTH",
"184 328 OFFCURVE",
"239 435 OFFCURVE",
"325 435 CURVE SMOOTH"
);
}
);
width = 586;
}
);
leftKerningGroup = o;
rightKerningGroup = o;
unicode = 00F8;
},
{
glyphname = otilde;
lastChange = "2014-11-10 22:19:09 +0100";
layers = (
{
layerId = "6959900B-8A08-4E04-B0F8-C63132552E7A";
name = "Bold Extended Italic";
paths = (
{
closed = 1;
nodes = (
"417 -10 OFFCURVE",
"546 134 OFFCURVE",
"546 354 CURVE SMOOTH",
"546 475 OFFCURVE",
"473 550 OFFCURVE",
"340 550 CURVE SMOOTH",
"155 550 OFFCURVE",
"28 405 OFFCURVE",
"28 185 CURVE SMOOTH",
"28 60 OFFCURVE",
"102 -10 OFFCURVE",
"232 -10 CURVE SMOOTH"
);
},
{
closed = 1;
nodes = (
"398 210 OFFCURVE",
"340 105 OFFCURVE",
"253 105 CURVE SMOOTH",
"203 105 OFFCURVE",
"176 135 OFFCURVE",
"176 195 CURVE SMOOTH",
"176 322 OFFCURVE",
"232 435 OFFCURVE",
"319 435 CURVE SMOOTH",
"369 435 OFFCURVE",
"398 407 OFFCURVE",
"398 345 CURVE SMOOTH"
);
},
{
closed = 1;
nodes = (
"180 638 LINE",
"180 638 OFFCURVE",
"217 679 OFFCURVE",
"258 679 CURVE SMOOTH",
"316 679 OFFCURVE",
"355 635 OFFCURVE",
"423 635 CURVE SMOOTH",
"502 635 OFFCURVE",
"561 744 OFFCURVE",
"561 744 CURVE",
"516 783 LINE",
"516 783 OFFCURVE",
"481 741 OFFCURVE",
"443 741 CURVE SMOOTH",
"385 741 OFFCURVE",
"351 786 OFFCURVE",
"283 786 CURVE SMOOTH",
"203 786 OFFCURVE",
"142 679 OFFCURVE",
"142 679 CURVE"
);
}
);
width = 574;
}
);
leftKerningGroup = o;
rightKerningGroup = o;
unicode = 00F5;
},
{
glyphname = oe;
lastChange = "2014-11-10 22:19:09 +0100";
layers = (
{
layerId = "6959900B-8A08-4E04-B0F8-C63132552E7A";
name = "Bold Extended Italic";
paths = (
{
closed = 1;
nodes = (
"154 550 OFFCURVE",
"28 405 OFFCURVE",
"28 185 CURVE SMOOTH",
"28 55 OFFCURVE",
"105 -8 OFFCURVE",
"234 -8 CURVE SMOOTH",
"309 -8 OFFCURVE",
"376 20 OFFCURVE",
"426 69 CURVE",
"456 19 OFFCURVE",
"510 -10 OFFCURVE",
"581 -10 CURVE SMOOTH",
"688 -10 OFFCURVE",
"785 47 OFFCURVE",
"814 67 CURVE",
"772 141 LINE",
"751 134 OFFCURVE",
"681 105 OFFCURVE",
"622 105 CURVE SMOOTH",
"564 105 OFFCURVE",
"529 140 OFFCURVE",
"529 216 CURVE",
"749 218 OFFCURVE",
"871 292 OFFCURVE",
"871 407 CURVE SMOOTH",
"871 494 OFFCURVE",
"801 550 OFFCURVE",
"688 550 CURVE SMOOTH",
"618 550 OFFCURVE",
"554 520 OFFCURVE",
"504 468 CURVE",
"473 517 OFFCURVE",
"419 550 OFFCURVE",
"337 550 CURVE SMOOTH"
);
},
{
closed = 1;
nodes = (
"368 435 OFFCURVE",
"396 407 OFFCURVE",
"396 345 CURVE SMOOTH",
"396 210 OFFCURVE",
"339 105 OFFCURVE",
"252 105 CURVE SMOOTH",
"203 105 OFFCURVE",
"176 135 OFFCURVE",
"176 195 CURVE SMOOTH",
"176 322 OFFCURVE",
"231 434 OFFCURVE",
"318 435 CURVE SMOOTH"
);
},
{
closed = 1;
nodes = (
"708 437 OFFCURVE",
"725 418 OFFCURVE",
"725 389 CURVE SMOOTH",
"725 340 OFFCURVE",
"665 307 OFFCURVE",
"540 304 CURVE",
"561 380 OFFCURVE",
"610 437 OFFCURVE",
"669 437 CURVE SMOOTH"
);
}
);
width = 876;
}
);
leftKerningGroup = o;
rightKerningGroup = e;
unicode = 0153;
},
{
glyphname = p;
lastChange = "2014-11-10 22:19:09 +0100";
layers = (
{
layerId = "6959900B-8A08-4E04-B0F8-C63132552E7A";
name = "Bold Extended Italic";
paths = (
{
closed = 1;
nodes = (
"275 540 LINE",
"57 532 LINE",
"44 452 LINE",
"117 432 LINE",
"30 -125 LINE",
"-49 -150 LINE",
"-62 -230 LINE",
"235 -230 LINE",
"248 -150 LINE",
"171 -125 LINE",
"193 9 LINE",
"214 -1 OFFCURVE",
"244 -9 OFFCURVE",
"281 -9 CURVE SMOOTH",
"437 -9 OFFCURVE",
"589 129 OFFCURVE",
"589 365 CURVE SMOOTH",
"589 465 OFFCURVE",
"539 550 OFFCURVE",
"445 550 CURVE SMOOTH",
"313 550 OFFCURVE",
"241 400 OFFCURVE",
"235 388 CURVE"
);
},
{
closed = 1;
nodes = (
"225 193 LINE",
"225 193 OFFCURVE",
"283 430 OFFCURVE",
"384 430 CURVE SMOOTH",
"423 430 OFFCURVE",
"439 388 OFFCURVE",
"439 342 CURVE SMOOTH",
"439 206 OFFCURVE",
"363 100 OFFCURVE",
"281 100 CURVE SMOOTH",
"244 100 OFFCURVE",
"210 111 OFFCURVE",
"210 111 CURVE"
);
}
);
width = 616;
}
);
leftKerningGroup = p;
rightKerningGroup = o;
unicode = 0070;
},
{
glyphname = thorn;
lastChange = "2014-11-10 22:19:09 +0100";
layers = (
{
layerId = "6959900B-8A08-4E04-B0F8-C63132552E7A";
name = "Bold Extended Italic";
paths = (
{
closed = 1;
nodes = (
"279 540 LINE",
"317 775 LINE",
"94 767 LINE",
"81 687 LINE",
"157 667 LINE",
"31 -127 LINE",
"-47 -150 LINE",
"-60 -230 LINE",
"249 -230 LINE",
"262 -150 LINE",
"173 -127 LINE",
"194 4 LINE",
"209 -1 OFFCURVE",
"244 -9 OFFCURVE",
"271 -9 CURVE SMOOTH",
"430 -9 OFFCURVE",
"586 123 OFFCURVE",
"586 365 CURVE SMOOTH",
"586 465 OFFCURVE",
"538 550 OFFCURVE",
"443 550 CURVE SMOOTH",
"315 550 OFFCURVE",
"242 400 OFFCURVE",
"236 388 CURVE"
);
},
{
closed = 1;
nodes = (
"227 193 LINE",
"227 193 OFFCURVE",
"283 430 OFFCURVE",
"382 430 CURVE SMOOTH",
"421 430 OFFCURVE",
"438 387 OFFCURVE",
"438 342 CURVE SMOOTH",
"438 206 OFFCURVE",
"362 100 OFFCURVE",
"279 100 CURVE SMOOTH",
"244 100 OFFCURVE",
"212 111 OFFCURVE",
"212 111 CURVE"
);
}
);
width = 613;
}
);
leftKerningGroup = l;
rightKerningGroup = o;
unicode = 00FE;
},
{
glyphname = q;
lastChange = "2014-11-10 22:19:09 +0100";
layers = (
{
layerId = "6959900B-8A08-4E04-B0F8-C63132552E7A";
name = "Bold Extended Italic";
paths = (
{
closed = 1;
nodes = (
"463 -122 LINE",
"569 540 LINE",
"481 540 LINE",
"452 513 LINE",
"452 513 OFFCURVE",
"404 550 OFFCURVE",
"335 550 CURVE SMOOTH",
"183 550 OFFCURVE",
"31 419 OFFCURVE",
"31 171 CURVE SMOOTH",
"31 69 OFFCURVE",
"85 -10 OFFCURVE",
"172 -10 CURVE SMOOTH",
"297 -10 OFFCURVE",
"376 133 OFFCURVE",
"381 142 CURVE",
"343 0 LINE",
"322 -122 LINE",
"233 -150 LINE",
"220 -230 LINE",
"520 -230 LINE",
"533 -150 LINE"
);
},
{
closed = 1;
nodes = (
"396 347 LINE",
"396 347 OFFCURVE",
"328 107 OFFCURVE",
"228 107 CURVE SMOOTH",
"198 107 OFFCURVE",
"179 137 OFFCURVE",
"179 190 CURVE SMOOTH",
"179 334 OFFCURVE",
"245 442 OFFCURVE",
"337 442 CURVE SMOOTH",
"380 442 OFFCURVE",
"411 430 OFFCURVE",
"411 430 CURVE"
);
}
);
width = 590;
}
);
leftKerningGroup = o;
rightKerningGroup = q;
unicode = 0071;
},
{
glyphname = r;
lastChange = "2014-11-10 22:19:09 +0100";
layers = (
{
layerId = "6959900B-8A08-4E04-B0F8-C63132552E7A";
name = "Bold Extended Italic";
paths = (
{
closed = 1;
nodes = (
"358 342 LINE",
"458 342 LINE",
"497 540 LINE",
"497 540 OFFCURVE",
"469 550 OFFCURVE",
"441 550 CURVE SMOOTH",
"321 550 OFFCURVE",
"252 400 OFFCURVE",
"248 390 CURVE",
"279 540 LINE",
"57 532 LINE",
"45 460 LINE",
"122 440 LINE",
"53 0 LINE",
"193 0 LINE",
"222 181 LINE SMOOTH",
"239 286 OFFCURVE",
"310 407 OFFCURVE",
"358 420 CURVE"
);
}
);
width = 447;
}
);
leftKerningGroup = n;
rightKerningGroup = r;
unicode = 0072;
},
{
glyphname = rcommaaccent;
lastChange = "2014-11-10 22:19:09 +0100";
layers = (
{
layerId = "6959900B-8A08-4E04-B0F8-C63132552E7A";
name = "Bold Extended Italic";
paths = (
{
closed = 1;
nodes = (
"358 342 LINE",
"458 342 LINE",
"497 540 LINE",
"497 540 OFFCURVE",
"469 550 OFFCURVE",
"441 550 CURVE SMOOTH",
"321 550 OFFCURVE",
"252 400 OFFCURVE",
"248 390 CURVE",
"279 540 LINE",
"57 532 LINE",
"45 460 LINE",
"122 440 LINE",
"53 0 LINE",
"193 0 LINE",
"222 181 LINE SMOOTH",
"239 286 OFFCURVE",
"310 407 OFFCURVE",
"358 420 CURVE"
);
},
{
closed = 1;
nodes = (
"36 -329 LINE",
"84 -286 OFFCURVE",
"174 -201 OFFCURVE",
"174 -115 CURVE SMOOTH",
"174 -75 OFFCURVE",
"154 -50 OFFCURVE",
"114 -50 CURVE SMOOTH",
"74 -50 OFFCURVE",
"35 -80 OFFCURVE",
"35 -130 CURVE SMOOTH",
"35 -158 OFFCURVE",
"47 -170 OFFCURVE",
"47 -189 CURVE SMOOTH",
"47 -223 OFFCURVE",
"16 -248 OFFCURVE",
"-14 -276 CURVE"
);
}
);
width = 447;
}
);
leftKerningGroup = n;
rightKerningGroup = r;
unicode = 0157;
},
{
glyphname = s;
lastChange = "2014-11-10 22:19:09 +0100";
layers = (
{
layerId = "6959900B-8A08-4E04-B0F8-C63132552E7A";
name = "Bold Extended Italic";
paths = (
{
closed = 1;
nodes = (
"124 175 LINE",
"37 175 LINE",
"11 15 LINE",
"11 15 OFFCURVE",
"95 -10 OFFCURVE",
"185 -10 CURVE SMOOTH",
"327 -10 OFFCURVE",
"429 54 OFFCURVE",
"429 169 CURVE SMOOTH",
"429 312 OFFCURVE",
"212 311 OFFCURVE",
"212 393 CURVE SMOOTH",
"212 426 OFFCURVE",
"238 446 OFFCURVE",
"282 446 CURVE SMOOTH",
"319 446 OFFCURVE",
"340 437 OFFCURVE",
"340 437 CURVE",
"345 372 LINE",
"431 372 LINE",
"458 522 LINE",
"458 522 OFFCURVE",
"377 550 OFFCURVE",
"288 550 CURVE SMOOTH",
"163 550 OFFCURVE",
"65 497 OFFCURVE",
"65 380 CURVE SMOOTH",
"65 232 OFFCURVE",
"277 234 OFFCURVE",
"277 152 CURVE SMOOTH",
"277 114 OFFCURVE",
"245 94 OFFCURVE",
"192 94 CURVE SMOOTH",
"162 94 OFFCURVE",
"137 100 OFFCURVE",
"123 105 CURVE"
);
}
);
width = 487;
}
);
leftKerningGroup = s;
rightKerningGroup = s;
unicode = 0073;
},
{
glyphname = scedilla;
lastChange = "2014-11-10 22:19:09 +0100";
layers = (
{
layerId = "6959900B-8A08-4E04-B0F8-C63132552E7A";
name = "Bold Extended Italic";
paths = (
{
closed = 1;
nodes = (
"141 -168 OFFCURVE",
"109 -149 OFFCURVE",
"109 -149 CURVE",
"71 -204 LINE",
"71 -204 OFFCURVE",
"118 -234 OFFCURVE",
"186 -234 CURVE SMOOTH",
"255 -234 OFFCURVE",
"319 -190 OFFCURVE",
"319 -120 CURVE SMOOTH",
"319 -79 OFFCURVE",
"290 -53 OFFCURVE",
"248 -44 CURVE",
"254 -4 LINE",
"359 14 OFFCURVE",
"429 74 OFFCURVE",
"429 169 CURVE SMOOTH",
"429 312 OFFCURVE",
"212 311 OFFCURVE",
"212 393 CURVE SMOOTH",
"212 426 OFFCURVE",
"238 446 OFFCURVE",
"282 446 CURVE SMOOTH",
"319 446 OFFCURVE",
"340 437 OFFCURVE",
"340 437 CURVE",
"345 372 LINE",
"431 372 LINE",
"458 522 LINE",
"458 522 OFFCURVE",
"377 550 OFFCURVE",
"288 550 CURVE SMOOTH",
"163 550 OFFCURVE",
"65 497 OFFCURVE",
"65 380 CURVE SMOOTH",
"65 232 OFFCURVE",
"277 234 OFFCURVE",
"277 152 CURVE SMOOTH",
"277 114 OFFCURVE",
"245 94 OFFCURVE",
"192 94 CURVE SMOOTH",
"152 94 OFFCURVE",
"123 105 OFFCURVE",
"123 105 CURVE",
"124 175 LINE",
"37 175 LINE",
"11 15 LINE",
"11 15 OFFCURVE",
"86 -7 OFFCURVE",
"170 -10 CURVE",
"158 -87 LINE",
"203 -87 OFFCURVE",
"233 -100 OFFCURVE",
"233 -126 CURVE SMOOTH",
"233 -154 OFFCURVE",
"208 -168 OFFCURVE",
"178 -168 CURVE SMOOTH"
);
}
);
width = 487;
}
);
leftKerningGroup = s;
rightKerningGroup = s;
unicode = 015F;
},
{
glyphname = scircumflex;
lastChange = "2014-11-10 22:19:09 +0100";
layers = (
{
layerId = "6959900B-8A08-4E04-B0F8-C63132552E7A";
name = "Bold Extended Italic";
paths = (
{
closed = 1;
nodes = (
"126 175 LINE",
"39 175 LINE",
"13 15 LINE",
"13 15 OFFCURVE",
"97 -10 OFFCURVE",
"187 -10 CURVE SMOOTH",
"329 -10 OFFCURVE",
"431 54 OFFCURVE",
"431 169 CURVE SMOOTH",
"431 312 OFFCURVE",
"214 311 OFFCURVE",
"214 393 CURVE SMOOTH",
"214 426 OFFCURVE",
"240 446 OFFCURVE",
"284 446 CURVE SMOOTH",
"321 446 OFFCURVE",
"342 437 OFFCURVE",
"342 437 CURVE",
"347 372 LINE",
"433 372 LINE",
"460 522 LINE",
"460 522 OFFCURVE",
"379 550 OFFCURVE",
"290 550 CURVE SMOOTH",
"165 550 OFFCURVE",
"67 497 OFFCURVE",
"67 380 CURVE SMOOTH",
"67 232 OFFCURVE",
"279 234 OFFCURVE",
"279 152 CURVE SMOOTH",
"279 114 OFFCURVE",
"247 94 OFFCURVE",
"194 94 CURVE SMOOTH",
"154 94 OFFCURVE",
"125 105 OFFCURVE",
"125 105 CURVE"
);
},
{
closed = 1;
nodes = (
"311 719 LINE",
"438 619 LINE",
"494 684 LINE",
"364 828 LINE",
"277 821 LINE",
"105 684 LINE",
"147 619 LINE"
);
}
);
width = 489;
}
);
leftKerningGroup = s;
rightKerningGroup = s;
unicode = 015D;
},
{
glyphname = germandbls;
lastChange = "2014-11-10 22:19:09 +0100";
layers = (
{
layerId = "6959900B-8A08-4E04-B0F8-C63132552E7A";
name = "Bold Extended Italic";
paths = (
{
closed = 1;
nodes = (
"68 -48 LINE",
"58 -113 OFFCURVE",
"24 -142 OFFCURVE",
"-32 -142 CURVE SMOOTH",
"-93 -142 LINE",
"-110 -232 LINE",
"-110 -232 OFFCURVE",
"-55 -245 OFFCURVE",
"-12 -245 CURVE SMOOTH",
"121 -245 OFFCURVE",
"190 -158 OFFCURVE",
"211 -31 CURVE SMOOTH",
"306 559 LINE SMOOTH",
"318 634 OFFCURVE",
"363 677 OFFCURVE",
"423 677 CURVE SMOOTH",
"470 677 OFFCURVE",
"508 661 OFFCURVE",
"508 612 CURVE SMOOTH",
"508 523 OFFCURVE",
"359 516 OFFCURVE",
"359 369 CURVE SMOOTH",
"359 242 OFFCURVE",
"545 243 OFFCURVE",
"545 162 CURVE SMOOTH",
"545 128 OFFCURVE",
"520 95 OFFCURVE",
"458 95 CURVE SMOOTH",
"422 95 OFFCURVE",
"403 104 OFFCURVE",
"403 104 CURVE",
"400 173 LINE",
"315 173 LINE",
"291 14 LINE",
"291 14 OFFCURVE",
"366 -10 OFFCURVE",
"454 -10 CURVE SMOOTH",
"583 -10 OFFCURVE",
"696 74 OFFCURVE",
"696 193 CURVE SMOOTH",
"696 329 OFFCURVE",
"510 321 OFFCURVE",
"510 407 CURVE SMOOTH",
"510 482 OFFCURVE",
"655 508 OFFCURVE",
"655 644 CURVE SMOOTH",
"655 735 OFFCURVE",
"576 787 OFFCURVE",
"438 787 CURVE SMOOTH",
"291 787 OFFCURVE",
"185 695 OFFCURVE",
"164 556 CURVE SMOOTH",
"160 530 LINE",
"57 517 LINE",
"42 430 LINE",
"144 430 LINE"
);
}
);
width = 729;
}
);
leftKerningGroup = f;
unicode = 00DF;
},
{
glyphname = longs;
lastChange = "2014-11-10 22:19:09 +0100";
layers = (
{
layerId = "6959900B-8A08-4E04-B0F8-C63132552E7A";
name = "Bold Extended Italic";
paths = (
{
closed = 1;
nodes = (
"75 -48 LINE",
"65 -111 OFFCURVE",
"35 -144 OFFCURVE",
"-17 -144 CURVE SMOOTH",
"-86 -144 LINE",
"-105 -231 LINE",
"-105 -231 OFFCURVE",
"-43 -245 OFFCURVE",
"-3 -245 CURVE SMOOTH",
"127 -245 OFFCURVE",
"198 -158 OFFCURVE",
"218 -31 CURVE SMOOTH",
"318 595 LINE SMOOTH",
"326 645 OFFCURVE",
"348 677 OFFCURVE",
"406 677 CURVE SMOOTH",
"454 677 LINE",
"454 602 LINE",
"539 602 LINE",
"569 764 LINE",
"569 764 OFFCURVE",
"485 787 OFFCURVE",
"402 787 CURVE SMOOTH",
"235 787 OFFCURVE",
"191 683 OFFCURVE",
"167 530 CURVE SMOOTH"
);
}
);
width = 394;
}
);
leftKerningGroup = germandbls;
rightKerningGroup = f;
unicode = 017F;
},
{
glyphname = t;
lastChange = "2014-11-10 22:19:09 +0100";
layers = (
{
layerId = "6959900B-8A08-4E04-B0F8-C63132552E7A";
name = "Bold Extended Italic";
paths = (
{
closed = 1;
nodes = (
"257 -10 OFFCURVE",
"342 33 OFFCURVE",
"369 50 CURVE",
"347 122 LINE",
"347 122 OFFCURVE",
"295 102 OFFCURVE",
"266 102 CURVE SMOOTH",
"237 102 OFFCURVE",
"224 119 OFFCURVE",
"224 151 CURVE SMOOTH",
"224 165 OFFCURVE",
"225 178 OFFCURVE",
"229 200 CURVE SMOOTH",
"264 417 LINE",
"398 417 LINE",
"415 525 LINE",
"281 525 LINE",
"308 690 LINE",
"162 662 LINE",
"140 525 LINE",
"48 512 LINE",
"33 417 LINE",
"123 417 LINE",
"86 181 LINE SMOOTH",
"82 159 OFFCURVE",
"81 139 OFFCURVE",
"81 121 CURVE SMOOTH",
"81 35 OFFCURVE",
"117 -10 OFFCURVE",
"198 -10 CURVE SMOOTH"
);
}
);
width = 404;
}
);
leftKerningGroup = t;
rightKerningGroup = t;
unicode = 0074;
},
{
glyphname = tbar;
lastChange = "2014-11-10 22:19:09 +0100";
layers = (
{
layerId = "6959900B-8A08-4E04-B0F8-C63132552E7A";
name = "Bold Extended Italic";
paths = (
{
closed = 1;
nodes = (
"3 227 LINE",
"94 227 LINE",
"87 181 LINE SMOOTH",
"83 159 OFFCURVE",
"82 139 OFFCURVE",
"82 121 CURVE SMOOTH",
"82 35 OFFCURVE",
"118 -10 OFFCURVE",
"199 -10 CURVE SMOOTH",
"258 -10 OFFCURVE",
"343 33 OFFCURVE",
"370 50 CURVE",
"348 122 LINE",
"348 122 OFFCURVE",
"296 102 OFFCURVE",
"267 102 CURVE SMOOTH",
"238 102 OFFCURVE",
"225 119 OFFCURVE",
"225 151 CURVE SMOOTH",
"225 165 OFFCURVE",
"226 178 OFFCURVE",
"230 200 CURVE SMOOTH",
"234 227 LINE",
"367 227 LINE",
"384 332 LINE",
"251 332 LINE",
"265 417 LINE",
"399 417 LINE",
"416 525 LINE",
"282 525 LINE",
"309 690 LINE",
"163 662 LINE",
"141 525 LINE",
"49 512 LINE",
"34 417 LINE",
"124 417 LINE",
"110 332 LINE",
"20 332 LINE"
);
}
);
width = 405;
}
);
leftKerningGroup = t;
rightKerningGroup = t;
unicode = 0167;
},
{
glyphname = tcaron;
lastChange = "2014-11-10 22:19:09 +0100";
layers = (
{
components = (
{
name = t;
transform = "{1, 0, 0, 1, 0, 0}";
},
{
name = caron.x;
transform = "{1, 0, 0, 1, 298, 66}";
}
);
layerId = "6959900B-8A08-4E04-B0F8-C63132552E7A";
name = "Bold Extended Italic";
paths = (
{
closed = 0;
nodes = (
"218 472 LINE"
);
}
);
width = 438;
}
);
leftKerningGroup = t;
unicode = 0165;
},
{
glyphname = tcedilla;
lastChange = "2014-11-10 22:19:09 +0100";
layers = (
{
layerId = "6959900B-8A08-4E04-B0F8-C63132552E7A";
name = "Bold Extended Italic";
paths = (
{
closed = 1;
nodes = (
"119 -168 OFFCURVE",
"87 -149 OFFCURVE",
"87 -149 CURVE",
"49 -204 LINE",
"49 -204 OFFCURVE",
"96 -234 OFFCURVE",
"164 -234 CURVE SMOOTH",
"233 -234 OFFCURVE",
"297 -190 OFFCURVE",
"297 -120 CURVE SMOOTH",
"297 -79 OFFCURVE",
"268 -53 OFFCURVE",
"226 -44 CURVE",
"232 -6 LINE",
"286 4 OFFCURVE",
"347 36 OFFCURVE",
"369 50 CURVE",
"347 122 LINE",
"347 122 OFFCURVE",
"295 102 OFFCURVE",
"266 102 CURVE SMOOTH",
"237 102 OFFCURVE",
"224 119 OFFCURVE",
"224 151 CURVE SMOOTH",
"224 165 OFFCURVE",
"225 178 OFFCURVE",
"229 200 CURVE SMOOTH",
"264 417 LINE",
"398 417 LINE",
"415 525 LINE",
"281 525 LINE",
"308 690 LINE",
"162 662 LINE",
"140 525 LINE",
"48 512 LINE",
"33 417 LINE",
"123 417 LINE",
"86 181 LINE SMOOTH",
"82 159 OFFCURVE",
"81 139 OFFCURVE",
"81 121 CURVE SMOOTH",
"81 54 OFFCURVE",
"102 12 OFFCURVE",
"149 -3 CURVE",
"136 -87 LINE",
"181 -87 OFFCURVE",
"211 -100 OFFCURVE",
"211 -126 CURVE SMOOTH",
"211 -154 OFFCURVE",
"186 -168 OFFCURVE",
"156 -168 CURVE SMOOTH"
);
}
);
width = 404;
}
);
leftKerningGroup = t;
rightKerningGroup = t;
unicode = 0163;
},
{
glyphname = u;
lastChange = "2014-11-10 22:19:09 +0100";
layers = (
{
layerId = "6959900B-8A08-4E04-B0F8-C63132552E7A";
name = "Bold Extended Italic";
paths = (
{
closed = 1;
nodes = (
"362 0 LINE",
"583 10 LINE",
"596 89 LINE",
"520 104 LINE",
"589 540 LINE",
"448 540 LINE",
"415 342 LINE",
"403 297 OFFCURVE",
"343 112 OFFCURVE",
"254 112 CURVE SMOOTH",
"225 112 OFFCURVE",
"216 133 OFFCURVE",
"216 162 CURVE SMOOTH",
"216 184 OFFCURVE",
"222 220 OFFCURVE",
"274 540 CURVE",
"52 532 LINE",
"39 452 LINE",
"116 432 LINE",
"76 190 OFFCURVE",
"68 145 OFFCURVE",
"68 111 CURVE SMOOTH",
"68 39 OFFCURVE",
"98 -10 OFFCURVE",
"178 -10 CURVE SMOOTH",
"309 -10 OFFCURVE",
"391 149 OFFCURVE",
"396 159 CURVE"
);
}
);
width = 640;
}
);
leftKerningGroup = u;
rightKerningGroup = u;
unicode = 0075;
},
{
glyphname = ucircumflex;
lastChange = "2014-11-10 22:19:09 +0100";
layers = (
{
layerId = "6959900B-8A08-4E04-B0F8-C63132552E7A";
name = "Bold Extended Italic";
paths = (
{
closed = 1;
nodes = (
"362 0 LINE",
"583 10 LINE",
"596 89 LINE",
"520 104 LINE",
"589 540 LINE",
"448 540 LINE",
"415 342 LINE",
"403 297 OFFCURVE",
"343 112 OFFCURVE",
"254 112 CURVE SMOOTH",
"225 112 OFFCURVE",
"216 133 OFFCURVE",
"216 162 CURVE SMOOTH",
"216 173 OFFCURVE",
"217 184 OFFCURVE",
"219 197 CURVE SMOOTH",
"274 540 LINE",
"52 532 LINE",
"39 452 LINE",
"116 432 LINE",
"73 170 LINE SMOOTH",
"69 149 OFFCURVE",
"68 129 OFFCURVE",
"68 111 CURVE SMOOTH",
"68 39 OFFCURVE",
"98 -10 OFFCURVE",
"178 -10 CURVE SMOOTH",
"309 -10 OFFCURVE",
"391 149 OFFCURVE",
"396 159 CURVE"
);
},
{
closed = 1;
nodes = (
"356 719 LINE",
"483 619 LINE",
"539 684 LINE",
"409 828 LINE",
"322 821 LINE",
"150 684 LINE",
"192 619 LINE"
);
}
);
width = 640;
}
);
leftKerningGroup = u;
rightKerningGroup = u;
unicode = 00FB;
},
{
glyphname = umacron;
lastChange = "2014-11-10 22:19:09 +0100";
layers = (
{
layerId = "6959900B-8A08-4E04-B0F8-C63132552E7A";
name = "Bold Extended Italic";
paths = (
{
closed = 1;
nodes = (
"362 0 LINE",
"583 10 LINE",
"596 89 LINE",
"520 104 LINE",
"589 540 LINE",
"448 540 LINE",
"415 342 LINE",
"403 297 OFFCURVE",
"343 112 OFFCURVE",
"254 112 CURVE SMOOTH",
"225 112 OFFCURVE",
"216 133 OFFCURVE",
"216 162 CURVE SMOOTH",
"216 173 OFFCURVE",
"217 184 OFFCURVE",
"219 197 CURVE SMOOTH",
"274 540 LINE",
"52 532 LINE",
"39 452 LINE",
"116 432 LINE",
"73 170 LINE SMOOTH",
"69 149 OFFCURVE",
"68 129 OFFCURVE",
"68 111 CURVE SMOOTH",
"68 39 OFFCURVE",
"98 -10 OFFCURVE",
"178 -10 CURVE SMOOTH",
"309 -10 OFFCURVE",
"391 149 OFFCURVE",
"396 159 CURVE"
);
},
{
closed = 1;
nodes = (
"216 642 LINE",
"507 642 LINE",
"525 747 LINE",
"234 747 LINE"
);
}
);
width = 640;
}
);
leftKerningGroup = u;
rightKerningGroup = u;
unicode = 016B;
},
{
glyphname = uogonek;
lastChange = "2014-11-10 22:19:09 +0100";
layers = (
{
layerId = "6959900B-8A08-4E04-B0F8-C63132552E7A";
name = "Bold Extended Italic";
paths = (
{
closed = 1;
nodes = (
"362 0 LINE",
"459 4 LINE",
"425 -13 OFFCURVE",
"330 -68 OFFCURVE",
"330 -152 CURVE SMOOTH",
"330 -206 OFFCURVE",
"371 -235 OFFCURVE",
"423 -235 CURVE SMOOTH",
"472 -235 OFFCURVE",
"525 -211 OFFCURVE",
"525 -211 CURVE",
"520 -140 LINE",
"520 -140 OFFCURVE",
"497 -147 OFFCURVE",
"480 -147 CURVE SMOOTH",
"459 -147 OFFCURVE",
"446 -135 OFFCURVE",
"446 -117 CURVE SMOOTH",
"446 -62 OFFCURVE",
"576 6 OFFCURVE",
"583 10 CURVE",
"596 89 LINE",
"520 104 LINE",
"589 540 LINE",
"448 540 LINE",
"415 342 LINE SMOOTH",
"407 296 OFFCURVE",
"343 112 OFFCURVE",
"254 112 CURVE SMOOTH",
"225 112 OFFCURVE",
"216 133 OFFCURVE",
"216 162 CURVE SMOOTH",
"216 173 OFFCURVE",
"217 184 OFFCURVE",
"219 197 CURVE SMOOTH",
"274 540 LINE",
"52 532 LINE",
"39 452 LINE",
"116 432 LINE",
"73 170 LINE SMOOTH",
"69 149 OFFCURVE",
"68 129 OFFCURVE",
"68 111 CURVE SMOOTH",
"68 39 OFFCURVE",
"98 -10 OFFCURVE",
"178 -10 CURVE SMOOTH",
"309 -10 OFFCURVE",
"391 149 OFFCURVE",
"396 159 CURVE"
);
}
);
width = 640;
}
);
leftKerningGroup = u;
rightKerningGroup = u;
unicode = 0173;
},
{
glyphname = uring;
lastChange = "2014-11-10 22:19:09 +0100";
layers = (
{
layerId = "6959900B-8A08-4E04-B0F8-C63132552E7A";
name = "Bold Extended Italic";
paths = (
{
closed = 1;
nodes = (
"362 0 LINE",
"583 10 LINE",
"596 89 LINE",
"520 104 LINE",
"589 540 LINE",
"448 540 LINE",
"415 342 LINE",
"403 297 OFFCURVE",
"343 112 OFFCURVE",
"254 112 CURVE SMOOTH",
"225 112 OFFCURVE",
"216 133 OFFCURVE",
"216 162 CURVE SMOOTH",
"216 173 OFFCURVE",
"217 184 OFFCURVE",
"219 197 CURVE SMOOTH",
"274 540 LINE",
"52 532 LINE",
"39 452 LINE",
"116 432 LINE",
"73 170 LINE SMOOTH",
"69 149 OFFCURVE",
"68 129 OFFCURVE",
"68 111 CURVE SMOOTH",
"68 39 OFFCURVE",
"98 -10 OFFCURVE",
"178 -10 CURVE SMOOTH",
"309 -10 OFFCURVE",
"391 149 OFFCURVE",
"396 159 CURVE"
);
},
{
closed = 1;
nodes = (
"250 638 OFFCURVE",
"298 597 OFFCURVE",
"361 597 CURVE SMOOTH",
"449 597 OFFCURVE",
"512 672 OFFCURVE",
"512 754 CURVE SMOOTH",
"512 820 OFFCURVE",
"461 857 OFFCURVE",
"399 857 CURVE SMOOTH",
"311 857 OFFCURVE",
"250 784 OFFCURVE",
"250 701 CURVE SMOOTH"
);
},
{
closed = 1;
nodes = (
"417 785 OFFCURVE",
"429 770 OFFCURVE",
"429 742 CURVE SMOOTH",
"429 707 OFFCURVE",
"408 670 OFFCURVE",
"373 670 CURVE SMOOTH",
"346 670 OFFCURVE",
"333 685 OFFCURVE",
"333 713 CURVE SMOOTH",
"333 748 OFFCURVE",
"354 785 OFFCURVE",
"389 785 CURVE SMOOTH"
);
}
);
width = 640;
}
);
leftKerningGroup = u;
rightKerningGroup = u;
unicode = 016F;
},
{
glyphname = utilde;
lastChange = "2014-11-10 22:19:09 +0100";
layers = (
{
layerId = "6959900B-8A08-4E04-B0F8-C63132552E7A";
name = "Bold Extended Italic";
paths = (
{
closed = 1;
nodes = (
"362 0 LINE",
"583 10 LINE",
"596 89 LINE",
"520 104 LINE",
"589 540 LINE",
"448 540 LINE",
"415 342 LINE",
"403 297 OFFCURVE",
"343 112 OFFCURVE",
"254 112 CURVE SMOOTH",
"225 112 OFFCURVE",
"216 133 OFFCURVE",
"216 162 CURVE SMOOTH",
"216 173 OFFCURVE",
"217 184 OFFCURVE",
"219 197 CURVE SMOOTH",
"274 540 LINE",
"52 532 LINE",
"39 452 LINE",
"116 432 LINE",
"73 170 LINE SMOOTH",
"69 149 OFFCURVE",
"68 129 OFFCURVE",
"68 111 CURVE SMOOTH",
"68 39 OFFCURVE",
"98 -10 OFFCURVE",
"178 -10 CURVE SMOOTH",
"309 -10 OFFCURVE",
"391 149 OFFCURVE",
"396 159 CURVE"
);
},
{
closed = 1;
nodes = (
"201 630 LINE",
"201 630 OFFCURVE",
"238 671 OFFCURVE",
"279 671 CURVE SMOOTH",
"337 671 OFFCURVE",
"367 627 OFFCURVE",
"435 627 CURVE SMOOTH",
"514 627 OFFCURVE",
"573 736 OFFCURVE",
"573 736 CURVE",
"528 782 LINE",
"528 782 OFFCURVE",
"493 740 OFFCURVE",
"455 740 CURVE SMOOTH",
"397 740 OFFCURVE",
"369 786 OFFCURVE",
"301 786 CURVE SMOOTH",
"221 786 OFFCURVE",
"163 676 OFFCURVE",
"163 676 CURVE"
);
}
);
width = 640;
}
);
leftKerningGroup = u;
rightKerningGroup = u;
unicode = 0169;
},
{
glyphname = v;
lastChange = "2014-11-10 22:19:09 +0100";
layers = (
{
layerId = "6959900B-8A08-4E04-B0F8-C63132552E7A";
name = "Bold Extended Italic";
paths = (
{
closed = 1;
nodes = (
"258 229 LINE",
"204 540 LINE",
"14 532 LINE",
"2 452 LINE",
"70 435 LINE",
"161 0 LINE",
"323 0 LINE",
"541 439 LINE",
"590 455 LINE",
"604 540 LINE",
"352 532 LINE",
"339 452 LINE",
"400 437 LINE",
"266 144 LINE"
);
}
);
width = 564;
}
);
leftKerningGroup = v;
rightKerningGroup = v;
unicode = 0076;
},
{
glyphname = w;
lastChange = "2014-11-10 22:19:09 +0100";
layers = (
{
layerId = "6959900B-8A08-4E04-B0F8-C63132552E7A";
name = "Bold Extended Italic";
paths = (
{
closed = 1;
nodes = (
"510 542 LINE",
"394 526 LINE",
"253 165 LINE",
"212 540 LINE",
"22 532 LINE",
"9 452 LINE",
"73 439 LINE",
"142 0 LINE",
"290 0 LINE",
"411 300 LINE",
"453 0 LINE",
"602 0 LINE",
"804 442 LINE",
"846 455 LINE",
"860 540 LINE",
"618 532 LINE",
"605 452 LINE",
"669 437 LINE",
"559 165 LINE"
);
}
);
width = 822;
}
);
leftKerningGroup = v;
rightKerningGroup = v;
unicode = 0077;
},
{
glyphname = wcircumflex;
lastChange = "2014-11-10 22:19:09 +0100";
layers = (
{
layerId = "6959900B-8A08-4E04-B0F8-C63132552E7A";
name = "Bold Extended Italic";
paths = (
{
closed = 1;
nodes = (
"510 542 LINE",
"394 526 LINE",
"253 165 LINE",
"212 540 LINE",
"22 532 LINE",
"9 452 LINE",
"73 439 LINE",
"142 0 LINE",
"290 0 LINE",
"411 300 LINE",
"453 0 LINE",
"602 0 LINE",
"804 442 LINE",
"846 455 LINE",
"860 540 LINE",
"618 532 LINE",
"605 452 LINE",
"669 437 LINE",
"559 165 LINE"
);
},
{
closed = 1;
nodes = (
"501 719 LINE",
"628 619 LINE",
"684 684 LINE",
"554 828 LINE",
"467 821 LINE",
"295 684 LINE",
"337 619 LINE"
);
}
);
width = 822;
}
);
leftKerningGroup = v;
rightKerningGroup = v;
unicode = 0175;
},
{
glyphname = x;
lastChange = "2014-11-10 22:19:09 +0100";
layers = (
{
layerId = "6959900B-8A08-4E04-B0F8-C63132552E7A";
name = "Bold Extended Italic";
paths = (
{
closed = 1;
nodes = (
"420 535 LINE",
"292 363 LINE",
"213 540 LINE",
"47 532 LINE",
"34 452 LINE",
"105 437 LINE",
"190 275 LINE",
"54 103 LINE",
"-13 80 LINE",
"-26 0 LINE",
"128 0 LINE",
"255 179 LINE",
"339 -5 LINE",
"510 5 LINE",
"523 84 LINE",
"447 98 LINE",
"360 271 LINE",
"498 439 LINE",
"569 455 LINE",
"583 540 LINE"
);
}
);
width = 548;
}
);
leftKerningGroup = x;
rightKerningGroup = x;
unicode = 0078;
},
{
glyphname = y;
lastChange = "2014-11-10 22:19:09 +0100";
layers = (
{
layerId = "6959900B-8A08-4E04-B0F8-C63132552E7A";
name = "Bold Extended Italic";
paths = (
{
closed = 1;
nodes = (
"195 -28 LINE",
"159 -103 OFFCURVE",
"136 -125 OFFCURVE",
"68 -125 CURVE SMOOTH",
"33 -125 OFFCURVE",
"-7 -120 OFFCURVE",
"-6 -120 CURVE",
"-37 -219 LINE",
"-37 -219 OFFCURVE",
"31 -240 OFFCURVE",
"91 -240 CURVE SMOOTH",
"214 -240 OFFCURVE",
"263 -173 OFFCURVE",
"351 16 CURVE SMOOTH",
"550 439 LINE",
"599 455 LINE",
"615 540 LINE",
"363 532 LINE",
"350 452 LINE",
"412 438 LINE",
"289 152 LINE",
"284 214 LINE",
"222 540 LINE",
"29 532 LINE",
"16 452 LINE",
"85 435 LINE"
);
}
);
width = 563;
}
);
leftKerningGroup = y;
rightKerningGroup = y;
unicode = 0079;
},
{
glyphname = ycircumflex;
lastChange = "2014-11-10 22:19:09 +0100";
layers = (
{
layerId = "6959900B-8A08-4E04-B0F8-C63132552E7A";
name = "Bold Extended Italic";
paths = (
{
closed = 1;
nodes = (
"196 -28 LINE",
"162 -103 OFFCURVE",
"139 -125 OFFCURVE",
"71 -125 CURVE SMOOTH",
"36 -125 OFFCURVE",
"-3 -120 OFFCURVE",
"-3 -120 CURVE",
"-31 -220 LINE",
"-31 -220 OFFCURVE",
"36 -240 OFFCURVE",
"96 -240 CURVE SMOOTH",
"219 -240 OFFCURVE",
"267 -173 OFFCURVE",
"352 16 CURVE SMOOTH",
"543 439 LINE",
"592 455 LINE",
"606 540 LINE",
"355 532 LINE",
"343 452 LINE",
"405 438 LINE",
"287 152 LINE",
"281 214 LINE",
"213 540 LINE",
"21 532 LINE",
"9 452 LINE",
"78 435 LINE"
);
},
{
closed = 1;
nodes = (
"331 719 LINE",
"458 619 LINE",
"514 684 LINE",
"384 828 LINE",
"297 821 LINE",
"125 684 LINE",
"167 619 LINE"
);
}
);
width = 563;
}
);
leftKerningGroup = y;
rightKerningGroup = y;
unicode = 0177;
},
{
glyphname = z;
lastChange = "2014-11-10 22:19:09 +0100";
layers = (
{
layerId = "6959900B-8A08-4E04-B0F8-C63132552E7A";
name = "Bold Extended Italic";
paths = (
{
closed = 1;
nodes = (
"83 540 LINE",
"56 360 LINE",
"139 360 LINE",
"172 435 LINE",
"308 435 LINE",
"14 90 LINE",
"7 0 LINE",
"425 0 LINE",
"449 195 LINE",
"369 195 LINE",
"335 106 LINE",
"194 106 LINE",
"480 452 LINE",
"487 540 LINE"
);
}
);
width = 498;
}
);
leftKerningGroup = z;
rightKerningGroup = z;
unicode = 007A;
},
{
glyphname = fi;
lastChange = "2014-11-10 22:19:09 +0100";
layers = (
{
layerId = "6959900B-8A08-4E04-B0F8-C63132552E7A";
name = "Bold Extended Italic";
paths = (
{
closed = 1;
nodes = (
"70 -48 LINE SMOOTH",
"60 -111 OFFCURVE",
"30 -144 OFFCURVE",
"-22 -144 CURVE SMOOTH",
"-91 -144 LINE",
"-110 -231 LINE",
"-110 -231 OFFCURVE",
"-48 -245 OFFCURVE",
"-8 -245 CURVE SMOOTH",
"122 -245 OFFCURVE",
"193 -158 OFFCURVE",
"213 -31 CURVE SMOOTH",
"286 431 LINE",
"485 431 LINE",
"418 0 LINE",
"638 10 LINE",
"651 90 LINE",
"575 105 LINE",
"644 540 LINE",
"303 535 LINE",
"313 595 LINE SMOOTH",
"321 645 OFFCURVE",
"343 677 OFFCURVE",
"411 677 CURVE SMOOTH",
"521 677 LINE",
"521 602 LINE",
"638 602 LINE",
"668 764 LINE",
"668 764 OFFCURVE",
"500 787 OFFCURVE",
"407 787 CURVE SMOOTH",
"230 787 OFFCURVE",
"181 685 OFFCURVE",
"162 533 CURVE",
"70 518 LINE",
"56 430 LINE",
"145 430 LINE"
);
}
);
width = 695;
}
);
leftKerningGroup = f;
rightKerningGroup = i;
unicode = FB01;
},
{
glyphname = fl;
lastChange = "2014-11-10 22:19:09 +0100";
layers = (
{
layerId = "6959900B-8A08-4E04-B0F8-C63132552E7A";
name = "Bold Extended Italic";
paths = (
{
closed = 1;
nodes = (
"425 0 LINE",
"648 10 LINE",
"661 90 LINE",
"585 105 LINE",
"690 761 LINE",
"690 761 OFFCURVE",
"547 787 OFFCURVE",
"427 787 CURVE SMOOTH",
"240 787 OFFCURVE",
"181 684 OFFCURVE",
"162 530 CURVE",
"70 517 LINE",
"56 430 LINE",
"145 430 LINE",
"70 -48 LINE SMOOTH",
"60 -111 OFFCURVE",
"30 -144 OFFCURVE",
"-22 -144 CURVE SMOOTH",
"-91 -144 LINE",
"-110 -231 LINE",
"-110 -231 OFFCURVE",
"-48 -245 OFFCURVE",
"-8 -245 CURVE SMOOTH",
"122 -245 OFFCURVE",
"193 -158 OFFCURVE",
"213 -31 CURVE SMOOTH",
"286 430 LINE",
"408 430 LINE",
"426 530 LINE",
"303 530 LINE",
"313 595 LINE SMOOTH",
"321 645 OFFCURVE",
"353 677 OFFCURVE",
"411 677 CURVE SMOOTH",
"466 677 OFFCURVE",
"531 670 OFFCURVE",
"531 670 CURVE"
);
}
);
width = 700;
}
);
leftKerningGroup = f;
rightKerningGroup = l;
unicode = FB02;
},
{
glyphname = ordfeminine;
lastChange = "2014-11-10 22:19:09 +0100";
layers = (
{
layerId = "6959900B-8A08-4E04-B0F8-C63132552E7A";
name = "Bold Extended Italic";
paths = (
{
closed = 1;
nodes = (
"401 403 LINE",
"450 710 LINE",
"380 710 LINE",
"361 693 LINE",
"361 693 OFFCURVE",
"324 717 OFFCURVE",
"277 717 CURVE SMOOTH",
"165 717 OFFCURVE",
"58 624 OFFCURVE",
"58 448 CURVE SMOOTH",
"58 377 OFFCURVE",
"95 314 OFFCURVE",
"161 314 CURVE SMOOTH",
"253 314 OFFCURVE",
"312 425 OFFCURVE",
"314 429 CURVE",
"289 321 LINE",
"447 326 LINE",
"457 391 LINE"
);
},
{
closed = 1;
nodes = (
"320 571 LINE",
"320 571 OFFCURVE",
"272 402 OFFCURVE",
"203 402 CURVE SMOOTH",
"183 402 OFFCURVE",
"169 421 OFFCURVE",
"169 459 CURVE SMOOTH",
"169 564 OFFCURVE",
"219 635 OFFCURVE",
"278 635 CURVE SMOOTH",
"309 635 OFFCURVE",
"331 626 OFFCURVE",
"331 626 CURVE"
);
},
{
closed = 1;
nodes = (
"39 135 LINE",
"403 135 LINE",
"419 235 LINE",
"55 235 LINE"
);
}
);
width = 483;
}
);
unicode = 00AA;
},
{
glyphname = ordmasculine;
lastChange = "2014-11-10 22:19:09 +0100";
layers = (
{
layerId = "6959900B-8A08-4E04-B0F8-C63132552E7A";
name = "Bold Extended Italic";
paths = (
{
closed = 1;
nodes = (
"160 718 OFFCURVE",
"64 613 OFFCURVE",
"64 461 CURVE SMOOTH",
"64 364 OFFCURVE",
"124 314 OFFCURVE",
"227 314 CURVE SMOOTH",
"368 314 OFFCURVE",
"454 425 OFFCURVE",
"454 572 CURVE SMOOTH",
"454 664 OFFCURVE",
"398 718 OFFCURVE",
"297 718 CURVE SMOOTH"
);
},
{
closed = 1;
nodes = (
"317 627 OFFCURVE",
"336 602 OFFCURVE",
"336 559 CURVE SMOOTH",
"336 485 OFFCURVE",
"306 405 OFFCURVE",
"246 405 CURVE SMOOTH",
"206 405 OFFCURVE",
"182 426 OFFCURVE",
"182 471 CURVE SMOOTH",
"182 550 OFFCURVE",
"214 627 OFFCURVE",
"277 627 CURVE SMOOTH"
);
},
{
closed = 1;
nodes = (
"16 135 LINE",
"380 135 LINE",
"396 235 LINE",
"32 235 LINE"
);
}
);
width = 496;
}
);
unicode = 00BA;
},
{
glyphname = nsuperior;
lastChange = "2014-11-10 22:19:09 +0100";
layers = (
{
layerId = "6959900B-8A08-4E04-B0F8-C63132552E7A";
name = "Bold Extended Italic";
paths = (
{
closed = 1;
nodes = (
"84 705 LINE",
"74 646 LINE",
"131 631 LINE",
"79 320 LINE",
"186 320 LINE",
"207 446 LINE SMOOTH",
"213 484 OFFCURVE",
"266 627 OFFCURVE",
"330 627 CURVE SMOOTH",
"351 627 OFFCURVE",
"358 612 OFFCURVE",
"358 591 CURVE SMOOTH",
"358 583 OFFCURVE",
"357 574 OFFCURVE",
"355 565 CURVE SMOOTH",
"314 320 LINE",
"478 327 LINE",
"488 390 LINE",
"434 401 LINE",
"467 585 LINE SMOOTH",
"469 600 OFFCURVE",
"470 615 OFFCURVE",
"470 628 CURVE SMOOTH",
"470 681 OFFCURVE",
"447 718 OFFCURVE",
"386 718 CURVE SMOOTH",
"287 718 OFFCURVE",
"225 592 OFFCURVE",
"225 592 CURVE",
"250 711 LINE"
);
}
);
width = 514;
}
);
unicode = 207F;
},
{
glyphname = "Be-cy";
lastChange = "2014-11-10 22:19:09 +0100";
layers = (
{
layerId = "6959900B-8A08-4E04-B0F8-C63132552E7A";
name = "Bold Extended Italic";
paths = (
{
closed = 1;
nodes = (
"258 297 LINE",
"329 297 LINE",
"407 297 OFFCURVE",
"443 267 OFFCURVE",
"435 212 CURVE SMOOTH",
"428 162 OFFCURVE",
"385 120 OFFCURVE",
"317 120 CURVE SMOOTH",
"239 120 LINE",
"221 0 LINE",
"303 0 LINE SMOOTH",
"461 0 OFFCURVE",
"568 70 OFFCURVE",
"591 212 CURVE SMOOTH",
"610 342 OFFCURVE",
"518 402 OFFCURVE",
"382 402 CURVE SMOOTH",
"285 402 LINE"
);
},
{
closed = 1;
nodes = (
"333 705 LINE",
"109 700 LINE",
"96 617 LINE",
"165 588 LINE",
"89 112 LINE",
"11 85 LINE",
"-3 0 LINE",
"221 0 LINE",
"315 588 LINE",
"494 588 LINE",
"505 499 LINE",
"595 499 LINE",
"628 705 LINE"
);
}
);
width = 630;
}
);
leftKerningGroup = H;
unicode = 0411;
},
{
glyphname = "Ge-cy";
lastChange = "2014-11-10 22:19:09 +0100";
layers = (
{
layerId = "6959900B-8A08-4E04-B0F8-C63132552E7A";
name = "Bold Extended Italic";
paths = (
{
closed = 1;
nodes = (
"332 705 LINE",
"108 700 LINE",
"96 615 LINE",
"163 585 LINE",
"91 115 LINE",
"14 85 LINE",
"0 0 LINE",
"316 0 LINE",
"330 85 LINE",
"241 115 LINE",
"313 588 LINE",
"494 588 LINE",
"503 490 LINE",
"594 490 LINE",
"627 705 LINE"
);
}
);
width = 559;
}
);
leftKerningGroup = H;
rightKerningGroup = "Ge-cy";
unicode = 0413;
},
{
glyphname = "Gheupturn-cy";
lastChange = "2014-11-10 22:19:09 +0100";
layers = (
{
layerId = "6959900B-8A08-4E04-B0F8-C63132552E7A";
name = "Bold Extended Italic";
paths = (
{
closed = 1;
nodes = (
"557 900 LINE",
"474 705 LINE",
"332 705 LINE",
"108 700 LINE",
"96 615 LINE",
"163 585 LINE",
"91 115 LINE",
"14 85 LINE",
"0 0 LINE",
"336 0 LINE",
"350 85 LINE",
"241 115 LINE",
"313 588 LINE",
"599 588 LINE",
"649 900 LINE"
);
}
);
width = 544;
}
);
leftKerningGroup = H;
rightKerningGroup = "Ge-cy";
unicode = 0490;
},
{
glyphname = "De-cy";
lastChange = "2014-11-10 22:19:09 +0100";
layers = (
{
guideLines = (
{
position = "{489, 115}";
}
);
layerId = "6959900B-8A08-4E04-B0F8-C63132552E7A";
name = "Bold Extended Italic";
paths = (
{
closed = 1;
nodes = (
"685 100 LINE",
"571 115 LINE",
"646 585 LINE",
"723 615 LINE",
"737 705 LINE",
"356 705 LINE",
"337 585 LINE",
"496 585 LINE",
"421 120 LINE",
"90 120 LINE",
"-16 102 LINE",
"111 0 LINE",
"525 0 LINE"
);
},
{
closed = 1;
nodes = (
"552 -195 LINE",
"642 -195 LINE",
"685 100 LINE",
"525 0 LINE"
);
},
{
closed = 1;
nodes = (
"221 585 LINE",
"196 469 OFFCURVE",
"179 384 OFFCURVE",
"152 287 CURVE SMOOTH",
"117 159 OFFCURVE",
"57 126 OFFCURVE",
"-16 102 CURVE",
"143 86 LINE",
"224 123 OFFCURVE",
"238 178 OFFCURVE",
"267 288 CURVE SMOOTH",
"295 392 OFFCURVE",
"317 487 OFFCURVE",
"337 585 CURVE"
);
},
{
closed = 1;
nodes = (
"356 705 LINE",
"117 705 LINE",
"102 615 LINE",
"221 585 LINE",
"337 585 LINE"
);
},
{
closed = 1;
nodes = (
"-16 102 LINE",
"-62 -195 LINE",
"30 -195 LINE",
"111 0 LINE"
);
}
);
width = 726;
}
);
leftKerningGroup = "De-cy";
rightKerningGroup = "Tse-cy";
unicode = 0414;
},
{
glyphname = "Zhe-cy";
lastChange = "2014-11-10 22:19:09 +0100";
layers = (
{
guideLines = (
{
position = "{28, 455}";
}
);
layerId = "6959900B-8A08-4E04-B0F8-C63132552E7A";
name = "Bold Extended Italic";
paths = (
{
closed = 1;
nodes = (
"598 85 LINE",
"540 115 LINE",
"570 305 LINE",
"647 305 LINE",
"754 115 LINE",
"690 85 LINE",
"676 0 LINE",
"977 0 LINE",
"991 85 LINE",
"920 115 LINE",
"775 371 LINE",
"940 589 LINE",
"1040 617 LINE",
"1054 705 LINE",
"873 701 LINE",
"661 416 LINE",
"588 415 LINE",
"615 587 LINE",
"695 617 LINE",
"709 705 LINE",
"418 700 LINE",
"405 617 LINE",
"475 587 LINE",
"400 115 LINE",
"334 85 LINE",
"320 0 LINE",
"584 0 LINE"
);
},
{
closed = 1;
nodes = (
"448 415 LINE",
"373 415 LINE",
"251 700 LINE",
"74 705 LINE",
"60 617 LINE",
"150 589 LINE",
"247 371 LINE",
"20 115 LINE",
"-59 85 LINE",
"-73 0 LINE",
"229 0 LINE",
"243 85 LINE",
"187 115 LINE",
"354 305 LINE",
"430 305 LINE"
);
}
);
width = 980;
}
);
leftKerningGroup = X;
rightKerningGroup = X;
rightMetricsKey = K;
unicode = 0416;
},
{
glyphname = "Ze-cy";
lastChange = "2014-11-10 22:19:09 +0100";
layers = (
{
layerId = "6959900B-8A08-4E04-B0F8-C63132552E7A";
name = "Bold Extended Italic";
paths = (
{
closed = 1;
nodes = (
"77 501 LINE",
"180 501 LINE",
"199 582 LINE",
"199 582 OFFCURVE",
"245 595 OFFCURVE",
"299 595 CURVE SMOOTH",
"376 595 OFFCURVE",
"412 569 OFFCURVE",
"412 525 CURVE SMOOTH",
"412 468 OFFCURVE",
"369 415 OFFCURVE",
"257 415 CURVE SMOOTH",
"166 415 LINE",
"149 310 LINE",
"243 310 LINE SMOOTH",
"331 310 OFFCURVE",
"372 283 OFFCURVE",
"372 227 CURVE SMOOTH",
"372 156 OFFCURVE",
"310 110 OFFCURVE",
"220 110 CURVE SMOOTH",
"145 110 OFFCURVE",
"86 129 OFFCURVE",
"35 150 CURVE",
"-18 41 LINE",
"27 18 OFFCURVE",
"110 -13 OFFCURVE",
"215 -13 CURVE SMOOTH",
"397 -13 OFFCURVE",
"527 80 OFFCURVE",
"527 225 CURVE SMOOTH",
"527 295 OFFCURVE",
"485 347 OFFCURVE",
"414 368 CURVE",
"515 398 OFFCURVE",
"566 470 OFFCURVE",
"566 563 CURVE SMOOTH",
"566 663 OFFCURVE",
"478 717 OFFCURVE",
"327 717 CURVE SMOOTH",
"214 717 OFFCURVE",
"99 677 OFFCURVE",
"99 677 CURVE"
);
}
);
width = 582;
}
);
rightKerningGroup = B;
unicode = 0417;
},
{
glyphname = "Ii-cy";
lastChange = "2014-11-10 22:19:09 +0100";
layers = (
{
layerId = "6959900B-8A08-4E04-B0F8-C63132552E7A";
name = "Bold Extended Italic";
paths = (
{
closed = 1;
nodes = (
"584 557 LINE",
"257 274 LINE",
"234 139 LINE",
"564 422 LINE"
);
},
{
closed = 1;
nodes = (
"392 617 LINE",
"406 705 LINE",
"108 700 LINE",
"95 617 LINE",
"164 588 LINE",
"88 111 LINE",
"11 87 LINE",
"-3 0 LINE",
"294 0 LINE",
"308 87 LINE",
"238 111 LINE",
"314 587 LINE"
);
},
{
closed = 1;
nodes = (
"509 111 LINE",
"431 87 LINE",
"417 0 LINE",
"716 0 LINE",
"730 87 LINE",
"659 111 LINE",
"735 587 LINE",
"813 617 LINE",
"827 705 LINE",
"527 700 LINE",
"514 617 LINE",
"585 588 LINE"
);
}
);
width = 804;
}
);
leftKerningGroup = H;
rightKerningGroup = H;
unicode = 0418;
},
{
glyphname = "El-cy";
lastChange = "2014-11-10 22:19:09 +0100";
layers = (
{
layerId = "6959900B-8A08-4E04-B0F8-C63132552E7A";
name = "Bold Extended Italic";
paths = (
{
closed = 1;
nodes = (
"648 85 LINE",
"578 115 LINE",
"652 585 LINE",
"730 615 LINE",
"744 705 LINE",
"363 705 LINE",
"347 585 LINE",
"502 585 LINE",
"428 115 LINE",
"343 85 LINE",
"329 0 LINE",
"634 0 LINE"
);
},
{
closed = 1;
nodes = (
"123 705 LINE",
"108 615 LINE",
"234 585 LINE",
"214 485 OFFCURVE",
"193 392 OFFCURVE",
"162 292 CURVE SMOOTH",
"132 197 OFFCURVE",
"89 155 OFFCURVE",
"27 155 CURVE SMOOTH",
"18 155 OFFCURVE",
"1 157 OFFCURVE",
"-9 160 CURVE",
"-57 5 LINE",
"-30 -5 OFFCURVE",
"4 -12 OFFCURVE",
"33 -12 CURVE SMOOTH",
"170 -12 OFFCURVE",
"228 126 OFFCURVE",
"275 295 CURVE SMOOTH",
"303 396 OFFCURVE",
"326 489 OFFCURVE",
"347 585 CURVE",
"363 705 LINE"
);
}
);
width = 711;
}
);
leftKerningGroup = "De-cy";
rightKerningGroup = H;
unicode = 041B;
},
{
glyphname = "Pe-cy";
lastChange = "2014-11-10 22:19:09 +0100";
layers = (
{
layerId = "6959900B-8A08-4E04-B0F8-C63132552E7A";
name = "Bold Extended Italic";
paths = (
{
closed = 1;
nodes = (
"309 85 LINE",
"240 113 LINE",
"313 585 LINE",
"332 705 LINE",
"108 700 LINE",
"95 617 LINE",
"163 587 LINE",
"89 113 LINE",
"12 85 LINE",
"-1 0 LINE",
"295 0 LINE"
);
},
{
closed = 1;
nodes = (
"699 85 LINE",
"630 113 LINE",
"705 585 LINE",
"783 615 LINE",
"796 705 LINE",
"332 705 LINE",
"313 585 LINE",
"555 585 LINE",
"480 113 LINE",
"403 85 LINE",
"389 0 LINE",
"685 0 LINE"
);
}
);
width = 769;
}
);
leftKerningGroup = H;
rightKerningGroup = H;
unicode = 041F;
},
{
glyphname = "U-cy";
lastChange = "2014-11-10 22:19:09 +0100";
layers = (
{
layerId = "6959900B-8A08-4E04-B0F8-C63132552E7A";
name = "Bold Extended Italic";
paths = (
{
closed = 1;
nodes = (
"278 150 LINE",
"367 272 LINE",
"349 347 LINE",
"264 585 LINE",
"343 615 LINE",
"357 705 LINE",
"53 700 LINE",
"40 615 LINE",
"109 585 LINE"
);
},
{
closed = 1;
nodes = (
"321 232 LINE SMOOTH",
"274 149 OFFCURVE",
"227 115 OFFCURVE",
"160 115 CURVE SMOOTH",
"134 115 OFFCURVE",
"104 120 OFFCURVE",
"71 130 CURVE",
"29 20 LINE",
"77 -1 OFFCURVE",
"120 -12 OFFCURVE",
"160 -12 CURVE SMOOTH",
"261 -12 OFFCURVE",
"341 59 OFFCURVE",
"433 220 CURVE SMOOTH",
"642 585 LINE",
"521 585 LINE"
);
},
{
closed = 1;
nodes = (
"642 585 LINE",
"715 615 LINE",
"729 705 LINE",
"456 700 LINE",
"443 615 LINE",
"521 585 LINE"
);
}
);
width = 627;
}
);
leftKerningGroup = "U-cy";
rightKerningGroup = "U-cy";
unicode = 0423;
},
{
glyphname = "Ef-cy";
lastChange = "2014-11-10 22:19:09 +0100";
layers = (
{
layerId = "6959900B-8A08-4E04-B0F8-C63132552E7A";
name = "Bold Extended Italic";
paths = (
{
closed = 1;
nodes = (
"559 65 LINE",
"489 90 LINE",
"576 660 LINE",
"651 685 LINE",
"665 775 LINE",
"380 775 LINE",
"367 685 LINE",
"437 660 LINE",
"351 90 LINE",
"276 65 LINE",
"262 -20 LINE",
"545 -20 LINE"
);
},
{
closed = 1;
nodes = (
"208 624 OFFCURVE",
"53 526 OFFCURVE",
"53 319 CURVE SMOOTH",
"53 182 OFFCURVE",
"166 121 OFFCURVE",
"414 121 CURVE SMOOTH",
"750 121 OFFCURVE",
"879 240 OFFCURVE",
"879 426 CURVE SMOOTH",
"879 565 OFFCURVE",
"754 624 OFFCURVE",
"514 624 CURVE SMOOTH"
);
},
{
closed = 1;
nodes = (
"664 533 OFFCURVE",
"735 504 OFFCURVE",
"735 407 CURVE SMOOTH",
"735 264 OFFCURVE",
"672 219 OFFCURVE",
"435 219 CURVE SMOOTH",
"259 219 OFFCURVE",
"196 247 OFFCURVE",
"196 331 CURVE SMOOTH",
"196 488 OFFCURVE",
"294 533 OFFCURVE",
"495 533 CURVE SMOOTH"
);
}
);
width = 897;
}
);
leftKerningGroup = O;
rightKerningGroup = O;
unicode = 0424;
},
{
glyphname = "Che-cy";
lastChange = "2014-11-10 22:19:09 +0100";
layers = (
{
layerId = "6959900B-8A08-4E04-B0F8-C63132552E7A";
name = "Bold Extended Italic";
paths = (
{
closed = 1;
nodes = (
"643 86 LINE",
"573 112 LINE",
"648 588 LINE",
"725 616 LINE",
"740 705 LINE",
"447 700 LINE",
"434 615 LINE",
"498 588 LINE",
"423 112 LINE",
"323 86 LINE",
"310 0 LINE",
"629 0 LINE"
);
},
{
closed = 1;
nodes = (
"473 371 LINE",
"446 363 OFFCURVE",
"387 350 OFFCURVE",
"329 350 CURVE SMOOTH",
"265 350 OFFCURVE",
"233 378 OFFCURVE",
"249 468 CURVE SMOOTH",
"270 588 LINE",
"342 615 LINE",
"355 705 LINE",
"70 705 LINE",
"56 615 LINE",
"120 588 LINE",
"99 445 LINE SMOOTH",
"77 295 OFFCURVE",
"154 225 OFFCURVE",
"271 225 CURVE SMOOTH",
"364 225 OFFCURVE",
"429 252 OFFCURVE",
"457 263 CURVE"
);
}
);
width = 712;
}
);
rightKerningGroup = H;
unicode = 0427;
},
{
glyphname = "Tse-cy";
lastChange = "2014-11-10 22:19:09 +0100";
layers = (
{
guideLines = (
{
position = "{90, 115}";
}
);
layerId = "6959900B-8A08-4E04-B0F8-C63132552E7A";
name = "Bold Extended Italic";
paths = (
{
closed = 1;
nodes = (
"771 616 LINE",
"785 705 LINE",
"483 700 LINE",
"470 618 LINE",
"544 586 LINE",
"469 120 LINE",
"240 120 LINE",
"315 586 LINE",
"397 616 LINE",
"410 705 LINE",
"109 700 LINE",
"96 616 LINE",
"165 586 LINE",
"90 115 LINE",
"11 86 LINE",
"-1 0 LINE",
"574 0 LINE",
"601 -195 LINE",
"691 -195 LINE",
"734 100 LINE",
"620 115 LINE",
"694 586 LINE"
);
}
);
width = 775;
}
);
leftKerningGroup = H;
rightKerningGroup = "Tse-cy";
unicode = 0426;
},
{
glyphname = "Sha-cy";
lastChange = "2014-11-10 22:19:09 +0100";
layers = (
{
layerId = "6959900B-8A08-4E04-B0F8-C63132552E7A";
name = "Bold Extended Italic";
paths = (
{
closed = 1;
nodes = (
"108 700 LINE",
"96 615 LINE",
"164 588 LINE",
"90 113 LINE",
"12 86 LINE",
"-2 0 LINE",
"222 0 LINE",
"240 120 LINE",
"314 588 LINE",
"387 615 LINE",
"400 705 LINE"
);
},
{
closed = 1;
nodes = (
"798 700 LINE",
"785 615 LINE",
"853 588 LINE",
"779 120 LINE",
"240 120 LINE",
"222 0 LINE",
"987 0 LINE SMOOTH",
"1000 86 LINE",
"929 112 LINE",
"1003 588 LINE",
"1081 615 LINE",
"1095 705 LINE"
);
},
{
closed = 1;
nodes = (
"458 700 LINE",
"445 615 LINE",
"508 588 LINE",
"435 120 LINE",
"585 120 LINE",
"659 588 LINE",
"731 615 LINE",
"745 705 LINE"
);
}
);
width = 1070;
}
);
leftKerningGroup = H;
rightKerningGroup = H;
unicode = 0428;
},
{
glyphname = "Shcha-cy";
lastChange = "2014-11-10 22:19:09 +0100";
layers = (
{
guideLines = (
{
position = "{118, 115}";
}
);
layerId = "6959900B-8A08-4E04-B0F8-C63132552E7A";
name = "Bold Extended Italic";
paths = (
{
closed = 1;
nodes = (
"108 700 LINE",
"96 615 LINE",
"164 588 LINE",
"91 115 LINE",
"12 85 LINE",
"-2 0 LINE",
"222 0 LINE",
"240 120 LINE",
"314 588 LINE",
"387 615 LINE",
"400 705 LINE"
);
},
{
closed = 1;
nodes = (
"798 700 LINE",
"785 615 LINE",
"853 588 LINE",
"779 120 LINE",
"240 120 LINE",
"222 0 LINE",
"883 0 LINE SMOOTH",
"1044 100 LINE",
"929 115 LINE",
"1003 588 LINE",
"1081 615 LINE",
"1095 705 LINE"
);
},
{
closed = 1;
nodes = (
"458 700 LINE",
"445 615 LINE",
"508 588 LINE",
"435 120 LINE",
"585 120 LINE",
"659 588 LINE",
"731 615 LINE",
"745 705 LINE"
);
},
{
closed = 1;
nodes = (
"910 -195 LINE",
"1000 -195 LINE",
"1044 100 LINE",
"883 0 LINE"
);
}
);
width = 1084;
}
);
leftKerningGroup = H;
rightKerningGroup = "Tse-cy";
unicode = 0429;
},
{
glyphname = "Dzhe-cy";
lastChange = "2014-11-10 22:19:09 +0100";
layers = (
{
guideLines = (
{
position = "{199, 430}";
}
);
layerId = "6959900B-8A08-4E04-B0F8-C63132552E7A";
name = "Bold Extended Italic";
paths = (
{
closed = 1;
nodes = (
"109 700 LINE",
"96 616 LINE",
"165 586 LINE",
"89 112 LINE",
"11 86 LINE",
"-1 0 LINE",
"222 0 LINE",
"240 120 LINE",
"315 586 LINE",
"397 616 LINE",
"410 705 LINE"
);
},
{
closed = 1;
nodes = (
"483 700 LINE",
"470 618 LINE",
"544 586 LINE",
"469 120 LINE",
"240 120 LINE",
"222 0 LINE",
"677 0 LINE SMOOTH",
"690 85 LINE",
"618 115 LINE",
"694 586 LINE",
"771 616 LINE",
"785 705 LINE"
);
},
{
closed = 1;
nodes = (
"257 -195 LINE",
"350 -195 LINE",
"403 0 LINE",
"266 0 LINE"
);
}
);
width = 760;
}
);
leftKerningGroup = H;
rightKerningGroup = H;
unicode = 040F;
},
{
glyphname = "Ia-cy";
lastChange = "2014-11-10 22:19:09 +0100";
layers = (
{
layerId = "6959900B-8A08-4E04-B0F8-C63132552E7A";
name = "Bold Extended Italic";
paths = (
{
closed = 1;
nodes = (
"578 0 LINE",
"592 86 LINE",
"523 112 LINE",
"597 586 LINE",
"676 616 LINE",
"689 705 LINE",
"391 705 LINE SMOOTH",
"220 705 OFFCURVE",
"103 612 OFFCURVE",
"103 466 CURVE SMOOTH",
"103 376 OFFCURVE",
"170 321 OFFCURVE",
"225 300 CURVE",
"196 288 OFFCURVE",
"168 259 OFFCURVE",
"128 212 CURVE SMOOTH",
"41 110 LINE",
"-44 85 LINE",
"-57 0 LINE",
"123 0 LINE",
"243 165 LINE SMOOTH",
"290 229 OFFCURVE",
"314 257 OFFCURVE",
"352 257 CURVE SMOOTH",
"396 257 LINE",
"373 112 LINE",
"297 86 LINE",
"283 0 LINE"
);
},
{
closed = 1;
nodes = (
"372 362 LINE SMOOTH",
"292 362 OFFCURVE",
"253 392 OFFCURVE",
"253 462 CURVE SMOOTH",
"253 531 OFFCURVE",
"300 585 OFFCURVE",
"367 585 CURVE SMOOTH",
"447 585 LINE",
"412 362 LINE"
);
}
);
width = 661;
}
);
rightKerningGroup = H;
unicode = 042F;
},
{
glyphname = "Softsign-cy";
lastChange = "2014-11-10 22:19:09 +0100";
layers = (
{
layerId = "6959900B-8A08-4E04-B0F8-C63132552E7A";
name = "Bold Extended Italic";
paths = (
{
closed = 1;
nodes = (
"222 0 LINE",
"315 588 LINE",
"405 617 LINE",
"418 705 LINE",
"108 700 LINE",
"95 617 LINE",
"165 588 LINE",
"89 111 LINE",
"12 87 LINE",
"-2 0 LINE"
);
},
{
closed = 1;
nodes = (
"301 0 LINE SMOOTH",
"465 0 OFFCURVE",
"593 83 OFFCURVE",
"593 267 CURVE SMOOTH",
"593 384 OFFCURVE",
"506 432 OFFCURVE",
"384 432 CURVE SMOOTH",
"289 432 LINE",
"272 327 LINE",
"332 327 LINE SMOOTH",
"401 327 OFFCURVE",
"437 304 OFFCURVE",
"437 248 CURVE SMOOTH",
"437 173 OFFCURVE",
"389 120 OFFCURVE",
"314 120 CURVE SMOOTH",
"240 120 LINE",
"222 0 LINE"
);
}
);
width = 608;
}
);
leftKerningGroup = H;
unicode = 042C;
},
{
glyphname = "Hardsign-cy";
lastChange = "2014-11-10 22:19:09 +0100";
layers = (
{
guideLines = (
{
position = "{187, 490}";
}
);
layerId = "6959900B-8A08-4E04-B0F8-C63132552E7A";
name = "Bold Extended Italic";
paths = (
{
closed = 1;
nodes = (
"311 0 LINE",
"404 586 LINE",
"506 616 LINE",
"519 705 LINE",
"76 705 LINE",
"172 585 LINE",
"254 585 LINE",
"179 112 LINE",
"101 87 LINE",
"87 0 LINE"
);
},
{
closed = 1;
nodes = (
"133 490 LINE",
"43 490 LINE",
"76 705 LINE",
"172 585 LINE"
);
},
{
closed = 1;
nodes = (
"390 0 LINE SMOOTH",
"554 0 OFFCURVE",
"682 83 OFFCURVE",
"682 267 CURVE SMOOTH",
"682 384 OFFCURVE",
"595 432 OFFCURVE",
"473 432 CURVE SMOOTH",
"378 432 LINE",
"361 327 LINE",
"421 327 LINE SMOOTH",
"490 327 OFFCURVE",
"526 304 OFFCURVE",
"526 248 CURVE SMOOTH",
"526 173 OFFCURVE",
"478 120 OFFCURVE",
"403 120 CURVE SMOOTH",
"329 120 LINE",
"311 0 LINE"
);
}
);
width = 687;
}
);
leftKerningGroup = T;
rightKerningGroup = o;
unicode = 042A;
},
{
glyphname = "Yeru-cy";
lastChange = "2014-11-10 22:19:09 +0100";
layers = (
{
layerId = "6959900B-8A08-4E04-B0F8-C63132552E7A";
name = "Bold Extended Italic";
paths = (
{
closed = 1;
nodes = (
"222 0 LINE",
"315 588 LINE",
"405 617 LINE",
"418 705 LINE",
"108 700 LINE",
"95 617 LINE",
"165 588 LINE",
"89 111 LINE",
"12 87 LINE",
"-2 0 LINE"
);
},
{
closed = 1;
nodes = (
"301 0 LINE SMOOTH",
"465 0 OFFCURVE",
"593 83 OFFCURVE",
"593 267 CURVE SMOOTH",
"593 384 OFFCURVE",
"506 432 OFFCURVE",
"384 432 CURVE SMOOTH",
"289 432 LINE",
"272 327 LINE",
"332 327 LINE SMOOTH",
"401 327 OFFCURVE",
"437 304 OFFCURVE",
"437 248 CURVE SMOOTH",
"437 173 OFFCURVE",
"389 120 OFFCURVE",
"314 120 CURVE SMOOTH",
"240 120 LINE",
"222 0 LINE"
);
},
{
closed = 1;
nodes = (
"814 111 LINE",
"890 587 LINE",
"968 617 LINE",
"982 705 LINE",
"684 700 LINE",
"671 617 LINE",
"740 588 LINE",
"664 111 LINE",
"587 87 LINE",
"573 0 LINE",
"870 0 LINE",
"884 87 LINE"
);
}
);
width = 953;
}
);
leftKerningGroup = H;
rightKerningGroup = H;
unicode = 042B;
},
{
glyphname = "Lje-cy";
lastChange = "2014-11-10 22:19:09 +0100";
layers = (
{
layerId = "6959900B-8A08-4E04-B0F8-C63132552E7A";
name = "Bold Extended Italic";
paths = (
{
closed = 1;
nodes = (
"549 0 LINE",
"642 588 LINE",
"732 617 LINE",
"745 705 LINE",
"360 705 LINE",
"341 585 LINE",
"492 585 LINE",
"416 111 LINE",
"331 87 LINE",
"317 0 LINE"
);
},
{
closed = 1;
nodes = (
"628 0 LINE SMOOTH",
"792 0 OFFCURVE",
"920 83 OFFCURVE",
"920 267 CURVE SMOOTH",
"920 384 OFFCURVE",
"833 432 OFFCURVE",
"711 432 CURVE SMOOTH",
"616 432 LINE",
"599 327 LINE",
"659 327 LINE SMOOTH",
"728 327 OFFCURVE",
"764 304 OFFCURVE",
"764 248 CURVE SMOOTH",
"764 173 OFFCURVE",
"716 120 OFFCURVE",
"641 120 CURVE SMOOTH",
"567 120 LINE",
"549 0 LINE"
);
},
{
closed = 1;
nodes = (
"128 705 LINE",
"113 615 LINE",
"239 585 LINE",
"219 485 OFFCURVE",
"198 392 OFFCURVE",
"167 292 CURVE SMOOTH",
"137 197 OFFCURVE",
"94 155 OFFCURVE",
"32 155 CURVE SMOOTH",
"23 155 OFFCURVE",
"6 157 OFFCURVE",
"-4 160 CURVE",
"-52 5 LINE",
"-25 -5 OFFCURVE",
"9 -12 OFFCURVE",
"38 -12 CURVE SMOOTH",
"175 -12 OFFCURVE",
"233 126 OFFCURVE",
"280 295 CURVE SMOOTH",
"308 396 OFFCURVE",
"331 489 OFFCURVE",
"352 585 CURVE",
"368 705 LINE"
);
}
);
width = 940;
}
);
leftKerningGroup = "De-cy";
rightKerningGroup = o;
unicode = 0409;
},
{
glyphname = "Nje-cy";
lastChange = "2014-11-10 22:19:09 +0100";
layers = (
{
layerId = "6959900B-8A08-4E04-B0F8-C63132552E7A";
name = "Bold Extended Italic";
paths = (
{
closed = 1;
nodes = (
"702 0 LINE SMOOTH",
"866 0 OFFCURVE",
"993 98 OFFCURVE",
"993 272 CURVE SMOOTH",
"993 384 OFFCURVE",
"904 431 OFFCURVE",
"785 431 CURVE SMOOTH",
"689 431 LINE",
"671 321 LINE",
"733 321 LINE SMOOTH",
"802 321 OFFCURVE",
"837 299 OFFCURVE",
"837 249 CURVE SMOOTH",
"837 180 OFFCURVE",
"788 120 OFFCURVE",
"715 120 CURVE SMOOTH",
"641 120 LINE",
"623 0 LINE"
);
},
{
closed = 1;
nodes = (
"641 120 LINE",
"715 587 LINE",
"806 617 LINE",
"820 705 LINE",
"507 700 LINE",
"494 617 LINE",
"565 588 LINE",
"538 431 LINE",
"283 431 LINE",
"310 587 LINE",
"388 617 LINE",
"402 705 LINE",
"104 700 LINE",
"91 617 LINE",
"160 588 LINE",
"84 111 LINE",
"7 87 LINE",
"-7 0 LINE",
"290 0 LINE",
"304 87 LINE",
"234 111 LINE",
"267 321 LINE",
"521 321 LINE",
"489 111 LINE",
"411 87 LINE",
"397 0 LINE",
"623 0 LINE"
);
}
);
width = 997;
}
);
leftKerningGroup = H;
rightKerningGroup = "Softsign-cy";
unicode = 040A;
},
{
glyphname = "E-cy";
lastChange = "2014-11-10 22:19:09 +0100";
layers = (
{
layerId = "6959900B-8A08-4E04-B0F8-C63132552E7A";
name = "Bold Extended Italic";
paths = (
{
closed = 1;
nodes = (
"531 484 LINE",
"626 484 LINE",
"660 674 LINE",
"660 674 OFFCURVE",
"560 717 OFFCURVE",
"456 717 CURVE SMOOTH",
"232 717 OFFCURVE",
"55 546 OFFCURVE",
"55 252 CURVE SMOOTH",
"55 79 OFFCURVE",
"144 -13 OFFCURVE",
"314 -13 CURVE SMOOTH",
"439 -13 OFFCURVE",
"538 58 OFFCURVE",
"582 91 CURVE",
"541 176 LINE",
"507 157 OFFCURVE",
"436 117 OFFCURVE",
"351 117 CURVE SMOOTH",
"266 117 OFFCURVE",
"215 164 OFFCURVE",
"215 274 CURVE SMOOTH",
"215 397 OFFCURVE",
"265 592 OFFCURVE",
"432 592 CURVE SMOOTH",
"478 592 OFFCURVE",
"512 584 OFFCURVE",
"523 581 CURVE"
);
},
{
closed = 1;
nodes = (
"467 303 LINE",
"484 413 LINE",
"224 413 LINE",
"207 303 LINE"
);
}
);
width = 646;
}
);
unicode = 0404;
},
{
glyphname = "Ereversed-cy";
lastChange = "2014-11-10 22:19:09 +0100";
layers = (
{
layerId = "6959900B-8A08-4E04-B0F8-C63132552E7A";
name = "Bold Extended Italic";
paths = (
{
closed = 1;
nodes = (
"7 86 LINE",
"25 70 OFFCURVE",
"111 -12 OFFCURVE",
"226 -12 CURVE SMOOTH",
"451 -12 OFFCURVE",
"617 174 OFFCURVE",
"617 452 CURVE SMOOTH",
"617 626 OFFCURVE",
"524 717 OFFCURVE",
"354 717 CURVE SMOOTH",
"237 717 OFFCURVE",
"158 686 OFFCURVE",
"113 667 CURVE",
"215 577 LINE",
"215 577 OFFCURVE",
"260 588 OFFCURVE",
"321 588 CURVE SMOOTH",
"410 588 OFFCURVE",
"457 543 OFFCURVE",
"457 431 CURVE SMOOTH",
"457 286 OFFCURVE",
"390 118 OFFCURVE",
"246 118 CURVE SMOOTH",
"166 118 OFFCURVE",
"96 164 OFFCURVE",
"77 177 CURVE"
);
},
{
closed = 1;
nodes = (
"206 412 LINE",
"190 302 LINE",
"450 302 LINE",
"466 412 LINE"
);
},
{
closed = 1;
nodes = (
"90 484 LINE",
"185 484 LINE",
"215 577 LINE",
"113 667 LINE"
);
}
);
width = 646;
}
);
rightKerningGroup = O;
unicode = 042D;
},
{
glyphname = "Yi-cy";
lastChange = "2014-11-10 22:19:09 +0100";
layers = (
{
components = (
{
name = I;
transform = "{1, 0, 0, 1, -2, 0}";
}
);
layerId = "6959900B-8A08-4E04-B0F8-C63132552E7A";
name = "Bold Extended Italic";
paths = (
{
closed = 1;
nodes = (
"320 793 OFFCURVE",
"343 770 OFFCURVE",
"380 770 CURVE SMOOTH",
"433 770 OFFCURVE",
"464 814 OFFCURVE",
"464 865 CURVE SMOOTH",
"464 903 OFFCURVE",
"440 926 OFFCURVE",
"402 926 CURVE SMOOTH",
"349 926 OFFCURVE",
"320 881 OFFCURVE",
"320 830 CURVE SMOOTH"
);
},
{
closed = 1;
nodes = (
"107 793 OFFCURVE",
"130 770 OFFCURVE",
"167 770 CURVE SMOOTH",
"220 770 OFFCURVE",
"252 814 OFFCURVE",
"252 865 CURVE SMOOTH",
"252 903 OFFCURVE",
"228 926 OFFCURVE",
"190 926 CURVE SMOOTH",
"136 926 OFFCURVE",
"107 881 OFFCURVE",
"107 830 CURVE SMOOTH"
);
}
);
width = 384;
}
);
leftKerningGroup = H;
rightKerningGroup = H;
unicode = 0407;
},
{
glyphname = "Tshe-cy";
lastChange = "2014-11-10 22:19:09 +0100";
layers = (
{
layerId = "6959900B-8A08-4E04-B0F8-C63132552E7A";
name = "Bold Extended Italic";
paths = (
{
closed = 1;
nodes = (
"321 238 LINE",
"362 271 OFFCURVE",
"417 304 OFFCURVE",
"467 304 CURVE SMOOTH",
"513 304 OFFCURVE",
"538 283 OFFCURVE",
"538 239 CURVE SMOOTH",
"538 232 OFFCURVE",
"536 218 OFFCURVE",
"534 206 CURVE SMOOTH",
"517 120 LINE",
"454 90 LINE",
"441 0 LINE",
"717 0 LINE",
"731 90 LINE",
"668 120 LINE",
"689 239 LINE SMOOTH",
"692 258 OFFCURVE",
"694 278 OFFCURVE",
"694 291 CURVE SMOOTH",
"694 378 OFFCURVE",
"644 429 OFFCURVE",
"549 429 CURVE SMOOTH",
"463 429 OFFCURVE",
"383 378 OFFCURVE",
"337 338 CURVE"
);
},
{
closed = 1;
nodes = (
"70 0 LINE",
"376 0 LINE",
"390 87 LINE",
"328 111 LINE",
"403 587 LINE",
"507 587 LINE",
"517 490 LINE",
"607 490 LINE",
"641 705 LINE",
"76 705 LINE",
"40 490 LINE",
"130 490 LINE",
"170 587 LINE",
"253 587 LINE",
"178 111 LINE",
"84 87 LINE"
);
}
);
width = 765;
}
);
leftKerningGroup = T;
rightKerningGroup = n;
unicode = 040B;
},
{
glyphname = "Iu-cy";
lastChange = "2014-11-10 22:19:09 +0100";
layers = (
{
layerId = "6959900B-8A08-4E04-B0F8-C63132552E7A";
name = "Bold Extended Italic";
paths = (
{
closed = 1;
nodes = (
"545 422 LINE",
"290 422 LINE",
"317 587 LINE",
"395 617 LINE",
"409 705 LINE",
"111 700 LINE",
"98 617 LINE",
"167 588 LINE",
"91 111 LINE",
"14 87 LINE",
"0 0 LINE",
"297 0 LINE",
"311 87 LINE",
"241 111 LINE",
"272 305 LINE",
"527 305 LINE"
);
},
{
closed = 1;
nodes = (
"887 -13 OFFCURVE",
"1025 198 OFFCURVE",
"1025 455 CURVE SMOOTH",
"1025 618 OFFCURVE",
"929 717 OFFCURVE",
"765 717 CURVE SMOOTH",
"533 717 OFFCURVE",
"385 501 OFFCURVE",
"385 246 CURVE SMOOTH",
"385 79 OFFCURVE",
"477 -13 OFFCURVE",
"637 -13 CURVE SMOOTH"
);
},
{
closed = 1;
nodes = (
"865 305 OFFCURVE",
"812 112 OFFCURVE",
"662 112 CURVE SMOOTH",
"584 112 OFFCURVE",
"545 165 OFFCURVE",
"545 258 CURVE SMOOTH",
"545 395 OFFCURVE",
"612 592 OFFCURVE",
"745 592 CURVE SMOOTH",
"824 592 OFFCURVE",
"865 544 OFFCURVE",
"865 449 CURVE SMOOTH"
);
}
);
width = 1034;
}
);
leftKerningGroup = H;
rightKerningGroup = O;
unicode = 042E;
},
{
glyphname = "Dje-cy";
lastChange = "2014-11-10 22:19:09 +0100";
layers = (
{
layerId = "6959900B-8A08-4E04-B0F8-C63132552E7A";
name = "Bold Extended Italic";
paths = (
{
closed = 1;
nodes = (
"67 0 LINE",
"309 0 LINE",
"401 585 LINE",
"506 585 LINE",
"516 490 LINE",
"605 490 LINE",
"639 705 LINE",
"73 705 LINE",
"40 490 LINE",
"129 490 LINE",
"168 585 LINE",
"251 585 LINE",
"176 110 LINE",
"81 85 LINE"
);
},
{
closed = 1;
nodes = (
"320 235 LINE",
"363 263 OFFCURVE",
"434 290 OFFCURVE",
"478 290 CURVE SMOOTH",
"521 290 OFFCURVE",
"549 267 OFFCURVE",
"549 222 CURVE SMOOTH",
"549 142 OFFCURVE",
"530 100 OFFCURVE",
"460 100 CURVE SMOOTH",
"440 100 OFFCURVE",
"411 101 OFFCURVE",
"396 103 CURVE",
"372 3 LINE",
"378 1 OFFCURVE",
"431 -12 OFFCURVE",
"471 -12 CURVE SMOOTH",
"637 -12 OFFCURVE",
"701 117 OFFCURVE",
"701 267 CURVE SMOOTH",
"701 357 OFFCURVE",
"649 410 OFFCURVE",
"555 410 CURVE SMOOTH",
"477 410 OFFCURVE",
"385 369 OFFCURVE",
"335 334 CURVE"
);
}
);
width = 732;
}
);
leftKerningGroup = T;
rightKerningGroup = j;
unicode = 0402;
},
{
glyphname = "Ustraitstroke-cy";
lastChange = "2014-11-10 22:19:09 +0100";
layers = (
{
components = (
{
name = Y;
transform = "{1, 0, 0, 1, 0, 0}";
}
);
layerId = "6959900B-8A08-4E04-B0F8-C63132552E7A";
name = "Bold Extended Italic";
paths = (
{
closed = 1;
nodes = (
"80 173 LINE",
"522 173 LINE",
"537 278 LINE",
"95 278 LINE"
);
}
);
width = 620;
}
);
leftKerningGroup = Y;
rightKerningGroup = Y;
unicode = 04B0;
},
{
glyphname = "be-cy";
lastChange = "2014-11-10 22:19:09 +0100";
layers = (
{
layerId = "6959900B-8A08-4E04-B0F8-C63132552E7A";
name = "Bold Extended Italic";
paths = (
{
closed = 1;
nodes = (
"611 801 LINE",
"530 784 OFFCURVE",
"460 764 OFFCURVE",
"388 743 CURVE SMOOTH",
"149 672 OFFCURVE",
"75 400 OFFCURVE",
"75 210 CURVE SMOOTH",
"75 70 OFFCURVE",
"145 -10 OFFCURVE",
"275 -10 CURVE SMOOTH",
"446 -10 OFFCURVE",
"585 119 OFFCURVE",
"585 329 CURVE SMOOTH",
"585 468 OFFCURVE",
"523 535 OFFCURVE",
"413 535 CURVE SMOOTH",
"343 535 OFFCURVE",
"273 509 OFFCURVE",
"229 457 CURVE",
"258 572 OFFCURVE",
"353 616 OFFCURVE",
"421 638 CURVE SMOOTH",
"489 661 OFFCURVE",
"555 671 OFFCURVE",
"635 691 CURVE"
);
},
{
closed = 1;
nodes = (
"236 105 OFFCURVE",
"210 135 OFFCURVE",
"210 205 CURVE SMOOTH",
"210 365 OFFCURVE",
"283 420 OFFCURVE",
"360 420 CURVE SMOOTH",
"414 420 OFFCURVE",
"440 393 OFFCURVE",
"440 320 CURVE SMOOTH",
"440 237 OFFCURVE",
"405 105 OFFCURVE",
"289 105 CURVE SMOOTH"
);
}
);
width = 622;
}
);
rightKerningGroup = o;
unicode = 0431;
},
{
glyphname = "ve-cy";
lastChange = "2014-11-10 22:19:09 +0100";
layers = (
{
layerId = "6959900B-8A08-4E04-B0F8-C63132552E7A";
name = "Bold Extended Italic";
paths = (
{
closed = 1;
nodes = (
"477 55 OFFCURVE",
"347 -10 OFFCURVE",
"237 -10 CURVE SMOOTH",
"107 -10 OFFCURVE",
"31 60 OFFCURVE",
"31 190 CURVE SMOOTH",
"31 391 OFFCURVE",
"168 550 OFFCURVE",
"342 550 CURVE SMOOTH",
"450 550 OFFCURVE",
"507 492 OFFCURVE",
"507 417 CURVE SMOOTH",
"507 340 OFFCURVE",
"460 275 OFFCURVE",
"357 246 CURVE SMOOTH",
"304 231 OFFCURVE",
"208 225 OFFCURVE",
"168 225 CURVE",
"168 289 LINE",
"333 299 OFFCURVE",
"370 330 OFFCURVE",
"370 385 CURVE SMOOTH",
"370 415 OFFCURVE",
"350 439 OFFCURVE",
"310 439 CURVE SMOOTH",
"220 439 OFFCURVE",
"169 326 OFFCURVE",
"169 210 CURVE SMOOTH",
"169 130 OFFCURVE",
"192 90 OFFCURVE",
"247 90 CURVE SMOOTH",
"297 90 OFFCURVE",
"345 120 OFFCURVE",
"345 180 CURVE SMOOTH",
"345 204 OFFCURVE",
"335 221 OFFCURVE",
"319 227 CURVE SMOOTH",
"294 237 OFFCURVE",
"238 226 OFFCURVE",
"168 224 CURVE",
"168 288 LINE",
"378 303 OFFCURVE",
"477 275 OFFCURVE",
"477 170 CURVE SMOOTH"
);
}
);
width = 532;
}
);
leftKerningGroup = n;
rightKerningGroup = "ve-cy";
unicode = 0432;
},
{
glyphname = "ge-cy";
lastChange = "2014-11-10 22:19:09 +0100";
layers = (
{
guideLines = (
{
position = "{393, 550}";
}
);
layerId = "6959900B-8A08-4E04-B0F8-C63132552E7A";
name = "Bold Extended Italic";
paths = (
{
closed = 1;
nodes = (
"322 112 OFFCURVE",
"260 92 OFFCURVE",
"225 92 CURVE SMOOTH",
"194 92 OFFCURVE",
"176 105 OFFCURVE",
"176 127 CURVE SMOOTH",
"176 222 OFFCURVE",
"474 255 OFFCURVE",
"474 423 CURVE SMOOTH",
"474 500 OFFCURVE",
"411 550 OFFCURVE",
"313 550 CURVE SMOOTH",
"241 550 OFFCURVE",
"150 523 OFFCURVE",
"78 479 CURVE",
"112 405 LINE",
"167 430 OFFCURVE",
"227 447 OFFCURVE",
"265 447 CURVE SMOOTH",
"299 447 OFFCURVE",
"317 435 OFFCURVE",
"317 414 CURVE SMOOTH",
"317 330 OFFCURVE",
"19 286 OFFCURVE",
"19 126 CURVE SMOOTH",
"19 46 OFFCURVE",
"88 -10 OFFCURVE",
"187 -10 CURVE SMOOTH",
"264 -10 OFFCURVE",
"358 21 OFFCURVE",
"431 71 CURVE",
"389 144 LINE"
);
}
);
width = 500;
}
);
leftKerningGroup = n;
rightKerningGroup = "ge-cy";
unicode = 0433;
},
{
glyphname = "gheupturn-cy";
lastChange = "2014-11-10 22:19:09 +0100";
layers = (
{
layerId = "6959900B-8A08-4E04-B0F8-C63132552E7A";
name = "Bold Extended Italic";
paths = (
{
closed = 1;
nodes = (
"228 105 LINE",
"322 80 LINE",
"310 0 LINE",
"-13 0 LINE",
"0 80 LINE",
"83 105 LINE",
"133 430 LINE",
"60 455 LINE",
"72 535 LINE",
"297 540 LINE",
"457 540 LINE",
"504 420 LINE",
"278 420 LINE"
);
},
{
closed = 1;
nodes = (
"407 540 LINE",
"448 680 LINE",
"540 680 LINE",
"505 420 LINE"
);
}
);
width = 486;
}
);
leftKerningGroup = n;
rightKerningGroup = "ge-cy";
unicode = 0491;
},
{
glyphname = "de-cy";
lastChange = "2014-11-10 22:19:09 +0100";
layers = (
{
guideLines = (
{
position = "{114, 807}";
}
);
layerId = "6959900B-8A08-4E04-B0F8-C63132552E7A";
name = "Bold Extended Italic";
paths = (
{
closed = 1;
nodes = (
"204 663 LINE",
"240 672 OFFCURVE",
"275 678 OFFCURVE",
"306 678 CURVE SMOOTH",
"375 678 OFFCURVE",
"435 633 OFFCURVE",
"435 510 CURVE SMOOTH",
"435 491 OFFCURVE",
"433 469 OFFCURVE",
"430 445 CURVE",
"419 478 OFFCURVE",
"377 535 OFFCURVE",
"284 535 CURVE SMOOTH",
"137 535 OFFCURVE",
"34 389 OFFCURVE",
"34 203 CURVE SMOOTH",
"34 61 OFFCURVE",
"101 -10 OFFCURVE",
"223 -10 CURVE SMOOTH",
"488 -10 OFFCURVE",
"549 293 OFFCURVE",
"549 492 CURVE SMOOTH",
"549 687 OFFCURVE",
"468 781 OFFCURVE",
"331 781 CURVE SMOOTH",
"287 781 OFFCURVE",
"241 772 OFFCURVE",
"200 757 CURVE"
);
},
{
closed = 1;
nodes = (
"201 110 OFFCURVE",
"177 142 OFFCURVE",
"178 216 CURVE SMOOTH",
"180 318 OFFCURVE",
"225 425 OFFCURVE",
"315 425 CURVE SMOOTH",
"382 425 OFFCURVE",
"399 366 OFFCURVE",
"398 304 CURVE SMOOTH",
"396 239 OFFCURVE",
"360 110 OFFCURVE",
"252 110 CURVE SMOOTH"
);
}
);
width = 574;
}
);
leftKerningGroup = "el-cy";
rightKerningGroup = "tse-cy";
unicode = 0434;
},
{
glyphname = "zhe-cy";
lastChange = "2014-11-10 22:19:09 +0100";
layers = (
{
guideLines = (
{
position = "{616, 72}";
},
{
position = "{925, 362}";
}
);
layerId = "6959900B-8A08-4E04-B0F8-C63132552E7A";
name = "Bold Extended Italic";
paths = (
{
closed = 1;
nodes = (
"468 537 LINE",
"383 0 LINE",
"503 0 LINE",
"588 542 LINE"
);
},
{
closed = 1;
nodes = (
"655 330 LINE",
"335 330 LINE",
"317 240 LINE",
"641 240 LINE"
);
},
{
closed = 1;
nodes = (
"962 376 LINE",
"985 521 LINE",
"947 539 OFFCURVE",
"910 550 OFFCURVE",
"874 550 CURVE SMOOTH",
"721 550 OFFCURVE",
"628 340 OFFCURVE",
"628 177 CURVE SMOOTH",
"628 51 OFFCURVE",
"677 -8 OFFCURVE",
"755 -8 CURVE SMOOTH",
"800 -8 OFFCURVE",
"854 11 OFFCURVE",
"913 47 CURVE",
"887 112 LINE",
"846 93 OFFCURVE",
"814 82 OFFCURVE",
"789 82 CURVE SMOOTH",
"753 82 OFFCURVE",
"738 109 OFFCURVE",
"738 182 CURVE SMOOTH",
"738 290 OFFCURVE",
"788 446 OFFCURVE",
"854 446 CURVE SMOOTH",
"863 446 OFFCURVE",
"871 445 OFFCURVE",
"880 443 CURVE",
"886 376 LINE"
);
},
{
closed = 1;
nodes = (
"8 166 LINE",
"-15 21 LINE",
"23 3 OFFCURVE",
"60 -8 OFFCURVE",
"96 -8 CURVE SMOOTH",
"249 -8 OFFCURVE",
"342 202 OFFCURVE",
"342 365 CURVE SMOOTH",
"342 491 OFFCURVE",
"293 550 OFFCURVE",
"215 550 CURVE SMOOTH",
"170 550 OFFCURVE",
"116 531 OFFCURVE",
"57 495 CURVE",
"83 430 LINE",
"124 449 OFFCURVE",
"156 460 OFFCURVE",
"181 460 CURVE SMOOTH",
"217 460 OFFCURVE",
"232 433 OFFCURVE",
"232 360 CURVE SMOOTH",
"232 252 OFFCURVE",
"182 96 OFFCURVE",
"116 96 CURVE SMOOTH",
"107 96 OFFCURVE",
"99 97 OFFCURVE",
"90 99 CURVE",
"84 166 LINE"
);
}
);
width = 970.478;
}
);
leftKerningGroup = x;
rightKerningGroup = x;
unicode = 0436;
},
{
glyphname = "ze-cy";
lastChange = "2014-11-10 22:19:09 +0100";
layers = (
{
layerId = "6959900B-8A08-4E04-B0F8-C63132552E7A";
name = "Bold Extended Italic";
paths = (
{
closed = 1;
nodes = (
"235 95 OFFCURVE",
"183 95 CURVE SMOOTH",
"134 95 OFFCURVE",
"74 113 OFFCURVE",
"25 137 CURVE",
"-13 49 LINE",
"40 13 OFFCURVE",
"92 -11 OFFCURVE",
"184 -11 CURVE SMOOTH",
"311 -11 OFFCURVE",
"418 64 OFFCURVE",
"418 158 CURVE SMOOTH",
"418 245 OFFCURVE",
"359 276 OFFCURVE",
"303 282 CURVE",
"378 300 OFFCURVE",
"433 345 OFFCURVE",
"433 419 CURVE SMOOTH",
"433 512 OFFCURVE",
"347 550 OFFCURVE",
"245 550 CURVE SMOOTH",
"179 550 OFFCURVE",
"110 534 OFFCURVE",
"65 506 CURVE",
"45 371 LINE",
"136 371 LINE",
"149 430 LINE",
"168 438 OFFCURVE",
"199 445 OFFCURVE",
"228 445 CURVE SMOOTH",
"265 445 OFFCURVE",
"299 434 OFFCURVE",
"299 387 CURVE SMOOTH",
"299 342 OFFCURVE",
"269 319 OFFCURVE",
"184 319 CURVE SMOOTH",
"141 319 LINE",
"128 229 LINE",
"176 229 LINE SMOOTH",
"249 229 OFFCURVE",
"274 207 OFFCURVE",
"274 166 CURVE SMOOTH",
"274 115 OFFCURVE"
);
}
);
width = 486;
}
);
unicode = 0437;
},
{
glyphname = "ii-cy";
lastChange = "2014-11-10 22:19:09 +0100";
layers = (
{
layerId = "6959900B-8A08-4E04-B0F8-C63132552E7A";
name = "Bold Extended Italic";
paths = (
{
closed = 1;
nodes = (
"362 0 LINE",
"583 10 LINE",
"596 89 LINE",
"520 104 LINE",
"589 540 LINE",
"448 540 LINE",
"415 342 LINE",
"403 297 OFFCURVE",
"343 112 OFFCURVE",
"254 112 CURVE SMOOTH",
"225 112 OFFCURVE",
"216 133 OFFCURVE",
"216 162 CURVE SMOOTH",
"216 173 OFFCURVE",
"217 184 OFFCURVE",
"219 197 CURVE SMOOTH",
"274 540 LINE",
"52 532 LINE",
"39 452 LINE",
"116 432 LINE",
"73 170 LINE SMOOTH",
"69 149 OFFCURVE",
"68 129 OFFCURVE",
"68 111 CURVE SMOOTH",
"68 39 OFFCURVE",
"98 -10 OFFCURVE",
"178 -10 CURVE SMOOTH",
"309 -10 OFFCURVE",
"391 149 OFFCURVE",
"396 159 CURVE"
);
}
);
width = 640;
}
);
leftKerningGroup = n;
unicode = 0438;
},
{
glyphname = "ka-cy";
lastChange = "2014-11-10 22:19:09 +0100";
layers = (
{
layerId = "6959900B-8A08-4E04-B0F8-C63132552E7A";
name = "Bold Extended Italic";
paths = (
{
closed = 1;
nodes = (
"58 533 LINE",
"44 452 LINE",
"122 433 LINE",
"53 0 LINE",
"197 0 LINE",
"237 244 LINE",
"296 244 LINE",
"384 0 LINE",
"557 0 LINE",
"568 80 LINE",
"496 103 LINE",
"413 306 LINE",
"531 443 LINE",
"596 455 LINE",
"609 540 LINE",
"371 535 LINE",
"359 455 LINE",
"399 441 LINE",
"317 339 LINE",
"252 339 LINE",
"285 542 LINE"
);
}
);
width = 560;
}
);
leftKerningGroup = n;
rightKerningGroup = k;
unicode = 043A;
},
{
glyphname = "el-cy";
lastChange = "2014-11-10 22:19:09 +0100";
layers = (
{
layerId = "6959900B-8A08-4E04-B0F8-C63132552E7A";
name = "Bold Extended Italic";
paths = (
{
closed = 1;
nodes = (
"560 540 LINE",
"88 540 LINE",
"74 452 LINE",
"188 430 LINE",
"287 420 LINE",
"397 420 LINE"
);
},
{
closed = 1;
nodes = (
"398 431 LINE",
"331 0 LINE",
"555 10 LINE",
"568 90 LINE",
"492 105 LINE",
"560 540 LINE"
);
},
{
closed = 1;
nodes = (
"188 430 LINE",
"147 214 OFFCURVE",
"112 113 OFFCURVE",
"21 113 CURVE SMOOTH",
"5 113 OFFCURVE",
"-9 116 OFFCURVE",
"-18 119 CURVE",
"-52 4 LINE",
"-38 -2 OFFCURVE",
"-10 -10 OFFCURVE",
"20 -10 CURVE SMOOTH",
"176 -10 OFFCURVE",
"228 143 OFFCURVE",
"287 420 CURVE"
);
}
);
width = 612;
}
);
leftKerningGroup = "el-cy";
unicode = 043B;
},
{
glyphname = "em-cy";
lastChange = "2014-11-10 22:19:09 +0100";
layers = (
{
layerId = "6959900B-8A08-4E04-B0F8-C63132552E7A";
name = "Bold Extended Italic";
paths = (
{
closed = 1;
nodes = (
"362 -5 LINE",
"430 0 LINE",
"674 366 LINE",
"677 535 LINE",
"399 107 LINE",
"468 89 LINE",
"340 540 LINE",
"262 355 LINE"
);
},
{
closed = 1;
nodes = (
"340 540 LINE",
"90 540 LINE",
"75 452 LINE",
"188 430 LINE",
"262 355 LINE"
);
},
{
closed = 1;
nodes = (
"188 430 LINE",
"147 214 OFFCURVE",
"117 113 OFFCURVE",
"31 113 CURVE SMOOTH",
"15 113 OFFCURVE",
"1 116 OFFCURVE",
"-8 119 CURVE",
"-42 4 LINE",
"-28 -2 OFFCURVE",
"0 -10 OFFCURVE",
"30 -10 CURVE SMOOTH",
"181 -10 OFFCURVE",
"228 143 OFFCURVE",
"287 420 CURVE"
);
},
{
closed = 1;
nodes = (
"835 540 LINE",
"677 535 LINE",
"674 366 LINE",
"611 0 LINE",
"824 0 LINE",
"837 80 LINE",
"761 105 LINE"
);
}
);
width = 892;
}
);
leftKerningGroup = n;
unicode = 043C;
},
{
glyphname = "en-cy";
lastChange = "2014-11-10 22:19:09 +0100";
layers = (
{
layerId = "6959900B-8A08-4E04-B0F8-C63132552E7A";
name = "Bold Extended Italic";
paths = (
{
closed = 1;
nodes = (
"250 332 LINE",
"233 227 LINE",
"432 227 LINE",
"449 332 LINE"
);
},
{
closed = 1;
nodes = (
"283 540 LINE",
"57 535 LINE",
"45 455 LINE",
"120 430 LINE",
"54 0 LINE",
"200 0 LINE"
);
},
{
closed = 1;
nodes = (
"478 534 LINE",
"395 0 LINE",
"619 10 LINE",
"632 90 LINE",
"557 105 LINE",
"625 540 LINE"
);
}
);
width = 676;
}
);
leftKerningGroup = n;
unicode = 043D;
},
{
glyphname = "er-cy";
lastChange = "2014-11-10 22:19:09 +0100";
layers = (
{
layerId = "6959900B-8A08-4E04-B0F8-C63132552E7A";
name = "Bold Extended Italic";
paths = (
{
closed = 1;
nodes = (
"275 540 LINE",
"57 532 LINE",
"44 452 LINE",
"117 432 LINE",
"14 -230 LINE",
"235 -230 LINE",
"248 -150 LINE",
"171 -125 LINE",
"193 9 LINE",
"214 -1 OFFCURVE",
"244 -9 OFFCURVE",
"281 -9 CURVE SMOOTH",
"437 -9 OFFCURVE",
"589 129 OFFCURVE",
"589 365 CURVE SMOOTH",
"589 465 OFFCURVE",
"539 550 OFFCURVE",
"445 550 CURVE SMOOTH",
"313 550 OFFCURVE",
"241 400 OFFCURVE",
"235 388 CURVE"
);
},
{
closed = 1;
nodes = (
"225 193 LINE",
"225 193 OFFCURVE",
"283 430 OFFCURVE",
"384 430 CURVE SMOOTH",
"423 430 OFFCURVE",
"439 388 OFFCURVE",
"439 342 CURVE SMOOTH",
"439 206 OFFCURVE",
"363 100 OFFCURVE",
"281 100 CURVE SMOOTH",
"244 100 OFFCURVE",
"210 111 OFFCURVE",
"210 111 CURVE"
);
}
);
width = 616;
}
);
leftKerningGroup = p;
rightKerningGroup = o;
unicode = 0440;
},
{
glyphname = "ef-cy";
lastChange = "2014-11-10 22:19:09 +0100";
layers = (
{
layerId = "6959900B-8A08-4E04-B0F8-C63132552E7A";
name = "Bold Extended Italic";
paths = (
{
closed = 1;
nodes = (
"522 775 LINE",
"324 775 LINE",
"311 687 LINE",
"388 667 LINE",
"244 -230 LINE",
"441 -230 LINE",
"455 -150 LINE",
"378 -125 LINE"
);
},
{
closed = 1;
nodes = (
"193 557 OFFCURVE",
"30 424 OFFCURVE",
"30 217 CURVE SMOOTH",
"30 86 OFFCURVE",
"130 0 OFFCURVE",
"332 0 CURVE SMOOTH",
"574 0 OFFCURVE",
"733 125 OFFCURVE",
"733 335 CURVE SMOOTH",
"733 473 OFFCURVE",
"634 557 OFFCURVE",
"435 557 CURVE SMOOTH"
);
},
{
closed = 1;
nodes = (
"546 464 OFFCURVE",
"594 411 OFFCURVE",
"594 326 CURVE SMOOTH",
"594 177 OFFCURVE",
"511 94 OFFCURVE",
"351 94 CURVE SMOOTH",
"223 94 OFFCURVE",
"168 152 OFFCURVE",
"168 235 CURVE SMOOTH",
"168 375 OFFCURVE",
"262 464 OFFCURVE",
"421 464 CURVE SMOOTH"
);
}
);
width = 762;
}
);
leftKerningGroup = o;
leftMetricsKey = o;
rightKerningGroup = o;
rightMetricsKey = o;
unicode = 0444;
},
{
glyphname = "che-cy";
lastChange = "2014-11-10 22:19:09 +0100";
layers = (
{
layerId = "6959900B-8A08-4E04-B0F8-C63132552E7A";
name = "Bold Extended Italic";
paths = (
{
closed = 1;
nodes = (
"190 299 OFFCURVE",
"197 270 OFFCURVE",
"247 270 CURVE SMOOTH",
"297 270 OFFCURVE",
"354 321 OFFCURVE",
"379 358 CURVE",
"365 261 LINE",
"343 225 OFFCURVE",
"265 150 OFFCURVE",
"175 150 CURVE SMOOTH",
"60 150 OFFCURVE",
"36 230 OFFCURVE",
"57 362 CURVE SMOOTH",
"68 431 LINE",
"4 455 LINE",
"17 535 LINE",
"232 540 LINE",
"203 374 LINE SMOOTH"
);
},
{
closed = 1;
nodes = (
"539 10 LINE",
"315 0 LINE",
"365 281 LINE",
"401 534 LINE",
"545 540 LINE",
"477 105 LINE",
"552 90 LINE"
);
}
);
width = 596;
}
);
unicode = 0447;
},
{
glyphname = "tse-cy";
lastChange = "2014-11-10 22:19:09 +0100";
layers = (
{
layerId = "6959900B-8A08-4E04-B0F8-C63132552E7A";
name = "Bold Extended Italic";
paths = (
{
closed = 1;
nodes = (
"631 114 LINE",
"507 103 LINE",
"578 540 LINE",
"440 540 LINE",
"407 342 LINE",
"395 297 OFFCURVE",
"335 112 OFFCURVE",
"246 112 CURVE SMOOTH",
"217 112 OFFCURVE",
"208 133 OFFCURVE",
"208 162 CURVE SMOOTH",
"208 184 OFFCURVE",
"214 220 OFFCURVE",
"266 540 CURVE",
"44 532 LINE",
"31 452 LINE",
"108 432 LINE",
"68 190 OFFCURVE",
"60 145 OFFCURVE",
"60 111 CURVE SMOOTH",
"60 39 OFFCURVE",
"90 -10 OFFCURVE",
"170 -10 CURVE SMOOTH",
"290.087 -10 OFFCURVE",
"372 123 OFFCURVE",
"388 163 CURVE",
"384 136 OFFCURVE",
"381 112 OFFCURVE",
"381 92 CURVE SMOOTH",
"381 24 OFFCURVE",
"405 -6 OFFCURVE",
"448 -6 CURVE SMOOTH",
"475 -6 OFFCURVE",
"518 7 OFFCURVE",
"569 38 CURVE",
"461 -175 LINE",
"588 -175 LINE",
"648 91 LINE"
);
}
);
width = 676;
}
);
leftKerningGroup = n;
rightKerningGroup = "tse-cy";
unicode = 0446;
},
{
glyphname = "sha-cy";
lastChange = "2014-11-10 22:19:09 +0100";
layers = (
{
layerId = "6959900B-8A08-4E04-B0F8-C63132552E7A";
name = "Bold Extended Italic";
paths = (
{
closed = 1;
nodes = (
"409 334 LINE",
"397 278 OFFCURVE",
"325 112 OFFCURVE",
"260 112 CURVE SMOOTH",
"231 112 OFFCURVE",
"222 133 OFFCURVE",
"222 162 CURVE SMOOTH",
"222 184 OFFCURVE",
"229 220 OFFCURVE",
"280 540 CURVE",
"58 532 LINE",
"45 452 LINE",
"122 432 LINE",
"79 171 OFFCURVE",
"74 145 OFFCURVE",
"74 111 CURVE SMOOTH",
"74 39 OFFCURVE",
"104 -10 OFFCURVE",
"184 -10 CURVE SMOOTH",
"305 -10 OFFCURVE",
"383 159 OFFCURVE",
"388 169 CURVE"
);
},
{
closed = 1;
nodes = (
"658 0 LINE",
"879 10 LINE",
"892 89 LINE",
"816 104 LINE",
"885 540 LINE",
"744 540 LINE",
"711 342 LINE",
"699 297 OFFCURVE",
"629 112 OFFCURVE",
"564 112 CURVE SMOOTH",
"535 112 OFFCURVE",
"526 133 OFFCURVE",
"526 162 CURVE SMOOTH",
"526 184 OFFCURVE",
"531 210 OFFCURVE",
"584 540 CURVE",
"439 532 LINE",
"409 334 LINE",
"387 201 LINE SMOOTH",
"378 148 OFFCURVE",
"366 -10 OFFCURVE",
"488 -10 CURVE SMOOTH",
"609 -10 OFFCURVE",
"687 149 OFFCURVE",
"692 159 CURVE"
);
}
);
width = 936;
}
);
leftKerningGroup = u;
unicode = 0448;
},
{
glyphname = "shcha-cy";
lastChange = "2014-11-10 22:19:09 +0100";
layers = (
{
layerId = "6959900B-8A08-4E04-B0F8-C63132552E7A";
name = "Bold Extended Italic";
paths = (
{
closed = 1;
nodes = (
"688 94 CURVE SMOOTH",
"688 26 OFFCURVE",
"712 -6 OFFCURVE",
"756 -6 CURVE SMOOTH",
"779 -6 OFFCURVE",
"820 4 OFFCURVE",
"875 38 CURVE",
"768 -175 LINE",
"895 -175 LINE",
"955 93 LINE",
"939 113 LINE",
"814 103 LINE",
"885 540 LINE",
"744 540 LINE",
"711 342 LINE",
"699 283 OFFCURVE",
"629 112 OFFCURVE",
"564 112 CURVE SMOOTH",
"535 112 OFFCURVE",
"526 133 OFFCURVE",
"526 162 CURVE SMOOTH",
"526 184 OFFCURVE",
"530 201 OFFCURVE",
"584 540 CURVE",
"439 532 LINE",
"409 334 LINE",
"397 278 OFFCURVE",
"325 112 OFFCURVE",
"260 112 CURVE SMOOTH",
"231 112 OFFCURVE",
"222 133 OFFCURVE",
"222 162 CURVE SMOOTH",
"222 184 OFFCURVE",
"225 200 OFFCURVE",
"280 540 CURVE",
"58 532 LINE",
"45 452 LINE",
"122 432 LINE",
"79 167 OFFCURVE",
"74 145 OFFCURVE",
"74 111 CURVE SMOOTH",
"74 39 OFFCURVE",
"104 -10 OFFCURVE",
"184 -10 CURVE SMOOTH",
"291 -10 OFFCURVE",
"364 121 OFFCURVE",
"383 159 CURVE",
"381 92 OFFCURVE",
"397 -10 OFFCURVE",
"488 -10 CURVE SMOOTH",
"609 -10 OFFCURVE",
"677 123 OFFCURVE",
"694 161 CURVE",
"690 136 OFFCURVE",
"688 113 OFFCURVE"
);
}
);
width = 982;
}
);
leftKerningGroup = n;
rightKerningGroup = "tse-cy";
unicode = 0449;
},
{
glyphname = "dzhe-cy";
lastChange = "2014-11-10 22:19:09 +0100";
layers = (
{
components = (
{
name = u;
transform = "{1, 0, 0, 1, 0, 0}";
}
);
layerId = "6959900B-8A08-4E04-B0F8-C63132552E7A";
name = "Bold Extended Italic";
paths = (
{
closed = 1;
nodes = (
"294 -220 LINE",
"328 -45 LINE",
"244 -45 LINE",
"173 -220 LINE"
);
}
);
width = 640;
}
);
leftKerningGroup = u;
unicode = 045F;
},
{
glyphname = "ia-cy";
lastChange = "2014-11-10 22:19:09 +0100";
layers = (
{
guideLines = (
{
position = "{401, 10}";
}
);
layerId = "6959900B-8A08-4E04-B0F8-C63132552E7A";
name = "Bold Extended Italic";
paths = (
{
closed = 1;
nodes = (
"382 289 OFFCURVE",
"339 277 OFFCURVE",
"309 277 CURVE SMOOTH",
"264 277 OFFCURVE",
"227 293 OFFCURVE",
"227 343 CURVE SMOOTH",
"227 403 OFFCURVE",
"273 445 OFFCURVE",
"333 445 CURVE SMOOTH",
"350 445 OFFCURVE",
"366 442 OFFCURVE",
"379 438 CURVE",
"306 0 LINE",
"527 10 LINE",
"540 90 LINE",
"467 105 LINE",
"533 524 LINE",
"473 538 OFFCURVE",
"413 549 OFFCURVE",
"343 549 CURVE SMOOTH",
"175 549 OFFCURVE",
"90 437 OFFCURVE",
"90 340 CURVE SMOOTH",
"90 256 OFFCURVE",
"152 186 OFFCURVE",
"286 186 CURVE SMOOTH",
"341 186 OFFCURVE",
"371 199 OFFCURVE",
"392 211 CURVE",
"401 298 LINE"
);
},
{
closed = 1;
nodes = (
"160 201 OFFCURVE",
"97 134 OFFCURVE",
"40 100 CURVE",
"-25 80 LINE",
"-38 0 LINE",
"130 0 LINE",
"182 37 OFFCURVE",
"247 124 OFFCURVE",
"284 200 CURVE",
"178 239 LINE"
);
}
);
width = 579;
}
);
unicode = 044F;
},
{
glyphname = "softsign-cy";
lastChange = "2014-11-10 22:19:09 +0100";
layers = (
{
guideLines = (
{
position = "{281, -10}";
}
);
layerId = "6959900B-8A08-4E04-B0F8-C63132552E7A";
name = "Bold Extended Italic";
paths = (
{
closed = 1;
nodes = (
"253 360 LINE",
"292 540 LINE",
"67 535 LINE",
"55 455 LINE",
"129 430 LINE",
"82 199 LINE SMOOTH",
"54 60 OFFCURVE",
"128 -10 OFFCURVE",
"243 -10 CURVE SMOOTH",
"389 -10 OFFCURVE",
"498 81 OFFCURVE",
"498 225 CURVE SMOOTH",
"498 305 OFFCURVE",
"447 356 OFFCURVE",
"372 356 CURVE SMOOTH",
"312 356 OFFCURVE",
"250 310 OFFCURVE",
"231 293 CURVE"
);
},
{
closed = 1;
nodes = (
"217 100 OFFCURVE",
"210 138 OFFCURVE",
"220 204 CURVE",
"241 225 OFFCURVE",
"270 247 OFFCURVE",
"305 247 CURVE SMOOTH",
"330 247 OFFCURVE",
"347 230 OFFCURVE",
"347 201 CURVE SMOOTH",
"347 151 OFFCURVE",
"322 100 OFFCURVE",
"267 100 CURVE SMOOTH"
);
}
);
width = 529;
}
);
leftKerningGroup = n;
rightKerningGroup = "softsign-cy";
unicode = 044C;
},
{
glyphname = "hardsign-cy";
lastChange = "2014-11-10 22:19:09 +0100";
layers = (
{
guideLines = (
{
position = "{66, -10}";
}
);
layerId = "6959900B-8A08-4E04-B0F8-C63132552E7A";
name = "Bold Extended Italic";
paths = (
{
closed = 1;
nodes = (
"374 365 OFFCURVE",
"307 300 OFFCURVE",
"272 257 CURVE",
"295 319 OFFCURVE",
"336 388 OFFCURVE",
"380 455 CURVE",
"395 540 LINE",
"317 540 LINE",
"266 451 OFFCURVE",
"152 275 OFFCURVE",
"152 145 CURVE SMOOTH",
"152 35 OFFCURVE",
"221 -10 OFFCURVE",
"331 -10 CURVE SMOOTH",
"461 -10 OFFCURVE",
"575 100 OFFCURVE",
"575 240 CURVE SMOOTH",
"575 315 OFFCURVE",
"529 365 OFFCURVE",
"454 365 CURVE SMOOTH"
);
},
{
closed = 1;
nodes = (
"295 100 OFFCURVE",
"275 116 OFFCURVE",
"275 156 CURVE SMOOTH",
"275 166 OFFCURVE",
"276 174 OFFCURVE",
"278 182 CURVE",
"298 216 OFFCURVE",
"342 245 OFFCURVE",
"375 245 CURVE SMOOTH",
"405 245 OFFCURVE",
"424 229 OFFCURVE",
"424 202 CURVE SMOOTH",
"424 139 OFFCURVE",
"380 100 OFFCURVE",
"330 100 CURVE SMOOTH"
);
},
{
closed = 1;
nodes = (
"317 540 LINE",
"43 540 LINE",
"27 339 LINE",
"121 339 LINE",
"149 430 LINE",
"292 430 LINE"
);
}
);
width = 592;
}
);
leftKerningGroup = "te-cy";
rightKerningGroup = "softsign-cy";
unicode = 044A;
},
{
glyphname = "yeru-cy";
lastChange = "2014-11-10 22:19:09 +0100";
layers = (
{
layerId = "6959900B-8A08-4E04-B0F8-C63132552E7A";
name = "Bold Extended Italic";
paths = (
{
closed = 1;
nodes = (
"613 540 LINE",
"528 0 LINE",
"752 10 LINE",
"765 90 LINE",
"689 105 LINE",
"758 540 LINE"
);
},
{
closed = 1;
nodes = (
"253 360 LINE",
"292 540 LINE",
"67 535 LINE",
"55 455 LINE",
"129 430 LINE",
"82 199 LINE SMOOTH",
"54 60 OFFCURVE",
"128 -10 OFFCURVE",
"243 -10 CURVE SMOOTH",
"389 -10 OFFCURVE",
"498 81 OFFCURVE",
"498 225 CURVE SMOOTH",
"498 305 OFFCURVE",
"447 356 OFFCURVE",
"372 356 CURVE SMOOTH",
"312 356 OFFCURVE",
"250 310 OFFCURVE",
"231 293 CURVE"
);
},
{
closed = 1;
nodes = (
"217 100 OFFCURVE",
"210 138 OFFCURVE",
"220 204 CURVE",
"241 225 OFFCURVE",
"270 247 OFFCURVE",
"305 247 CURVE SMOOTH",
"330 247 OFFCURVE",
"347 230 OFFCURVE",
"347 201 CURVE SMOOTH",
"347 151 OFFCURVE",
"322 100 OFFCURVE",
"267 100 CURVE SMOOTH"
);
}
);
width = 809;
}
);
leftKerningGroup = n;
rightKerningGroup = a;
unicode = 044B;
},
{
glyphname = "lje-cy";
lastChange = "2014-11-10 22:19:09 +0100";
layers = (
{
layerId = "6959900B-8A08-4E04-B0F8-C63132552E7A";
name = "Bold Extended Italic";
paths = (
{
closed = 1;
nodes = (
"575 540 LINE",
"88 540 LINE",
"74 452 LINE",
"188 430 LINE",
"287 420 LINE",
"412 420 LINE"
);
},
{
closed = 1;
nodes = (
"188 430 LINE",
"147 214 OFFCURVE",
"112 113 OFFCURVE",
"21 113 CURVE SMOOTH",
"5 113 OFFCURVE",
"-9 116 OFFCURVE",
"-18 119 CURVE",
"-52 4 LINE",
"-38 -2 OFFCURVE",
"-10 -10 OFFCURVE",
"20 -10 CURVE SMOOTH",
"176 -10 OFFCURVE",
"228 143 OFFCURVE",
"287 420 CURVE"
);
},
{
closed = 1;
nodes = (
"536 360 LINE",
"575 540 LINE",
"350 535 LINE",
"338 455 LINE",
"412 430 LINE",
"365 199 LINE SMOOTH",
"337 60 OFFCURVE",
"411 -10 OFFCURVE",
"526 -10 CURVE SMOOTH",
"672 -10 OFFCURVE",
"781 81 OFFCURVE",
"781 225 CURVE SMOOTH",
"781 305 OFFCURVE",
"730 356 OFFCURVE",
"655 356 CURVE SMOOTH",
"595 356 OFFCURVE",
"533 310 OFFCURVE",
"514 293 CURVE"
);
},
{
closed = 1;
nodes = (
"500 100 OFFCURVE",
"493 138 OFFCURVE",
"503 204 CURVE",
"524 225 OFFCURVE",
"553 247 OFFCURVE",
"588 247 CURVE SMOOTH",
"613 247 OFFCURVE",
"630 230 OFFCURVE",
"630 201 CURVE SMOOTH",
"630 151 OFFCURVE",
"605 100 OFFCURVE",
"550 100 CURVE SMOOTH"
);
}
);
width = 812;
}
);
leftKerningGroup = "el-cy";
rightKerningGroup = "softsign-cy";
rightMetricsKey = "softsign-cy";
unicode = 0459;
},
